<?xml version="1.0" encoding="UTF-8" standalone="no"?>
<svg width="288px" height="288px" viewBox="0 0 288 288" version="1.1" xmlns="http://www.w3.org/2000/svg" xmlns:xlink="http://www.w3.org/1999/xlink">
    <!-- Generator: Sketch 3.8.3 (29802) - http://www.bohemiancoding.com/sketch -->
    <title>google</title>
    <desc>Created with Sketch.</desc>
    <defs></defs>
    <g id="Page-1" stroke="none" stroke-width="1" fill="none" fill-rule="evenodd">
        <g id="google" fill="#FFFFFF">
            <path d="M147.825,165.735 C139.752,160.029 124.344,146.151 124.344,137.988 C124.344,128.43 127.071,123.714 141.462,112.473 C156.204,100.944 166.653,82.053 166.653,63.189 C166.653,40.761 156.645,27 137.889,9 L166.185,9 L186.147,0 L96.93,0 C56.925,0 19.296,30.258 19.296,65.349 C19.296,101.223 46.557,130.158 87.255,130.158 C90.081,130.158 92.826,130.086 95.526,129.906 C92.88,134.946 90.999,140.634 90.999,146.547 C90.999,156.519 96.363,164.601 103.131,171.207 C98.028,171.207 93.069,171.351 87.678,171.351 C38.115,171.342 0,202.887 0,235.611 C0,267.822 41.805,288 91.332,288 C147.816,288 179.001,255.942 179.001,223.722 C179.01,197.883 171.378,182.421 147.825,165.735 L147.825,165.735 Z M100.161,121.032 C77.166,120.348 55.332,95.319 51.363,65.151 C47.403,34.956 62.811,11.853 85.779,12.537 C108.765,13.239 130.608,37.449 134.586,67.635 C138.555,97.83 123.129,121.716 100.161,121.032 L100.161,121.032 Z M91.152,273.735 C56.907,273.735 32.175,252.072 32.175,226.026 C32.175,200.52 62.847,179.271 97.101,179.64 C105.093,179.73 112.536,181.008 119.286,183.195 C137.88,196.137 151.218,203.445 154.998,218.16 C155.682,221.148 156.087,224.235 156.087,227.367 C156.087,253.395 139.302,273.735 91.152,273.735 L91.152,273.735 Z" id="Shape"></path>
            <polygon id="Shape" points="243 126 243 81 225 81 225 126 180 126 180 144 225 144 225 189 243 189 243 144 288 144 288 126"></polygon>
        </g>
    </g>
</svg>