<?xml version="1.0" encoding="UTF-8" standalone="no"?>
<svg width="312px" height="254px" viewBox="0 0 312 254" version="1.1" xmlns="http://www.w3.org/2000/svg" xmlns:xlink="http://www.w3.org/1999/xlink">
    <!-- Generator: Sketch 3.8.3 (29802) - http://www.bohemiancoding.com/sketch -->
    <title>twitter</title>
    <desc>Created with Sketch.</desc>
    <defs></defs>
    <g id="Page-1" stroke="none" stroke-width="1" fill="none" fill-rule="evenodd">
        <g id="twitter" fill="#FFFFFF">
            <path d="M302.671,5.486 C290.361,12.791 276.734,18.092 262.219,20.953 C250.603,8.574 234.045,0.834 215.722,0.834 C180.545,0.834 152.025,29.355 152.025,64.538 C152.025,69.524 152.586,74.383 153.676,79.054 C100.731,76.394 53.787,51.038 22.367,12.495 C16.884,21.899 13.745,32.841 13.745,44.526 C13.745,66.624 24.989,86.125 42.083,97.546 C31.645,97.212 21.819,94.344 13.228,89.573 C13.222,89.838 13.222,90.109 13.222,90.38 C13.222,121.239 35.181,146.98 64.326,152.842 C58.981,154.292 53.353,155.073 47.541,155.073 C43.432,155.073 39.442,154.676 35.553,153.926 C43.665,179.232 67.187,197.656 95.059,198.166 C73.257,215.253 45.795,225.439 15.945,225.439 C10.808,225.439 5.734,225.136 0.749,224.544 C28.948,242.627 62.429,253.166 98.4,253.166 C215.578,253.166 279.647,156.101 279.647,71.919 C279.647,69.158 279.59,66.404 279.471,63.669 C291.913,54.706 302.716,43.481 311.25,30.705 C299.835,35.779 287.551,39.201 274.662,40.733 C287.822,32.853 297.913,20.374 302.671,5.486 L302.671,5.486 Z" id="Shape"></path>
        </g>
    </g>
</svg>