<svg xmlns="http://www.w3.org/2000/svg" viewBox="2019 -709 23.927 16.279">
  <defs>
    <style>
      .cls-1 {
        fill: #fff;
      }
    </style>
  </defs>
  <path id="path-5" class="cls-1" d="M119.964,397.279h0a12.207,12.207,0,0,1-6.286-2.249A12.927,12.927,0,0,1,109,389.156a12.928,12.928,0,0,1,4.676-5.872,12.765,12.765,0,0,1,14.574,0,12.937,12.937,0,0,1,4.677,5.872,12.39,12.39,0,0,1-4.677,5.873,13.3,13.3,0,0,1-6.286,2.244v-2.663a4.938,4.938,0,0,0,2.806-1.539,5.74,5.74,0,0,0,1.632-3.807,5.1,5.1,0,0,0-1.632-3.806,5.736,5.736,0,0,0-3.806-1.632,5.1,5.1,0,0,0-3.807,1.632,5.739,5.739,0,0,0-1.631,3.806,5.311,5.311,0,0,0,1.631,3.807,5.378,5.378,0,0,0,2.807,1.536v2.669Zm1-4.859a3.347,3.347,0,1,1,2.283-.979A3.144,3.144,0,0,1,120.964,392.42Z" transform="translate(1910 -1090)"/>
</svg>
