<svg xmlns="http://www.w3.org/2000/svg" viewBox="352 196 266.801 267">
  <defs>
    <style>
      .cls-fb {
        fill: #fff;
      }
    </style>
  </defs>
  <path id="White_1_" class="cls-fb" d="M252.2,0H14.7A14.724,14.724,0,0,0,0,14.7V252.1a14.724,14.724,0,0,0,14.7,14.7H142.5V163.5H107.7V123.2h34.8V93.6c0-34.5,21.1-53.2,51.8-53.2A282.74,282.74,0,0,1,225.4,42V78H204.1c-16.7,0-20,7.9-20,19.6v25.7H224l-5.2,40.3H184.1V267h68a14.724,14.724,0,0,0,14.7-14.7V14.7A14.575,14.575,0,0,0,252.2,0Z" transform="translate(352 196)"/>
</svg>
