<?xml version="1.0" encoding="UTF-8"?>
<svg viewBox="0 0 1550 1188" version="1.1" xmlns="http://www.w3.org/2000/svg" xmlns:xlink="http://www.w3.org/1999/xlink">
<g id="notice-check" class="cls-1" fill="#000000">
    <path d="M1550,232 C1550,258.667 1540.667,281.333 1522,300 L798,1024 L662,1160 C643.333,1178.667 620.667,1188 594,1188 C567.333,1188 544.667,1178.667 526,1160 L390,1024 L28,662 C9.333,643.333 0,620.667 0,594 C0,567.333 9.333,544.667 28,526 L164,390 C182.667,371.333 205.333,362 232,362 C258.667,362 281.333,371.333 300,390 L594,685 L1250,28 C1268.667,9.333 1291.333,0 1318,0 C1344.667,0 1367.333,9.333 1386,28 L1522,164 C1540.667,182.667 1550,205.333 1550,232 Z" id="Shape"></path>
</g>
</svg>
