<?xml version="1.0" encoding="UTF-8"?>
<svg viewBox="0 0 444 1408" version="1.1" xmlns="http://www.w3.org/2000/svg" xmlns:xlink="http://www.w3.org/1999/xlink">
    <path class="cls-1" d="M414,1120 L414,1344 C414,1361.33333 407.666667,1376.33333 395,1389 C382.333333,1401.66667 367.333333,1408 350,1408 L94,1408 C76.6666667,1408 61.6666667,1401.66667 49,1389 C36.3333333,1376.33333 30,1361.33333 30,1344 L30,1120 C30,1102.66667 36.3333333,1087.66667 49,1075 C61.6666667,1062.33333 76.6666667,1056 94,1056 L350,1056 C367.333333,1056 382.333333,1062.33333 395,1075 C407.666667,1087.66667 414,1102.66667 414,1120 Z M444,64 L416,832 C415.333333,849.333333 408.5,864.333333 395.5,877 C382.5,889.666667 367.333333,896 350,896 L94,896 C76.6666667,896 61.5,889.666667 48.5,877 C35.5,864.333333 28.6666667,849.333333 28,832 L5.91679483e-14,64 C-0.666666667,46.6666667 5.16666667,31.6666667 17.5,19 C29.8333333,6.33333333 44.6666667,0 62,0 L382,0 C399.333333,0 414.166667,6.33333333 426.5,19 C438.833333,31.6666667 444.666667,46.6666667 444,64 Z" id="Shape" fill="#000000"></path>
</svg>
