<svg xmlns="http://www.w3.org/2000/svg" viewBox="-4377 -7165.54 17.451 26.201">
  <path class="cls-1" d="M380.57,235.68l-2.44,2.19.79,3.28a.68.68,0,0,1-1,.78l-2.7-1.78-2.7,1.78a.68.68,0,0,1-1-.78l.76-3.28-2.44-2.19a.72.72,0,0,1,.39-1.25l3.17-.25,1.21-3.14a.65.65,0,0,1,1.23,0l1.2,3.14,3.15.25a.71.71,0,0,1,.38,1.25Zm2.1-10.14H367.78a1.33,1.33,0,0,0-1.28,1.36v17.77a1.88,1.88,0,0,0,.76,1.53l7.1,5.25a1.43,1.43,0,0,0,1.73,0l7.1-5.25a1.92,1.92,0,0,0,.76-1.53V226.9a1.32,1.32,0,0,0-1.29-1.36Z" transform="translate(-4743.5 -7391.08)"/>
</svg>
