<svg xmlns="http://www.w3.org/2000/svg" xmlns:xlink="http://www.w3.org/1999/xlink" viewBox="3579 -481 263 354">
  <defs>
    <style>
      .cls-pi.cls-pi.cls-pi.cls-1 {
        clip-path: url(#clip-_3b);
      }

      .cls-pi.cls-pi.cls-pi.cls-2 {
        opacity: 0.3;
      }

      .cls-pi.cls-3 {
        fill: #ededed;
      }

      .cls-pi.cls-4 {
        fill: #209dd2;
      }

      .cls-pi.cls-12, .cls-pi.cls-5, .cls-pi.cls-9 {
        fill: #fff;
      }

      .cls-pi.cls-5 {
        fill: transparent;
      }

      .cls-pi.cls-6 {
        fill: #57bf93;
      }

      .cls-pi.cls-7 {
        fill: #afafaf;
      }

      .cls-pi.cls-8 {
        fill: #95989a;
      }

      .cls-pi.cls-9 {
        font-size: 14px;
        font-family: SFUIDisplay-Bold, SF UI Display;
        font-weight: 700;
      }

      .cls-pi.cls-10 {
        fill: url(#linear-gradient);
      }

      .cls-pi.cls-11 {
        fill: #f1b515;
      }

      .cls-pi.cls-12 {
        font-size: 15px;
        font-family: SFUIDisplay-Regular, SF UI Display;
      }

      .cls-pi.cls-13 {
        filter: url(#Rectangle_1599);
      }
    </style>
    <linearGradient id="linear-gradient" x1="0.5" x2="0.5" y2="1" gradientUnits="objectBoundingBox">
      <stop offset="0" stop-color="#c49511"/>
      <stop offset="1" stop-color="#f1b515"/>
    </linearGradient>
    <filter id="Rectangle_1599" x="3579" y="-294.667" width="192" height="169.333" filterUnits="userSpaceOnUse">
      <feOffset dy="3" input="SourceAlpha"/>
      <feGaussianBlur stdDeviation="3" result="blur"/>
      <feFlood flood-opacity="0.161"/>
      <feComposite operator="in" in2="blur"/>
      <feComposite in="SourceGraphic"/>
    </filter>
    <clipPath id="clip-_3b">
      <rect x="3579" y="-481" width="263" height="354"/>
    </clipPath>
  </defs>
  <g id="_3b" data-name="3b" class="cls-pi cls-pi">
    <rect class="cls-pi cls-5" x="3579" y="-481" width="263" height="354"/>
    <g id="Group_240" data-name="Group 240" class="cls-pi cls-2" transform="translate(3562 -554)">
      <g id="Group_239" data-name="Group 239" transform="translate(-5 24)">
        <rect id="Rectangle_1449" data-name="Rectangle 1449" class="cls-pi cls-3" width="70" height="116.667" transform="translate(45 49)"/>
        <rect id="Rectangle_1450" data-name="Rectangle 1450" class="cls-pi cls-4" width="70" height="23.333" transform="translate(45 58.333)"/>
        <g id="Group_236" data-name="Group 236" transform="translate(59 63)">
          <circle id="Ellipse_126" data-name="Ellipse 126" class="cls-pi cls-5" cx="7" cy="7" r="7" transform="translate(0)"/>
          <rect id="Rectangle_1451" data-name="Rectangle 1451" class="cls-pi cls-5" width="22.167" height="2.333" transform="translate(18.667 3.5)"/>
          <rect id="Rectangle_1452" data-name="Rectangle 1452" class="cls-pi cls-5" width="14" height="2.333" transform="translate(18.667 9.333)"/>
        </g>
        <rect id="Rectangle_1453" data-name="Rectangle 1453" class="cls-pi cls-5" width="58.333" height="33.833" rx="2" transform="translate(50.833 87.5)"/>
        <rect id="Rectangle_1454" data-name="Rectangle 1454" class="cls-pi cls-5" width="58.333" height="33.833" rx="2" transform="translate(50.833 126)"/>
        <path id="Rectangle_1455" data-name="Rectangle 1455" class="cls-pi cls-6" d="M2,0H56.333a2,2,0,0,1,2,2V9.333a0,0,0,0,1,0,0H0a0,0,0,0,1,0,0V2A2,2,0,0,1,2,0Z" transform="translate(50.833 87.5)"/>
        <path id="Rectangle_1456" data-name="Rectangle 1456" class="cls-pi cls-6" d="M2,0H56.333a2,2,0,0,1,2,2V9.333a0,0,0,0,1,0,0H0a0,0,0,0,1,0,0V2A2,2,0,0,1,2,0Z" transform="translate(50.833 126)"/>
        <rect id="Rectangle_1457" data-name="Rectangle 1457" class="cls-pi cls-5" width="22.167" height="2.333" transform="translate(54.333 91)"/>
        <rect id="Rectangle_1458" data-name="Rectangle 1458" class="cls-pi cls-5" width="22.167" height="2.333" transform="translate(54.333 129.5)"/>
        <rect id="Rectangle_1459" data-name="Rectangle 1459" class="cls-pi cls-7" width="22.167" height="2.333" transform="translate(54.333 101.5)"/>
        <g id="Group_237" data-name="Group 237" transform="translate(55.5 52.5)">
          <rect id="Rectangle_1460" data-name="Rectangle 1460" class="cls-pi cls-8" width="22.167" height="2.333" transform="translate(0)"/>
          <rect id="Rectangle_1461" data-name="Rectangle 1461" class="cls-pi cls-8" width="22.167" height="2.333" transform="translate(25.667)"/>
        </g>
        <rect id="Rectangle_1462" data-name="Rectangle 1462" class="cls-pi cls-7" width="22.167" height="2.333" transform="translate(54.333 140)"/>
        <rect id="Rectangle_1463" data-name="Rectangle 1463" class="cls-pi cls-7" width="23.333" height="2.333" transform="translate(82.333 140)"/>
        <rect id="Rectangle_1464" data-name="Rectangle 1464" class="cls-pi cls-7" width="9.333" height="9.333" transform="translate(54.333 147)"/>
        <rect id="Rectangle_1465" data-name="Rectangle 1465" class="cls-pi cls-7" width="9.333" height="9.333" transform="translate(82.333 147)"/>
        <rect id="Rectangle_1466" data-name="Rectangle 1466" class="cls-pi cls-7" width="9.333" height="9.333" transform="translate(68.333 147)"/>
        <rect id="Rectangle_1467" data-name="Rectangle 1467" class="cls-pi cls-7" width="9.333" height="9.333" transform="translate(96.333 147)"/>
        <rect id="Rectangle_1468" data-name="Rectangle 1468" class="cls-pi cls-7" width="33.833" height="2.333" transform="translate(54.333 107.333)"/>
        <rect id="Rectangle_1469" data-name="Rectangle 1469" class="cls-pi cls-7" width="28" height="2.333" transform="translate(54.333 113.167)"/>
        <rect id="Rectangle_1470" data-name="Rectangle 1470" class="cls-pi cls-5" width="70" height="9.333" transform="translate(45 49)"/>
        <g id="Group_238" data-name="Group 238" transform="translate(68.333 52.5)">
          <rect id="Rectangle_1471" data-name="Rectangle 1471" class="cls-pi cls-8" width="23.333" height="2.333" transform="translate(0)"/>
        </g>
      </g>
      <text id="FREE" class="cls-pi cls-9" transform="translate(75 209)"><tspan x="-16.362" y="0">FREE</tspan></text>
    </g>
    <g id="Group_245" data-name="Group 245" class="cls-pi cls-2" transform="translate(3602 -481)">
      <g id="Group_244" data-name="Group 244" transform="translate(-45 -49)">
        <rect id="Rectangle_1472" data-name="Rectangle 1472" class="cls-pi cls-3" width="70" height="169.167" transform="translate(130 49)"/>
        <rect id="Rectangle_1473" data-name="Rectangle 1473" class="cls-pi cls-4" width="70" height="23.333" transform="translate(130 58.333)"/>
        <g id="Group_241" data-name="Group 241" transform="translate(144 63)">
          <circle id="Ellipse_127" data-name="Ellipse 127" class="cls-pi cls-5" cx="7" cy="7" r="7"/>
          <rect id="Rectangle_1474" data-name="Rectangle 1474" class="cls-pi cls-5" width="22.167" height="2.333" transform="translate(18.667 3.5)"/>
          <rect id="Rectangle_1475" data-name="Rectangle 1475" class="cls-pi cls-5" width="14" height="2.333" transform="translate(18.667 9.333)"/>
        </g>
        <rect id="Rectangle_1476" data-name="Rectangle 1476" class="cls-pi cls-5" width="58.333" height="33.833" rx="2" transform="translate(135.833 87.5)"/>
        <rect id="Rectangle_1477" data-name="Rectangle 1477" class="cls-pi cls-5" width="58.333" height="33.833" rx="2" transform="translate(135.833 126)"/>
        <rect id="Rectangle_1478" data-name="Rectangle 1478" class="cls-pi cls-5" width="58.333" height="45.5" rx="2" transform="translate(135.833 164.5)"/>
        <path id="Rectangle_1479" data-name="Rectangle 1479" class="cls-pi cls-6" d="M2,0H56.333a2,2,0,0,1,2,2V9.333a0,0,0,0,1,0,0H0a0,0,0,0,1,0,0V2A2,2,0,0,1,2,0Z" transform="translate(135.833 87.5)"/>
        <path id="Rectangle_1480" data-name="Rectangle 1480" class="cls-pi cls-6" d="M2,0H56.333a2,2,0,0,1,2,2V9.333a0,0,0,0,1,0,0H0a0,0,0,0,1,0,0V2A2,2,0,0,1,2,0Z" transform="translate(135.833 126)"/>
        <path id="Rectangle_1481" data-name="Rectangle 1481" class="cls-pi cls-6" d="M2,0H56.333a2,2,0,0,1,2,2V9.333a0,0,0,0,1,0,0H0a0,0,0,0,1,0,0V2A2,2,0,0,1,2,0Z" transform="translate(135.833 164.5)"/>
        <rect id="Rectangle_1482" data-name="Rectangle 1482" class="cls-pi cls-5" width="22.167" height="2.333" transform="translate(139.333 91)"/>
        <rect id="Rectangle_1483" data-name="Rectangle 1483" class="cls-pi cls-5" width="22.167" height="2.333" transform="translate(139.333 129.5)"/>
        <rect id="Rectangle_1484" data-name="Rectangle 1484" class="cls-pi cls-5" width="22.167" height="2.333" transform="translate(139.333 168)"/>
        <rect id="Rectangle_1485" data-name="Rectangle 1485" class="cls-pi cls-7" width="22.167" height="2.333" transform="translate(139.333 101.5)"/>
        <g id="Group_242" data-name="Group 242" transform="translate(140.5 52.5)">
          <rect id="Rectangle_1486" data-name="Rectangle 1486" class="cls-pi cls-8" width="22.167" height="2.333" transform="translate(0)"/>
          <rect id="Rectangle_1487" data-name="Rectangle 1487" class="cls-pi cls-8" width="22.167" height="2.333" transform="translate(25.667)"/>
        </g>
        <rect id="Rectangle_1488" data-name="Rectangle 1488" class="cls-pi cls-7" width="22.167" height="2.333" transform="translate(139.333 140)"/>
        <rect id="Rectangle_1489" data-name="Rectangle 1489" class="cls-pi cls-7" width="51.333" height="2.333" transform="translate(139.333 178.5)"/>
        <rect id="Rectangle_1490" data-name="Rectangle 1490" class="cls-pi cls-7" width="32.667" height="2.333" transform="translate(139.333 184.333)"/>
        <rect id="Rectangle_1491" data-name="Rectangle 1491" class="cls-pi cls-7" width="39.667" height="2.333" transform="translate(139.333 190.167)"/>
        <rect id="Rectangle_1492" data-name="Rectangle 1492" class="cls-pi cls-7" width="28" height="2.333" transform="translate(139.333 196)"/>
        <rect id="Rectangle_1493" data-name="Rectangle 1493" class="cls-pi cls-7" width="30.333" height="2.333" transform="translate(139.333 201.833)"/>
        <rect id="Rectangle_1494" data-name="Rectangle 1494" class="cls-pi cls-7" width="23.333" height="2.333" transform="translate(167.333 140)"/>
        <rect id="Rectangle_1495" data-name="Rectangle 1495" class="cls-pi cls-7" width="9.333" height="9.333" transform="translate(139.333 147)"/>
        <rect id="Rectangle_1496" data-name="Rectangle 1496" class="cls-pi cls-7" width="9.333" height="9.333" transform="translate(167.333 147)"/>
        <rect id="Rectangle_1497" data-name="Rectangle 1497" class="cls-pi cls-7" width="9.333" height="9.333" transform="translate(153.333 147)"/>
        <rect id="Rectangle_1498" data-name="Rectangle 1498" class="cls-pi cls-7" width="9.333" height="9.333" transform="translate(181.333 147)"/>
        <rect id="Rectangle_1499" data-name="Rectangle 1499" class="cls-pi cls-7" width="33.833" height="2.333" transform="translate(139.333 107.333)"/>
        <rect id="Rectangle_1500" data-name="Rectangle 1500" class="cls-pi cls-7" width="28" height="2.333" transform="translate(139.333 113.167)"/>
        <rect id="Rectangle_1501" data-name="Rectangle 1501" class="cls-pi cls-5" width="70" height="9.333" transform="translate(130 49)"/>
        <g id="Group_243" data-name="Group 243" transform="translate(153.333 52.5)">
          <rect id="Rectangle_1502" data-name="Rectangle 1502" class="cls-pi cls-8" width="23.333" height="2.333" transform="translate(0)"/>
        </g>
      </g>
      <text id="FULL" class="cls-pi cls-9" transform="translate(120 189)"><tspan x="-16.393" y="0">FULL</tspan></text>
    </g>
    <g id="Group_249" data-name="Group 249" transform="translate(3562 -554)">
      <g id="Group_248" data-name="Group 248" transform="translate(-5 24)">
        <rect id="Rectangle_1503" data-name="Rectangle 1503" class="cls-pi cls-3" width="70" height="274.167" transform="translate(215 49)"/>
        <rect id="Rectangle_1504" data-name="Rectangle 1504" class="cls-pi cls-5" width="70" height="9.333" transform="translate(215 49)"/>
        <rect id="Rectangle_1505" data-name="Rectangle 1505" class="cls-pi cls-10" width="23.333" height="70" transform="translate(215 81.667) rotate(-90)"/>
        <g id="Group_246" data-name="Group 246" transform="translate(229 63)">
          <circle id="Ellipse_128" data-name="Ellipse 128" class="cls-pi cls-5" cx="7" cy="7" r="7" transform="translate(0)"/>
          <rect id="Rectangle_1506" data-name="Rectangle 1506" class="cls-pi cls-5" width="22.167" height="2.333" transform="translate(18.667 3.5)"/>
          <rect id="Rectangle_1507" data-name="Rectangle 1507" class="cls-pi cls-5" width="14" height="2.333" transform="translate(18.667 9.333)"/>
        </g>
        <rect id="Rectangle_1508" data-name="Rectangle 1508" class="cls-pi cls-5" width="58.333" height="33.833" rx="2" transform="translate(220.833 87.5)"/>
        <rect id="Rectangle_1509" data-name="Rectangle 1509" class="cls-pi cls-5" width="58.333" height="63" rx="2" transform="translate(220.833 253.167)"/>
        <rect id="Rectangle_1510" data-name="Rectangle 1510" class="cls-pi cls-5" width="58.333" height="33.833" rx="2" transform="translate(220.833 126)"/>
        <rect id="Rectangle_1511" data-name="Rectangle 1511" class="cls-pi cls-5" width="58.333" height="33.833" rx="2" transform="translate(220.833 214.667)"/>
        <path id="Rectangle_1512" data-name="Rectangle 1512" class="cls-pi cls-10" d="M0,0H7.333a2,2,0,0,1,2,2V56.333a2,2,0,0,1-2,2H0a0,0,0,0,1,0,0V0A0,0,0,0,1,0,0Z" transform="translate(220.833 96.833) rotate(-90)"/>
        <path id="Rectangle_1513" data-name="Rectangle 1513" class="cls-pi cls-10" d="M0,0H7.333a2,2,0,0,1,2,2V56.333a2,2,0,0,1-2,2H0a0,0,0,0,1,0,0V0A0,0,0,0,1,0,0Z" transform="translate(220.833 262.5) rotate(-90)"/>
        <path id="Rectangle_1514" data-name="Rectangle 1514" class="cls-pi cls-10" d="M0,0H7.333a2,2,0,0,1,2,2V56.333a2,2,0,0,1-2,2H0a0,0,0,0,1,0,0V0A0,0,0,0,1,0,0Z" transform="translate(220.833 135.333) rotate(-90)"/>
        <path id="Rectangle_1515" data-name="Rectangle 1515" class="cls-pi cls-10" d="M0,0H7.333a2,2,0,0,1,2,2V56.333a2,2,0,0,1-2,2H0a0,0,0,0,1,0,0V0A0,0,0,0,1,0,0Z" transform="translate(220.833 224) rotate(-90)"/>
        <rect id="Rectangle_1516" data-name="Rectangle 1516" class="cls-pi cls-5" width="58.333" height="45.5" rx="2" transform="translate(220.833 164.5)"/>
        <path id="Rectangle_1517" data-name="Rectangle 1517" class="cls-pi cls-10" d="M0,0H7.333a2,2,0,0,1,2,2V56.333a2,2,0,0,1-2,2H0a0,0,0,0,1,0,0V0A0,0,0,0,1,0,0Z" transform="translate(220.833 173.833) rotate(-90)"/>
        <rect id="Rectangle_1518" data-name="Rectangle 1518" class="cls-pi cls-5" width="29.167" height="2.333" transform="translate(224.333 91)"/>
        <rect id="Rectangle_1519" data-name="Rectangle 1519" class="cls-pi cls-5" width="26.833" height="2.333" transform="translate(224.333 256.667)"/>
        <rect id="Rectangle_1520" data-name="Rectangle 1520" class="cls-pi cls-5" width="22.167" height="2.333" transform="translate(224.333 129.5)"/>
        <rect id="Rectangle_1521" data-name="Rectangle 1521" class="cls-pi cls-5" width="17.5" height="2.333" transform="translate(224.333 218.167)"/>
        <rect id="Rectangle_1522" data-name="Rectangle 1522" class="cls-pi cls-5" width="24.5" height="2.333" transform="translate(224.333 168)"/>
        <rect id="Rectangle_1523" data-name="Rectangle 1523" class="cls-pi cls-7" width="22.167" height="2.333" transform="translate(224.333 101.5)"/>
        <rect id="Rectangle_1524" data-name="Rectangle 1524" class="cls-pi cls-7" width="22.167" height="2.333" transform="translate(224.333 267.167)"/>
        <rect id="Rectangle_1525" data-name="Rectangle 1525" class="cls-pi cls-7" width="22.167" height="2.333" transform="translate(224.333 289.333)"/>
        <g id="Group_247" data-name="Group 247" transform="translate(238.333 52.5)">
          <rect id="Rectangle_1526" data-name="Rectangle 1526" class="cls-pi cls-8" width="23.333" height="2.333" transform="translate(0)"/>
        </g>
        <rect id="Rectangle_1527" data-name="Rectangle 1527" class="cls-pi cls-7" width="22.167" height="2.333" transform="translate(224.333 140)"/>
        <rect id="Rectangle_1528" data-name="Rectangle 1528" class="cls-pi cls-7" width="22.167" height="2.333" transform="translate(224.333 228.667)"/>
        <rect id="Rectangle_1529" data-name="Rectangle 1529" class="cls-pi cls-7" width="51.333" height="2.333" transform="translate(224.333 178.5)"/>
        <rect id="Rectangle_1530" data-name="Rectangle 1530" class="cls-pi cls-7" width="32.667" height="2.333" transform="translate(224.333 184.333)"/>
        <rect id="Rectangle_1531" data-name="Rectangle 1531" class="cls-pi cls-7" width="39.667" height="2.333" transform="translate(224.333 190.167)"/>
        <rect id="Rectangle_1532" data-name="Rectangle 1532" class="cls-pi cls-7" width="28" height="2.333" transform="translate(224.333 196)"/>
        <rect id="Rectangle_1533" data-name="Rectangle 1533" class="cls-pi cls-7" width="30.333" height="2.333" transform="translate(224.333 201.833)"/>
        <rect id="Rectangle_1534" data-name="Rectangle 1534" class="cls-pi cls-7" width="23.333" height="2.333" transform="translate(252.333 140)"/>
        <rect id="Rectangle_1535" data-name="Rectangle 1535" class="cls-pi cls-7" width="23.333" height="2.333" transform="translate(252.333 228.667)"/>
        <rect id="Rectangle_1536" data-name="Rectangle 1536" class="cls-pi cls-7" width="9.333" height="9.333" transform="translate(224.333 147)"/>
        <rect id="Rectangle_1537" data-name="Rectangle 1537" class="cls-pi cls-7" width="9.333" height="9.333" transform="translate(224.333 235.667)"/>
        <rect id="Rectangle_1538" data-name="Rectangle 1538" class="cls-pi cls-7" width="9.333" height="9.333" transform="translate(252.333 147)"/>
        <rect id="Rectangle_1539" data-name="Rectangle 1539" class="cls-pi cls-7" width="9.333" height="9.333" transform="translate(252.333 235.667)"/>
        <rect id="Rectangle_1540" data-name="Rectangle 1540" class="cls-pi cls-7" width="9.333" height="9.333" transform="translate(238.333 147)"/>
        <rect id="Rectangle_1541" data-name="Rectangle 1541" class="cls-pi cls-7" width="9.333" height="9.333" transform="translate(238.333 235.667)"/>
        <rect id="Rectangle_1542" data-name="Rectangle 1542" class="cls-pi cls-7" width="9.333" height="9.333" transform="translate(266.333 147)"/>
        <rect id="Rectangle_1543" data-name="Rectangle 1543" class="cls-pi cls-7" width="9.333" height="9.333" transform="translate(266.333 235.667)"/>
        <rect id="Rectangle_1544" data-name="Rectangle 1544" class="cls-pi cls-7" width="33.833" height="2.333" transform="translate(224.333 107.333)"/>
        <rect id="Rectangle_1545" data-name="Rectangle 1545" class="cls-pi cls-7" width="49" height="2.333" transform="translate(224.333 273)"/>
        <rect id="Rectangle_1546" data-name="Rectangle 1546" class="cls-pi cls-7" width="33.833" height="2.333" transform="translate(224.333 295.167)"/>
        <rect id="Rectangle_1547" data-name="Rectangle 1547" class="cls-pi cls-7" width="28" height="2.333" transform="translate(224.333 113.167)"/>
        <rect id="Rectangle_1548" data-name="Rectangle 1548" class="cls-pi cls-7" width="28" height="2.333" transform="translate(224.333 278.833)"/>
        <rect id="Rectangle_1549" data-name="Rectangle 1549" class="cls-pi cls-7" width="28" height="2.333" transform="translate(224.333 301)"/>
        <rect id="Rectangle_1550" data-name="Rectangle 1550" class="cls-pi cls-7" width="44.333" height="2.333" transform="translate(224.333 306.833)"/>
        <path id="path-22" class="cls-pi cls-5" d="M-1381.1-654.46l-1.9.845V-659h3.8v5.385Z" transform="translate(1655.896 914)"/>
        <path id="path-22-2" data-name="path-22" class="cls-pi cls-5" d="M-1381.1-654.46l-1.9.845V-659h3.8v5.385Z" transform="translate(1655.896 876)"/>
        <path id="path-22-3" data-name="path-22" class="cls-pi cls-5" d="M-1381.1-654.46l-1.9.845V-659h3.8v5.385Z" transform="translate(1655.896 826)"/>
        <path id="path-22-4" data-name="path-22" class="cls-pi cls-5" d="M-1381.1-654.46l-1.9.845V-659h3.8v5.385Z" transform="translate(1655.896 787)"/>
        <path id="path-22-5" data-name="path-22" class="cls-pi cls-5" d="M-1381.1-654.46l-1.9.845V-659h3.8v5.385Z" transform="translate(1655.896 749)"/>
      </g>
      <text id="PREMIUM" class="cls-pi cls-9" transform="translate(245 367)"><tspan x="-31.777" y="0">PREMIUM</tspan></text>
      <path id="path-22-6" data-name="path-22" class="cls-pi cls-5" d="M-1375.5-641.1l-7.5,3.333V-659h15v21.23Zm-3.12-3.883h2.527v-2.873h1.63v0a3.22,3.22,0,0,0,3.467-3.377,3.231,3.231,0,0,0-3.44-3.42h-4.184Zm2.52-4.743v-3h1.04a1.359,1.359,0,0,1,1.483,1.507c0,1.046-.64,1.494-1.667,1.494Z" transform="translate(1620.001 1036.253)"/>
    </g>
    <g id="Group_252" data-name="Group 252" transform="translate(3557 -530)">
      <rect id="Rectangle_1551" data-name="Rectangle 1551" class="cls-pi cls-3" width="70" height="274.167" transform="translate(215 49)"/>
      <rect id="Rectangle_1552" data-name="Rectangle 1552" class="cls-pi cls-5" width="70" height="9.333" transform="translate(215 49)"/>
      <rect id="Rectangle_1553" data-name="Rectangle 1553" class="cls-pi cls-10" width="23.333" height="70" transform="translate(215 81.667) rotate(-90)"/>
      <g id="Group_250" data-name="Group 250" transform="translate(229 63)">
        <circle id="Ellipse_129" data-name="Ellipse 129" class="cls-pi cls-5" cx="7" cy="7" r="7" transform="translate(0)"/>
        <rect id="Rectangle_1554" data-name="Rectangle 1554" class="cls-pi cls-5" width="22.167" height="2.333" transform="translate(18.667 3.5)"/>
        <rect id="Rectangle_1555" data-name="Rectangle 1555" class="cls-pi cls-5" width="14" height="2.333" transform="translate(18.667 9.333)"/>
      </g>
      <rect id="Rectangle_1556" data-name="Rectangle 1556" class="cls-pi cls-5" width="58.333" height="33.833" rx="2" transform="translate(220.833 87.5)"/>
      <rect id="Rectangle_1557" data-name="Rectangle 1557" class="cls-pi cls-5" width="58.333" height="63" rx="2" transform="translate(220.833 253.167)"/>
      <rect id="Rectangle_1558" data-name="Rectangle 1558" class="cls-pi cls-5" width="58.333" height="33.833" rx="2" transform="translate(220.833 126)"/>
      <rect id="Rectangle_1559" data-name="Rectangle 1559" class="cls-pi cls-5" width="58.333" height="33.833" rx="2" transform="translate(220.833 214.667)"/>
      <path id="Rectangle_1560" data-name="Rectangle 1560" class="cls-pi cls-10" d="M0,0H7.333a2,2,0,0,1,2,2V56.333a2,2,0,0,1-2,2H0a0,0,0,0,1,0,0V0A0,0,0,0,1,0,0Z" transform="translate(220.833 96.833) rotate(-90)"/>
      <path id="Rectangle_1561" data-name="Rectangle 1561" class="cls-pi cls-10" d="M0,0H7.333a2,2,0,0,1,2,2V56.333a2,2,0,0,1-2,2H0a0,0,0,0,1,0,0V0A0,0,0,0,1,0,0Z" transform="translate(220.833 262.5) rotate(-90)"/>
      <path id="Rectangle_1562" data-name="Rectangle 1562" class="cls-pi cls-10" d="M0,0H7.333a2,2,0,0,1,2,2V56.333a2,2,0,0,1-2,2H0a0,0,0,0,1,0,0V0A0,0,0,0,1,0,0Z" transform="translate(220.833 135.333) rotate(-90)"/>
      <path id="Rectangle_1563" data-name="Rectangle 1563" class="cls-pi cls-10" d="M0,0H7.333a2,2,0,0,1,2,2V56.333a2,2,0,0,1-2,2H0a0,0,0,0,1,0,0V0A0,0,0,0,1,0,0Z" transform="translate(220.833 224) rotate(-90)"/>
      <rect id="Rectangle_1564" data-name="Rectangle 1564" class="cls-pi cls-5" width="58.333" height="45.5" rx="2" transform="translate(220.833 164.5)"/>
      <path id="Rectangle_1565" data-name="Rectangle 1565" class="cls-pi cls-10" d="M0,0H7.333a2,2,0,0,1,2,2V56.333a2,2,0,0,1-2,2H0a0,0,0,0,1,0,0V0A0,0,0,0,1,0,0Z" transform="translate(220.833 173.833) rotate(-90)"/>
      <rect id="Rectangle_1566" data-name="Rectangle 1566" class="cls-pi cls-5" width="29.167" height="2.333" transform="translate(224.333 91)"/>
      <rect id="Rectangle_1567" data-name="Rectangle 1567" class="cls-pi cls-5" width="26.833" height="2.333" transform="translate(224.333 256.667)"/>
      <rect id="Rectangle_1568" data-name="Rectangle 1568" class="cls-pi cls-5" width="22.167" height="2.333" transform="translate(224.333 129.5)"/>
      <rect id="Rectangle_1569" data-name="Rectangle 1569" class="cls-pi cls-5" width="17.5" height="2.333" transform="translate(224.333 218.167)"/>
      <rect id="Rectangle_1570" data-name="Rectangle 1570" class="cls-pi cls-5" width="24.5" height="2.333" transform="translate(224.333 168)"/>
      <rect id="Rectangle_1571" data-name="Rectangle 1571" class="cls-pi cls-7" width="22.167" height="2.333" transform="translate(224.333 101.5)"/>
      <rect id="Rectangle_1572" data-name="Rectangle 1572" class="cls-pi cls-7" width="22.167" height="2.333" transform="translate(224.333 267.167)"/>
      <rect id="Rectangle_1573" data-name="Rectangle 1573" class="cls-pi cls-7" width="22.167" height="2.333" transform="translate(224.333 289.333)"/>
      <g id="Group_251" data-name="Group 251" transform="translate(238.333 52.5)">
        <rect id="Rectangle_1574" data-name="Rectangle 1574" class="cls-pi cls-8" width="23.333" height="2.333" transform="translate(0)"/>
      </g>
      <rect id="Rectangle_1575" data-name="Rectangle 1575" class="cls-pi cls-7" width="22.167" height="2.333" transform="translate(224.333 140)"/>
      <rect id="Rectangle_1576" data-name="Rectangle 1576" class="cls-pi cls-7" width="22.167" height="2.333" transform="translate(224.333 228.667)"/>
      <rect id="Rectangle_1577" data-name="Rectangle 1577" class="cls-pi cls-7" width="51.333" height="2.333" transform="translate(224.333 178.5)"/>
      <rect id="Rectangle_1578" data-name="Rectangle 1578" class="cls-pi cls-7" width="32.667" height="2.333" transform="translate(224.333 184.333)"/>
      <rect id="Rectangle_1579" data-name="Rectangle 1579" class="cls-pi cls-7" width="39.667" height="2.333" transform="translate(224.333 190.167)"/>
      <rect id="Rectangle_1580" data-name="Rectangle 1580" class="cls-pi cls-7" width="28" height="2.333" transform="translate(224.333 196)"/>
      <rect id="Rectangle_1581" data-name="Rectangle 1581" class="cls-pi cls-7" width="30.333" height="2.333" transform="translate(224.333 201.833)"/>
      <rect id="Rectangle_1582" data-name="Rectangle 1582" class="cls-pi cls-7" width="23.333" height="2.333" transform="translate(252.333 140)"/>
      <rect id="Rectangle_1583" data-name="Rectangle 1583" class="cls-pi cls-7" width="23.333" height="2.333" transform="translate(252.333 228.667)"/>
      <rect id="Rectangle_1584" data-name="Rectangle 1584" class="cls-pi cls-7" width="9.333" height="9.333" transform="translate(224.333 147)"/>
      <rect id="Rectangle_1585" data-name="Rectangle 1585" class="cls-pi cls-7" width="9.333" height="9.333" transform="translate(224.333 235.667)"/>
      <rect id="Rectangle_1586" data-name="Rectangle 1586" class="cls-pi cls-7" width="9.333" height="9.333" transform="translate(252.333 147)"/>
      <rect id="Rectangle_1587" data-name="Rectangle 1587" class="cls-pi cls-7" width="9.333" height="9.333" transform="translate(252.333 235.667)"/>
      <rect id="Rectangle_1588" data-name="Rectangle 1588" class="cls-pi cls-7" width="9.333" height="9.333" transform="translate(238.333 147)"/>
      <rect id="Rectangle_1589" data-name="Rectangle 1589" class="cls-pi cls-7" width="9.333" height="9.333" transform="translate(238.333 235.667)"/>
      <rect id="Rectangle_1590" data-name="Rectangle 1590" class="cls-pi cls-7" width="9.333" height="9.333" transform="translate(266.333 147)"/>
      <rect id="Rectangle_1591" data-name="Rectangle 1591" class="cls-pi cls-7" width="9.333" height="9.333" transform="translate(266.333 235.667)"/>
      <rect id="Rectangle_1592" data-name="Rectangle 1592" class="cls-pi cls-7" width="33.833" height="2.333" transform="translate(224.333 107.333)"/>
      <rect id="Rectangle_1593" data-name="Rectangle 1593" class="cls-pi cls-7" width="49" height="2.333" transform="translate(224.333 273)"/>
      <rect id="Rectangle_1594" data-name="Rectangle 1594" class="cls-pi cls-7" width="33.833" height="2.333" transform="translate(224.333 295.167)"/>
      <rect id="Rectangle_1595" data-name="Rectangle 1595" class="cls-pi cls-7" width="28" height="2.333" transform="translate(224.333 113.167)"/>
      <rect id="Rectangle_1596" data-name="Rectangle 1596" class="cls-pi cls-7" width="28" height="2.333" transform="translate(224.333 278.833)"/>
      <rect id="Rectangle_1597" data-name="Rectangle 1597" class="cls-pi cls-7" width="28" height="2.333" transform="translate(224.333 301)"/>
      <rect id="Rectangle_1598" data-name="Rectangle 1598" class="cls-pi cls-7" width="44.333" height="2.333" transform="translate(224.333 306.833)"/>
      <path id="path-22-7" data-name="path-22" class="cls-pi cls-5" d="M-1381.1-654.46l-1.9.845V-659h3.8v5.385Z" transform="translate(1655.896 914)"/>
      <path id="path-22-8" data-name="path-22" class="cls-pi cls-5" d="M-1381.1-654.46l-1.9.845V-659h3.8v5.385Z" transform="translate(1655.896 876)"/>
      <path id="path-22-9" data-name="path-22" class="cls-pi cls-5" d="M-1381.1-654.46l-1.9.845V-659h3.8v5.385Z" transform="translate(1655.896 826)"/>
      <path id="path-22-10" data-name="path-22" class="cls-pi cls-5" d="M-1381.1-654.46l-1.9.845V-659h3.8v5.385Z" transform="translate(1655.896 787)"/>
      <path id="path-22-11" data-name="path-22" class="cls-pi cls-5" d="M-1381.1-654.46l-1.9.845V-659h3.8v5.385Z" transform="translate(1655.896 749)"/>
    </g>
    <g id="Group_254" data-name="Group 254" transform="translate(3562 -554)">
      <g id="Group_253" data-name="Group 253">
        <g class="cls-pi cls-13" transform="matrix(1, 0, 0, 1, -3562, 554)">
          <rect id="Rectangle_1599-2" data-name="Rectangle 1599" class="cls-pi cls-10" width="151.333" height="174" rx="3" transform="translate(3588 -137.33) rotate(-90)"/>
        </g>
        <path id="Path_109" data-name="Path 109" class="cls-pi cls-11" d="M0,0H16.526V16.526Z" transform="translate(198.214 350.314) rotate(45)"/>
      </g>
      <text id="Upgrading_will_potentially_unconver_bankruptcies_liens_mortgages_special_contact_info_like_email_addresses_and_more_" data-name="Upgrading will potentially unconver
bankruptcies, liens, mortgages, special contact info like email addresses, and more!" class="cls-pi cls-12" transform="translate(45 282)"><tspan x="0" y="14">Upgrading will </tspan><tspan x="0" y="34">potentially unconver</tspan><tspan x="0" y="54">bankruptcies, liens, </tspan><tspan x="0" y="74">mortgages, special </tspan><tspan x="0" y="94">contact info like email </tspan><tspan x="0" y="114">addresses, and more!</tspan></text>
    </g>
  </g>
</svg>
