<svg xmlns="http://www.w3.org/2000/svg" xmlns:xlink="http://www.w3.org/1999/xlink" viewBox="1699 -3172 320 567">
  <defs>
    <style>
      .cls-1 {
        clip-path: url(#clip-tf-reports);
      }

      .cls-2 {
        fill: #ededed;
      }

      .cls-16, .cls-3 {
        fill: #fff;
      }

      .cls-14, .cls-4 {
        fill: #209dd2;
      }

      .cls-16, .cls-4, .cls-5, .cls-7, .cls-9 {
        stroke: rgba(0,0,0,0);
        stroke-width: 1px;
      }

      .cls-5 {
        fill: #3e3e3e;
      }

      .cls-12, .cls-6, .cls-8 {
        fill: none;
      }

      .cls-6 {
        stroke: #209dd2;
      }

      .cls-6, .cls-8 {
        stroke-width: 2px;
      }

      .cls-13, .cls-7 {
        fill: #0f9cd4;
      }

      .cls-8 {
        stroke: #0f9cd4;
      }

      .cls-10, .cls-9 {
        fill: #fab63d;
      }

      .cls-11 {
        fill: url(#linear-gradient);
      }

      .cls-12 {
        stroke: rgba(149,152,154,0.01);
        stroke-width: 0px;
      }

      .cls-15 {
        fill: #57bf93;
      }

      .cls-17 {
        filter: url(#rectangle-2-2);
      }

      .cls-18 {
        filter: url(#rectangle-2);
      }

      .cls-19 {
        filter: url(#rectangle-9);
      }
    </style>
    <filter id="rectangle-9" x="1690" y="-3178" width="338" height="73" filterUnits="userSpaceOnUse">
      <feOffset dy="3" input="SourceAlpha"/>
      <feGaussianBlur stdDeviation="3" result="blur"/>
      <feFlood flood-opacity="0.161"/>
      <feComposite operator="in" in2="blur"/>
      <feComposite in="SourceGraphic"/>
    </filter>
    <linearGradient id="linear-gradient" x1="1" y1="0.527" x2="0" gradientUnits="objectBoundingBox">
      <stop offset="0" stop-color="#ab8206"/>
      <stop offset="1" stop-color="#fab63d"/>
    </linearGradient>
    <filter id="rectangle-2" x="1690" y="-2666" width="338" height="68" filterUnits="userSpaceOnUse">
      <feOffset dy="-2" input="SourceAlpha"/>
      <feGaussianBlur stdDeviation="3" result="blur-2"/>
      <feFlood flood-opacity="0.102"/>
      <feComposite operator="in" in2="blur-2"/>
      <feComposite in="SourceGraphic"/>
    </filter>
    <filter id="rectangle-2-2" x="1690" y="-2661" width="98" height="68" filterUnits="userSpaceOnUse">
      <feOffset dy="3" input="SourceAlpha"/>
      <feGaussianBlur stdDeviation="3" result="blur-3"/>
      <feFlood flood-opacity="0.161"/>
      <feComposite operator="in" in2="blur-3"/>
      <feComposite in="SourceGraphic"/>
    </filter>
    <clipPath id="clip-tf-reports">
      <rect x="1699" y="-3172" width="320" height="567"/>
    </clipPath>
  </defs>
  <g id="tf-reports" class="cls-1">
    <rect class="cls-3" x="1699" y="-3172" width="320" height="567"/>
    <path id="rectangle-6" class="cls-2" d="M0,0H320V568H0Z" transform="translate(1699 -3172)"/>
    <path id="rectangle-5" class="cls-3" d="M3,0H297a3,3,0,0,1,3,3V79a3,3,0,0,1-3,3H3a3,3,0,0,1-3-3V3A3,3,0,0,1,3,0Z" transform="translate(1709 -3019)"/>
    <path id="_7605867022" data-name="7605867022" class="cls-4" d="M.3-4.15C.3-1.455,2.188.293,5.068.293c3.018,0,4.814-1.709,4.814-4.707v-9.678H6.934v9.658c0,1.416-.664,2.178-1.895,2.178A1.794,1.794,0,0,1,3.164-4.15ZM17.031.186c3.262,0,5.3-2.08,5.3-5.566,0-3.447-2.061-5.557-5.3-5.557s-5.3,2.119-5.3,5.557C11.729-1.9,13.77.186,17.031.186Zm0-2.2c-1.5,0-2.412-1.23-2.412-3.369,0-2.109.908-3.369,2.412-3.369s2.4,1.25,2.4,3.369C19.434-3.242,18.535-2.012,17.031-2.012ZM23.936,0h2.852V-6.1a2.184,2.184,0,0,1,2.236-2.432c1.357,0,2.061.85,2.061,2.256V0h2.852V-6.875c0-2.49-1.377-4.033-3.76-4.033A3.405,3.405,0,0,0,26.8-8.828h-.059v-5.937h-2.8ZM35.82,0h2.852V-6.133a2.154,2.154,0,0,1,2.188-2.4c1.348,0,2.012.811,2.012,2.236V0h2.852V-6.895c0-2.51-1.348-4.014-3.73-4.014a3.379,3.379,0,0,0-3.359,2.08h-.059v-1.924H35.82ZM52.109-14.092V0h5.43c4.229,0,6.719-2.627,6.719-7.1s-2.49-6.992-6.719-6.992Zm2.949,2.432h2.129c2.6,0,4.063,1.621,4.063,4.57,0,3.047-1.426,4.648-4.062,4.648H55.059ZM70.85.186c3.262,0,5.3-2.08,5.3-5.566,0-3.447-2.061-5.557-5.3-5.557s-5.3,2.119-5.3,5.557C65.547-1.9,67.588.186,70.85.186Zm0-2.2c-1.5,0-2.412-1.23-2.412-3.369,0-2.109.908-3.369,2.412-3.369s2.4,1.25,2.4,3.369C73.252-3.242,72.354-2.012,70.85-2.012Zm11.621-6.8a2.226,2.226,0,0,1,2.285,2.324H80.117A2.341,2.341,0,0,1,82.471-8.809Zm2.324,5.527a2.163,2.163,0,0,1-2.2,1.338,2.418,2.418,0,0,1-2.51-2.6v-.176H87.51V-5.6c0-3.271-1.973-5.342-5.068-5.342-3.154,0-5.166,2.188-5.166,5.605s2,5.518,5.273,5.518c2.617,0,4.561-1.387,4.873-3.467Z" transform="translate(1730 -2982)"/>
    <path id="_7605867022-2" data-name="7605867022" class="cls-4" d="M-36.958-5.854h1.591c1.811,0,2.936.923,2.936,2.417,0,1.327-1.2,2.276-2.883,2.276-1.705,0-2.786-.9-2.927-2.2h-1.521c.114,2.1,1.811,3.568,4.465,3.568,2.487,0,4.474-1.521,4.474-3.7A3.028,3.028,0,0,0-33.97-6.574v-.035a2.959,2.959,0,0,0,2.6-3.015c0-1.907-1.714-3.27-3.981-3.27-2.382,0-3.981,1.38-4.157,3.533h1.521a2.361,2.361,0,0,1,2.566-2.162c1.608,0,2.461.853,2.461,2.109a2.274,2.274,0,0,1-2.479,2.224h-1.521ZM-22.86,0h1.529V-2.637h1.793V-4.025h-1.793v-8.657h-2.338a91.617,91.617,0,0,0-5.563,8.613v1.433h6.372Zm-4.808-4.061c1-1.758,2.382-3.876,4.781-7.3h.026v7.339h-4.808Zm14.792,7.5c1.679,0,2.435-.659,3.243-2.856L-5.924-9.475H-7.532l-2.654,7.919h-.035l-2.654-7.919H-14.5L-11,.009l-.185.563c-.387,1.143-.861,1.564-1.74,1.564a3.514,3.514,0,0,1-.624-.053V3.375A4.2,4.2,0,0,0-12.876,3.437ZM-4.667,0h1.529V-5.862A2.022,2.022,0,0,1-1.1-8.095a3.188,3.188,0,0,1,.835.088v-1.5A3.455,3.455,0,0,0-.9-9.562,2.286,2.286,0,0,0-3.19-7.937h-.035V-9.475H-4.667Z" transform="translate(1970 -2982)"/>
    <path id="Loe" class="cls-5" d="M7.938,13.734H2.5V3.727H1.094V15H7.938Zm4.609,1.344c2.367,0,3.883-1.68,3.883-4.289S14.914,6.5,12.547,6.5,8.664,8.172,8.664,10.789,10.18,15.078,12.547,15.078Zm0-1.211c-1.562,0-2.5-1.148-2.5-3.078s.93-3.078,2.5-3.078,2.5,1.141,2.5,3.078S14.117,13.867,12.547,13.867ZM17.719,8.93c0,1.125.719,1.867,2.2,2.25l1.477.383c.961.25,1.313.563,1.313,1.156,0,.758-.719,1.234-1.867,1.234s-1.844-.461-1.984-1.32H17.484c.133,1.461,1.445,2.445,3.258,2.445,1.945,0,3.328-1.016,3.328-2.453,0-1.227-.609-1.82-2.312-2.25l-1.281-.32c-.969-.242-1.422-.625-1.422-1.2,0-.734.7-1.227,1.734-1.227s1.719.492,1.8,1.281h1.3c-.055-1.383-1.352-2.406-3.062-2.406C19.008,6.508,17.719,7.508,17.719,8.93ZM36.875,15h1.477L34.2,3.727H32.8L28.648,15h1.477l1.133-3.227h4.484Zm-3.4-9.562h.047l1.8,5.141H31.672ZM39.469,15h1.359V10.109a2.156,2.156,0,0,1,2.219-2.4c1.328,0,1.969.75,1.969,2.125V15h1.359V9.6a3.018,3.018,0,0,0-5.594-1.656H40.75V6.578H39.469Zm12.117-1.211c-1.469,0-2.43-1.2-2.43-3.031s.961-3.047,2.43-3.047,2.477,1.234,2.477,3.047S53.063,13.789,51.586,13.789Zm.047,4.383c2.313,0,3.789-1.336,3.789-3.344V6.578h-1.3V7.945H54.1A3.1,3.1,0,0,0,51.359,6.5c-2.164,0-3.594,1.688-3.594,4.258C47.766,13.3,49.2,15,51.328,15a3.023,3.023,0,0,0,2.7-1.445h.031v1.32A2.107,2.107,0,0,1,51.7,17a2.2,2.2,0,0,1-2.187-1.3H48.1A3.343,3.343,0,0,0,51.633,18.172ZM60.625,7.7a2.232,2.232,0,0,1,2.266,2.383H58.258A2.358,2.358,0,0,1,60.625,7.7Zm2.234,4.9a2.062,2.062,0,0,1-2.117,1.289,2.41,2.41,0,0,1-2.484-2.641v-.078H64.3v-.531C64.3,8.086,62.9,6.5,60.648,6.5c-2.3,0-3.8,1.711-3.8,4.32s1.492,4.258,3.859,4.258A3.316,3.316,0,0,0,64.2,12.594ZM65.813,15h1.359V3.234H65.813Zm6.641-7.3a2.232,2.232,0,0,1,2.266,2.383H70.086A2.358,2.358,0,0,1,72.453,7.7Zm2.234,4.9a2.062,2.062,0,0,1-2.117,1.289,2.41,2.41,0,0,1-2.484-2.641v-.078h6.047v-.531c0-2.547-1.406-4.133-3.656-4.133-2.3,0-3.8,1.711-3.8,4.32s1.492,4.258,3.859,4.258a3.316,3.316,0,0,0,3.492-2.484ZM77.422,8.93c0,1.125.719,1.867,2.2,2.25l1.477.383c.961.25,1.313.563,1.313,1.156,0,.758-.719,1.234-1.867,1.234s-1.844-.461-1.984-1.32H77.188c.133,1.461,1.445,2.445,3.258,2.445,1.945,0,3.328-1.016,3.328-2.453,0-1.227-.609-1.82-2.312-2.25l-1.281-.32c-.969-.242-1.422-.625-1.422-1.2,0-.734.7-1.227,1.734-1.227s1.719.492,1.8,1.281h1.3c-.055-1.383-1.352-2.406-3.062-2.406C78.711,6.508,77.422,7.508,77.422,8.93Zm8.711,8.078L87.3,13.422H85.859l-.781,3.586Zm11.82-1.82c2.492,0,4.164-1.242,4.68-3.469h-1.422a3.11,3.11,0,0,1-3.25,2.172c-2.227,0-3.641-1.766-3.641-4.531,0-2.742,1.43-4.523,3.633-4.523a3.225,3.225,0,0,1,3.258,2.445h1.422a4.477,4.477,0,0,0-4.68-3.742c-3.086,0-5.078,2.281-5.078,5.82C92.875,12.93,94.844,15.188,97.953,15.188ZM111.617,15h1.477L108.938,3.727h-1.391L103.391,15h1.477L106,11.773h4.484Zm-3.4-9.562h.047l1.8,5.141h-3.656Z" transform="translate(1730 -2975)"/>
    <path id="path-5" class="cls-6" d="M1060.154,258.538l7.228-7.228-7.228-7.228" transform="translate(927.346 -3227.583)"/>
    <path id="_7605867022-3" data-name="7605867022" class="cls-5" d="M8.39,0V-7.75H7.267L4.592-1.284H4.549L1.875-7.75H.752V0h.9V-5.973h.038L4.163-.054h.816L7.45-5.973h.038V0ZM13.6-7.879c-2.2,0-3.572,1.547-3.572,4.007s1.375,4,3.572,4,3.572-1.542,3.572-4S15.8-7.879,13.6-7.879Zm0,.892c1.584,0,2.578,1.2,2.578,3.115S15.189-.763,13.6-.763s-2.578-1.2-2.578-3.11S12.02-6.988,13.6-6.988Zm4.844,4.855C18.54-.763,19.679.129,21.322.129c1.783,0,2.9-.886,2.9-2.3,0-1.112-.65-1.729-2.256-2.132l-.811-.215C20.1-4.8,19.673-5.146,19.673-5.731c0-.757.7-1.278,1.7-1.278a1.567,1.567,0,0,1,1.767,1.343h.967a2.438,2.438,0,0,0-2.7-2.213c-1.611,0-2.739.9-2.739,2.191,0,1.053.634,1.681,2.063,2.046l.994.258c1.042.269,1.5.671,1.5,1.327,0,.763-.763,1.316-1.81,1.316-1.106,0-1.9-.553-1.993-1.391ZM28.772,0V-6.88h2.5v-.87H25.307v.87h2.5V0Zm8-6.891h1.864a1.42,1.42,0,0,1,1.6,1.482,1.383,1.383,0,0,1-1.558,1.488H36.768Zm0,3.824h1.907L40.335,0h1.133L39.674-3.217a2.213,2.213,0,0,0,1.558-2.224,2.251,2.251,0,0,0-2.471-2.31H35.8V0h.967ZM47.687-.87H43.852V-3.534h3.636v-.859H43.852V-6.88h3.835v-.87h-4.8V0h4.8Zm4.9,1a3,3,0,0,0,3.217-2.385H54.83A2.138,2.138,0,0,1,52.6-.763c-1.531,0-2.5-1.214-2.5-3.115,0-1.885.983-3.11,2.5-3.11a2.217,2.217,0,0,1,2.24,1.681h.978a3.078,3.078,0,0,0-3.217-2.573c-2.122,0-3.491,1.568-3.491,4C49.1-1.423,50.453.129,52.591.129Zm9.6-1H58.353V-3.534H61.99v-.859H58.353V-6.88h3.835v-.87h-4.8V0h4.8ZM64.857,0V-6.064h.048L69.149,0h.94V-7.75h-.956v6.085h-.048L64.841-7.75H63.9V0ZM75.014,0V-6.88h2.5v-.87H71.549v.87h2.5V0Zm8.663-.87H79.939V-7.75h-.967V0h4.705ZM87.205,0V-3.335l2.75-4.415h-1.1L86.738-4.27h-.032L84.59-7.75h-1.1l2.75,4.415V0ZM97.549,0l2.857-7.75H99.391l-2.3,6.574h-.032l-2.3-6.574H93.736L96.593,0Zm5.15,0V-7.75h-.967V0Zm6.746-.87H105.61V-3.534h3.636v-.859H105.61V-6.88h3.835v-.87h-4.8V0h4.8Zm6.015-5.28h.054L117.3,0h.913l2.111-7.75h-1.01l-1.552,6.327h-.043L115.976-7.75H115l-1.746,6.327h-.043L111.658-7.75h-1.01L112.759,0h.913Zm11.1,5.28h-3.835V-3.534h3.636v-.859h-3.636V-6.88h3.835v-.87h-4.8V0h4.8Zm1.713-6.88V0h2.659c2.3,0,3.658-1.434,3.658-3.878s-1.359-3.873-3.658-3.873Zm.967.87h1.627c1.762,0,2.734,1.074,2.734,3.013,0,1.923-.978,3-2.734,3h-1.627ZM136.874.054a.6.6,0,0,0,.612-.612.6.6,0,0,0-.612-.612.6.6,0,0,0-.612.612A.605.605,0,0,0,136.874.054Zm0-3.953a.6.6,0,0,0,.612-.612.6.6,0,0,0-.612-.612.6.6,0,0,0-.612.612A.605.605,0,0,0,136.874-3.9Zm5.66-3.851V0h.967V-2.766h1.95a2.393,2.393,0,0,0,2.492-2.5,2.379,2.379,0,0,0-2.481-2.487Zm.967.859h1.708a1.536,1.536,0,0,1,1.74,1.627,1.544,1.544,0,0,1-1.74,1.638H143.5ZM154.291-.87h-3.835V-3.534h3.636v-.859h-3.636V-6.88h3.835v-.87h-4.8V0h4.8Zm2.68-6.021h1.864a1.42,1.42,0,0,1,1.6,1.482,1.383,1.383,0,0,1-1.558,1.488h-1.907Zm0,3.824h1.907L160.537,0h1.133l-1.794-3.217a2.213,2.213,0,0,0,1.558-2.224,2.251,2.251,0,0,0-2.471-2.31H156V0h.967Zm5.747.935c.091,1.37,1.23,2.261,2.874,2.261,1.783,0,2.9-.886,2.9-2.3,0-1.112-.65-1.729-2.256-2.132l-.811-.215c-1.053-.274-1.482-.623-1.482-1.208,0-.757.7-1.278,1.7-1.278a1.567,1.567,0,0,1,1.767,1.343h.967a2.438,2.438,0,0,0-2.7-2.213c-1.611,0-2.739.9-2.739,2.191,0,1.053.634,1.681,2.063,2.046l.994.258c1.042.269,1.5.671,1.5,1.327,0,.763-.763,1.316-1.81,1.316-1.106,0-1.9-.553-1.993-1.391ZM173.33-7.879c-2.2,0-3.572,1.547-3.572,4.007s1.375,4,3.572,4,3.572-1.542,3.572-4S175.527-7.879,173.33-7.879Zm0,.892c1.584,0,2.578,1.2,2.578,3.115s-.994,3.11-2.578,3.11-2.578-1.2-2.578-3.11S171.746-6.988,173.33-6.988ZM179.5,0V-6.064h.048L183.793,0h.94V-7.75h-.956v6.085h-.048L179.485-7.75h-.94V0Zm11.214-6.891h1.864a1.42,1.42,0,0,1,1.6,1.482,1.383,1.383,0,0,1-1.558,1.488h-1.907Zm0,3.824h1.907L194.281,0h1.133l-1.794-3.217a2.213,2.213,0,0,0,1.558-2.224,2.251,2.251,0,0,0-2.471-2.31h-2.959V0h.967Zm10.919,2.2H197.8V-3.534h3.636v-.859H197.8V-6.88h3.835v-.87h-4.8V0h4.8Zm1.713-6.88V0h.967V-2.766h1.95a2.393,2.393,0,0,0,2.492-2.5,2.379,2.379,0,0,0-2.481-2.487Zm.967.859h1.708a1.536,1.536,0,0,1,1.74,1.627,1.544,1.544,0,0,1-1.74,1.638h-1.708Zm9.259-.988c-2.2,0-3.572,1.547-3.572,4.007s1.375,4,3.572,4,3.572-1.542,3.572-4S215.77-7.879,213.573-7.879Zm0,.892c1.584,0,2.578,1.2,2.578,3.115s-.994,3.11-2.578,3.11S211-1.966,211-3.873,211.989-6.988,213.573-6.988Zm6.182.1h1.864a1.42,1.42,0,0,1,1.6,1.482,1.383,1.383,0,0,1-1.558,1.488h-1.907Zm0,3.824h1.907L223.321,0h1.133l-1.794-3.217a2.213,2.213,0,0,0,1.558-2.224,2.251,2.251,0,0,0-2.471-2.31h-2.959V0h.967ZM228.853,0V-6.88h2.5v-.87h-5.962v.87h2.5V0Zm3.587-2.132c.091,1.37,1.23,2.261,2.874,2.261,1.783,0,2.9-.886,2.9-2.3,0-1.112-.65-1.729-2.256-2.132l-.811-.215c-1.053-.274-1.482-.623-1.482-1.208,0-.757.7-1.278,1.7-1.278a1.567,1.567,0,0,1,1.767,1.343h.967a2.438,2.438,0,0,0-2.7-2.213c-1.611,0-2.739.9-2.739,2.191,0,1.053.634,1.681,2.063,2.046l.994.258c1.042.269,1.5.671,1.5,1.327,0,.763-.763,1.316-1.81,1.316-1.106,0-1.9-.553-1.993-1.391Z" transform="translate(1709 -3029)"/>
    <g class="cls-19" transform="matrix(1, 0, 0, 1, 0, 0)">
      <path id="rectangle-9-2" data-name="rectangle-9" class="cls-3" d="M0,0H320V55H0Z" transform="translate(1699 -3172)"/>
    </g>
    <path id="_7605867022-4" data-name="7605867022" class="cls-5" d="M-37.634-10.608h2.3a1.945,1.945,0,0,1,2.145,2.021A1.9,1.9,0,0,1-35.3-6.565h-2.329Zm0,5.968h2.171L-33.1,0h3.006l-2.672-5.036a3.728,3.728,0,0,0,2.3-3.6c0-2.5-1.67-4.043-4.588-4.043h-5.238V0h2.654ZM-19.959-2.2h-5.748V-5.4h5.423V-7.436h-5.423v-3.059h5.748v-2.188h-8.4V0h8.4Zm2.276-10.485V0h2.654V-4h2.5A4.217,4.217,0,0,0-8-8.341a4.143,4.143,0,0,0-4.395-4.342Zm2.654,2.1H-13.1a2.116,2.116,0,0,1,2.4,2.25A2.125,2.125,0,0,1-13.1-6.073h-1.925ZM-.352-12.9c-3.762,0-6.117,2.522-6.117,6.565S-4.113.22-.352.22,5.766-2.3,5.766-6.337,3.4-12.9-.352-12.9Zm0,2.215c2.074,0,3.4,1.688,3.4,4.351S1.723-2-.352-2s-3.41-1.679-3.41-4.333S-2.426-10.687-.352-10.687Zm10.837.079h2.3a1.945,1.945,0,0,1,2.145,2.021,1.9,1.9,0,0,1-2.118,2.021H10.485Zm0,5.968h2.171L15.02,0h3.006L15.354-5.036a3.728,3.728,0,0,0,2.3-3.6c0-2.5-1.67-4.043-4.588-4.043H7.831V0h2.654ZM25.488,0V-10.494h3.718v-2.188H19.124v2.188h3.709V0Zm5.071-3.612C30.638-1.23,32.58.22,35.63.22c3.146,0,5.142-1.556,5.142-4.017,0-1.934-1.107-3.023-3.647-3.568L35.586-7.69c-1.459-.334-2.074-.773-2.074-1.556,0-.94.879-1.564,2.188-1.564,1.327,0,2.268.65,2.355,1.723h2.487c-.044-2.294-1.9-3.814-4.852-3.814-2.83,0-4.852,1.547-4.852,3.885,0,1.854,1.151,3.041,3.489,3.542l1.652.36c1.529.343,2.136.8,2.136,1.626,0,.932-.967,1.608-2.382,1.608s-2.5-.686-2.619-1.731Z" transform="translate(1859 -3138)"/>
    <path id="rectangle-50" class="cls-3" d="M3,0H297a3,3,0,0,1,3,3V79a3,3,0,0,1-3,3H3a3,3,0,0,1-3-3V3A3,3,0,0,1,3,0Z" transform="translate(1709 -2719)"/>
    <path id="_7605867022-5" data-name="7605867022" class="cls-7" d="M6.631,2.705A16.275,16.275,0,0,1,4.238-5.879,13.546,13.546,0,0,1,6.66-14.092H4.033A12.149,12.149,0,0,0,1.3-5.859,13.726,13.726,0,0,0,3.936,2.705ZM13.1.313c3.711,0,5.918-2.812,5.918-7.48a8.485,8.485,0,0,0-1.182-4.668,5.223,5.223,0,0,0-4.7-2.578c-3.145,0-5.43,2.07-5.43,4.971a4.552,4.552,0,0,0,4.678,4.648,3.775,3.775,0,0,0,3.75-2.3h.059c.078,3.232-1.1,5.078-3.047,5.078A2.34,2.34,0,0,1,10.8-3.594H7.891C8.281-1.289,10.4.313,13.1.313Zm.059-7.324a2.483,2.483,0,0,1-2.568-2.52,2.537,2.537,0,0,1,2.588-2.529,2.522,2.522,0,0,1,2.559,2.549A2.487,2.487,0,0,1,13.154-7.012ZM26.348.313c3.545,0,5.693-2.842,5.693-7.393s-2.168-7.334-5.693-7.334-5.7,2.793-5.7,7.344S22.8.313,26.348.313Zm0-2.363c-1.68,0-2.705-1.816-2.705-5.02,0-3.174,1.045-4.98,2.705-4.98s2.7,1.8,2.7,4.98C29.043-3.857,28.027-2.051,26.348-2.051ZM39.014.313c3.711,0,5.918-2.812,5.918-7.48a8.485,8.485,0,0,0-1.182-4.668,5.223,5.223,0,0,0-4.7-2.578c-3.145,0-5.43,2.07-5.43,4.971A4.552,4.552,0,0,0,38.3-4.795a3.775,3.775,0,0,0,3.75-2.3h.059c.078,3.232-1.1,5.078-3.047,5.078a2.34,2.34,0,0,1-2.344-1.572h-2.91C34.2-1.289,36.318.313,39.014.313Zm.059-7.324A2.483,2.483,0,0,1,36.5-9.531a2.537,2.537,0,0,1,2.588-2.529A2.522,2.522,0,0,1,41.65-9.512,2.487,2.487,0,0,1,39.072-7.012Zm6.982,9.717H48.74A13.618,13.618,0,0,0,51.4-5.859a12.12,12.12,0,0,0-2.744-8.232H46.035a13.6,13.6,0,0,1,2.412,8.213A16.275,16.275,0,0,1,46.055,2.705ZM63.4.313c3.232,0,5.439-2.031,5.439-5.02a4.514,4.514,0,0,0-4.629-4.727,3.524,3.524,0,0,0-3.135,1.543h-.059l.322-3.857h6.65v-2.344H59.023L58.33-5.986h2.637a2.817,2.817,0,0,1,2.471-1.3,2.51,2.51,0,0,1,2.588,2.656,2.492,2.492,0,0,1-2.607,2.607A2.445,2.445,0,0,1,60.83-4.033H58.105C58.193-1.484,60.371.313,63.4.313Zm12.5,0c3.232,0,5.439-2.031,5.439-5.02a4.514,4.514,0,0,0-4.629-4.727,3.524,3.524,0,0,0-3.135,1.543h-.059l.322-3.857h6.65v-2.344H71.523L70.83-5.986h2.637a2.817,2.817,0,0,1,2.471-1.3,2.51,2.51,0,0,1,2.588,2.656,2.492,2.492,0,0,1-2.607,2.607A2.445,2.445,0,0,1,73.33-4.033H70.605C70.693-1.484,72.871.313,75.9.313Zm12.5,0c3.232,0,5.439-2.031,5.439-5.02a4.514,4.514,0,0,0-4.629-4.727,3.524,3.524,0,0,0-3.135,1.543h-.059l.322-3.857h6.65v-2.344H84.023L83.33-5.986h2.637a2.817,2.817,0,0,1,2.471-1.3,2.51,2.51,0,0,1,2.588,2.656,2.492,2.492,0,0,1-2.607,2.607A2.445,2.445,0,0,1,85.83-4.033H83.105C83.193-1.484,85.371.313,88.4.313ZM102.109-4.4v-2.49H95.693V-4.4Zm2.041-5.449V-9.8h2.734v-.049a2.25,2.25,0,0,1,2.373-2.256,2.036,2.036,0,0,1,2.236,1.895c0,.977-.439,1.689-1.865,3.115l-5.312,5.117V0h10.244V-2.344H108.2V-2.4l3.438-3.311c1.553-1.543,2.725-2.861,2.725-4.619,0-2.354-2.041-4.072-5.01-4.072C106.279-14.4,104.15-12.52,104.15-9.854ZM121.9.313c3.389,0,5.713-1.68,5.713-4.121a3.7,3.7,0,0,0-3.311-3.623V-7.49a3.321,3.321,0,0,0,2.734-3.184c0-2.168-2.109-3.73-5.137-3.73s-5.146,1.572-5.146,3.721A3.317,3.317,0,0,0,119.5-7.49v.059a3.687,3.687,0,0,0-3.311,3.613C116.191-1.377,118.486.313,121.9.313Zm0-2.148a2.354,2.354,0,0,1-2.637-2.2,2.354,2.354,0,0,1,2.637-2.2,2.345,2.345,0,0,1,2.627,2.2A2.345,2.345,0,0,1,121.9-1.836Zm0-6.543a2.021,2.021,0,0,1-2.227-1.943,2.028,2.028,0,0,1,2.227-1.953,2.028,2.028,0,0,1,2.227,1.953A2.027,2.027,0,0,1,121.9-8.379ZM136.143,0h2.8V-2.51h1.836V-4.873h-1.836v-9.219h-4.16a93.187,93.187,0,0,0-5.654,9.072v2.51h7.012Zm-4.424-4.863A66.487,66.487,0,0,1,136.143-12h.059v7.217h-4.482ZM142.92,0h3.1l5.879-11.719v-2.373H141.816v2.344h7.168v.059Z" transform="translate(1730 -2682)"/>
    <path id="_7605867022-6" data-name="7605867022" class="cls-4" d="M-36.844-5.854h1.591c1.811,0,2.936.923,2.936,2.417,0,1.327-1.2,2.276-2.883,2.276-1.705,0-2.786-.9-2.927-2.2h-1.521c.114,2.1,1.811,3.568,4.465,3.568,2.487,0,4.474-1.521,4.474-3.7a3.028,3.028,0,0,0-3.146-3.085v-.035a2.959,2.959,0,0,0,2.6-3.015c0-1.907-1.714-3.27-3.981-3.27-2.382,0-3.981,1.38-4.157,3.533h1.521a2.361,2.361,0,0,1,2.566-2.162c1.608,0,2.461.853,2.461,2.109a2.274,2.274,0,0,1-2.479,2.224h-1.521ZM-24.187.22A4.273,4.273,0,0,0-19.7-4.113a4.088,4.088,0,0,0-4.21-4.192,3.84,3.84,0,0,0-3.542,2.057h-.026c.053-3.375,1.257-5.256,3.375-5.256a2.642,2.642,0,0,1,2.619,1.89h1.608a4.085,4.085,0,0,0-4.21-3.287c-3.1,0-4.922,2.5-4.922,6.776a8.69,8.69,0,0,0,.624,3.489A4.41,4.41,0,0,0-24.187.22Zm-.018-1.406A2.878,2.878,0,0,1-27.1-4.1a2.787,2.787,0,0,1,2.918-2.812A2.76,2.76,0,0,1-21.3-4.061,2.87,2.87,0,0,1-24.205-1.187Zm11.329,4.623c1.679,0,2.435-.659,3.243-2.856L-5.924-9.475H-7.532l-2.654,7.919h-.035l-2.654-7.919H-14.5L-11,.009l-.185.563c-.387,1.143-.861,1.564-1.74,1.564a3.514,3.514,0,0,1-.624-.053V3.375A4.2,4.2,0,0,0-12.876,3.437ZM-4.667,0h1.529V-5.862A2.022,2.022,0,0,1-1.1-8.095a3.188,3.188,0,0,1,.835.088v-1.5A3.455,3.455,0,0,0-.9-9.562,2.286,2.286,0,0,0-3.19-7.937h-.035V-9.475H-4.667Z" transform="translate(1970 -2682)"/>
    <path id="Loe-2" data-name="Loe" class="cls-5" d="M7.938,13.734H2.5V3.727H1.094V15H7.938Zm4.609,1.344c2.367,0,3.883-1.68,3.883-4.289S14.914,6.5,12.547,6.5,8.664,8.172,8.664,10.789,10.18,15.078,12.547,15.078Zm0-1.211c-1.562,0-2.5-1.148-2.5-3.078s.93-3.078,2.5-3.078,2.5,1.141,2.5,3.078S14.117,13.867,12.547,13.867ZM17.719,8.93c0,1.125.719,1.867,2.2,2.25l1.477.383c.961.25,1.313.563,1.313,1.156,0,.758-.719,1.234-1.867,1.234s-1.844-.461-1.984-1.32H17.484c.133,1.461,1.445,2.445,3.258,2.445,1.945,0,3.328-1.016,3.328-2.453,0-1.227-.609-1.82-2.312-2.25l-1.281-.32c-.969-.242-1.422-.625-1.422-1.2,0-.734.7-1.227,1.734-1.227s1.719.492,1.8,1.281h1.3c-.055-1.383-1.352-2.406-3.062-2.406C19.008,6.508,17.719,7.508,17.719,8.93ZM36.875,15h1.477L34.2,3.727H32.8L28.648,15h1.477l1.133-3.227h4.484Zm-3.4-9.562h.047l1.8,5.141H31.672ZM39.469,15h1.359V10.109a2.156,2.156,0,0,1,2.219-2.4c1.328,0,1.969.75,1.969,2.125V15h1.359V9.6a3.018,3.018,0,0,0-5.594-1.656H40.75V6.578H39.469Zm12.117-1.211c-1.469,0-2.43-1.2-2.43-3.031s.961-3.047,2.43-3.047,2.477,1.234,2.477,3.047S53.063,13.789,51.586,13.789Zm.047,4.383c2.313,0,3.789-1.336,3.789-3.344V6.578h-1.3V7.945H54.1A3.1,3.1,0,0,0,51.359,6.5c-2.164,0-3.594,1.688-3.594,4.258C47.766,13.3,49.2,15,51.328,15a3.023,3.023,0,0,0,2.7-1.445h.031v1.32A2.107,2.107,0,0,1,51.7,17a2.2,2.2,0,0,1-2.187-1.3H48.1A3.343,3.343,0,0,0,51.633,18.172ZM60.625,7.7a2.232,2.232,0,0,1,2.266,2.383H58.258A2.358,2.358,0,0,1,60.625,7.7Zm2.234,4.9a2.062,2.062,0,0,1-2.117,1.289,2.41,2.41,0,0,1-2.484-2.641v-.078H64.3v-.531C64.3,8.086,62.9,6.5,60.648,6.5c-2.3,0-3.8,1.711-3.8,4.32s1.492,4.258,3.859,4.258A3.316,3.316,0,0,0,64.2,12.594ZM65.813,15h1.359V3.234H65.813Zm6.641-7.3a2.232,2.232,0,0,1,2.266,2.383H70.086A2.358,2.358,0,0,1,72.453,7.7Zm2.234,4.9a2.062,2.062,0,0,1-2.117,1.289,2.41,2.41,0,0,1-2.484-2.641v-.078h6.047v-.531c0-2.547-1.406-4.133-3.656-4.133-2.3,0-3.8,1.711-3.8,4.32s1.492,4.258,3.859,4.258a3.316,3.316,0,0,0,3.492-2.484ZM77.422,8.93c0,1.125.719,1.867,2.2,2.25l1.477.383c.961.25,1.313.563,1.313,1.156,0,.758-.719,1.234-1.867,1.234s-1.844-.461-1.984-1.32H77.188c.133,1.461,1.445,2.445,3.258,2.445,1.945,0,3.328-1.016,3.328-2.453,0-1.227-.609-1.82-2.312-2.25l-1.281-.32c-.969-.242-1.422-.625-1.422-1.2,0-.734.7-1.227,1.734-1.227s1.719.492,1.8,1.281h1.3c-.055-1.383-1.352-2.406-3.062-2.406C78.711,6.508,77.422,7.508,77.422,8.93Zm16.469,6.258c2.492,0,4.164-1.242,4.68-3.469H97.148a3.11,3.11,0,0,1-3.25,2.172c-2.227,0-3.641-1.766-3.641-4.531,0-2.742,1.43-4.523,3.633-4.523a3.225,3.225,0,0,1,3.258,2.445H98.57a4.477,4.477,0,0,0-4.68-3.742c-3.086,0-5.078,2.281-5.078,5.82C88.813,12.93,90.781,15.188,93.891,15.188ZM107.555,15h1.477L104.875,3.727h-1.391L99.328,15H100.8l1.133-3.227h4.484Zm-3.4-9.562h.047l1.8,5.141h-3.656Z" transform="translate(1730 -2674)"/>
    <path id="path-5-2" data-name="path-5" class="cls-8" d="M1060.154,258.538l7.228-7.228-7.228-7.228" transform="translate(927.346 -2927.583)"/>
    <path id="rectangle-8" class="cls-3" d="M3,0H297a3,3,0,0,1,3,3V91a3,3,0,0,1-3,3H3a3,3,0,0,1-3-3V3A3,3,0,0,1,3,0Z" transform="translate(1709 -2927)"/>
    <path id="path-5-3" data-name="path-5" class="cls-8" d="M1060.154,258.538l7.228-7.228-7.228-7.228" transform="translate(927.346 -3131.583)"/>
    <path id="_7605867022-7" data-name="7605867022" class="cls-7" d="M4.121-11.787H6.68A2.161,2.161,0,0,1,9.063-9.541,2.114,2.114,0,0,1,6.709-7.295H4.121Zm0,6.631H6.533L9.16,0H12.5L9.531-5.6a4.142,4.142,0,0,0,2.559-4c0-2.783-1.855-4.492-5.1-4.492H1.172V0H4.121Zm13.76,3.2c-1.035,0-1.709-.5-1.709-1.289S16.807-4.5,18-4.58l2.256-.156v.791A2.156,2.156,0,0,1,17.881-1.953ZM16.953.127A3.679,3.679,0,0,0,20.244-1.66H20.3V0h2.754V-7.373c0-2.148-1.807-3.564-4.57-3.564-2.686,0-4.541,1.416-4.619,3.467h2.607A1.751,1.751,0,0,1,18.369-8.8c1.172,0,1.885.566,1.885,1.6v.713l-2.686.166c-2.744.166-4.238,1.27-4.238,3.223C13.33-1.172,14.883.127,16.953.127ZM34.688-6.787c-.137-2.393-1.982-4.15-4.873-4.15-3.193,0-5.244,2.148-5.244,5.557,0,3.457,2.051,5.566,5.264,5.566,2.822,0,4.7-1.592,4.863-4.092H32.041A2.028,2.028,0,0,1,29.863-2.07c-1.475,0-2.4-1.211-2.4-3.311,0-2.061.928-3.311,2.393-3.311a2.088,2.088,0,0,1,2.178,1.9ZM36.2,0h2.852V-6.1a2.184,2.184,0,0,1,2.236-2.432c1.357,0,2.061.85,2.061,2.256V0H46.2V-6.875c0-2.49-1.377-4.033-3.76-4.033a3.405,3.405,0,0,0-3.379,2.08H39v-5.937H36.2Zm16.68-8.809a2.226,2.226,0,0,1,2.285,2.324H50.527A2.341,2.341,0,0,1,52.881-8.809Zm2.324,5.527a2.163,2.163,0,0,1-2.2,1.338,2.418,2.418,0,0,1-2.51-2.6v-.176H57.92V-5.6c0-3.271-1.973-5.342-5.068-5.342-3.154,0-5.166,2.188-5.166,5.605s2,5.518,5.273,5.518c2.617,0,4.561-1.387,4.873-3.467ZM59.531,0h2.852V-14.766H59.531Zm9.355-14.092V0h5.43c4.229,0,6.719-2.627,6.719-7.1s-2.49-6.992-6.719-6.992Zm2.949,2.432h2.129c2.6,0,4.063,1.621,4.063,4.57,0,3.047-1.426,4.648-4.062,4.648H71.836ZM87.627.186c3.262,0,5.3-2.08,5.3-5.566,0-3.447-2.061-5.557-5.3-5.557s-5.3,2.119-5.3,5.557C82.324-1.9,84.365.186,87.627.186Zm0-2.2c-1.5,0-2.412-1.23-2.412-3.369,0-2.109.908-3.369,2.412-3.369s2.4,1.25,2.4,3.369C90.029-3.242,89.131-2.012,87.627-2.012Zm11.621-6.8a2.226,2.226,0,0,1,2.285,2.324H96.895A2.341,2.341,0,0,1,99.248-8.809Zm2.324,5.527a2.163,2.163,0,0,1-2.2,1.338,2.418,2.418,0,0,1-2.51-2.6v-.176h7.422V-5.6c0-3.271-1.973-5.342-5.068-5.342-3.154,0-5.166,2.188-5.166,5.605s2,5.518,5.273,5.518c2.617,0,4.561-1.387,4.873-3.467Z" transform="translate(1728 -2874)"/>
    <path id="_7605867022-8" data-name="7605867022" class="cls-7" d="M-34.717.22a4.273,4.273,0,0,0,4.491-4.333,4.088,4.088,0,0,0-4.21-4.192,3.84,3.84,0,0,0-3.542,2.057H-38c.053-3.375,1.257-5.256,3.375-5.256a2.642,2.642,0,0,1,2.619,1.89H-30.4a4.085,4.085,0,0,0-4.21-3.287c-3.1,0-4.922,2.5-4.922,6.776a8.69,8.69,0,0,0,.624,3.489A4.41,4.41,0,0,0-34.717.22Zm-.018-1.406A2.878,2.878,0,0,1-37.626-4.1a2.787,2.787,0,0,1,2.918-2.812,2.76,2.76,0,0,1,2.874,2.856A2.87,2.87,0,0,1-34.734-1.187ZM-24.17.211a4.246,4.246,0,0,0,4.518-4.333,4.077,4.077,0,0,0-4.192-4.245,3.5,3.5,0,0,0-2.839,1.222h-.035l.387-4.131h5.959v-1.406h-7.26l-.694,7.1h1.485A3.06,3.06,0,0,1-24.126-7a2.8,2.8,0,0,1,2.892,2.927,2.782,2.782,0,0,1-2.918,2.9,2.636,2.636,0,0,1-2.812-2.285h-1.556C-28.389-1.3-26.6.211-24.17.211Zm11.294,3.226c1.679,0,2.435-.659,3.243-2.856L-5.924-9.475H-7.532l-2.654,7.919h-.035l-2.654-7.919H-14.5L-11,.009l-.185.563c-.387,1.143-.861,1.564-1.74,1.564a3.514,3.514,0,0,1-.624-.053V3.375A4.2,4.2,0,0,0-12.876,3.437ZM-4.667,0h1.529V-5.862A2.022,2.022,0,0,1-1.1-8.095a3.188,3.188,0,0,1,.835.088v-1.5A3.455,3.455,0,0,0-.9-9.562,2.286,2.286,0,0,0-3.19-7.937h-.035V-9.475H-4.667Z" transform="translate(1970 -2876)"/>
    <path id="Loe-3" data-name="Loe" class="cls-5" d="M2.5,15V10.117H7.492V8.867H2.5V4.992H7.938V3.727H1.094V15Zm10.18.078c2.367,0,3.883-1.68,3.883-4.289S15.047,6.5,12.68,6.5,8.8,8.172,8.8,10.789,10.313,15.078,12.68,15.078Zm0-1.211c-1.562,0-2.5-1.148-2.5-3.078s.93-3.078,2.5-3.078,2.5,1.141,2.5,3.078S14.25,13.867,12.68,13.867ZM17.992,15h1.359V9.789A1.8,1.8,0,0,1,21.164,7.8a2.834,2.834,0,0,1,.742.078V6.547a3.071,3.071,0,0,0-.562-.047A2.032,2.032,0,0,0,19.3,7.945h-.031V6.578H17.992ZM23.508,4.68v1.9H22.336V7.7h1.172v5.109c0,1.617.594,2.25,2.117,2.25a4.917,4.917,0,0,0,.875-.07V13.844a5.631,5.631,0,0,1-.586.039c-.719,0-1.047-.352-1.047-1.125V7.7h1.641V6.578H24.867V4.68ZM31.477,11.9c.133,1.992,1.789,3.289,4.18,3.289,2.594,0,4.219-1.289,4.219-3.352,0-1.617-.945-2.516-3.281-3.1l-1.18-.312c-1.531-.4-2.156-.906-2.156-1.758,0-1.1,1.016-1.859,2.477-1.859A2.279,2.279,0,0,1,38.3,6.758h1.406c-.062-1.891-1.687-3.219-3.93-3.219-2.344,0-3.984,1.313-3.984,3.188,0,1.531.922,2.445,3,2.977l1.445.375c1.516.391,2.18.977,2.18,1.93,0,1.109-1.109,1.914-2.633,1.914-1.609,0-2.766-.8-2.9-2.023ZM41.344,15H42.7V9.773a1.957,1.957,0,0,1,1.953-2.062A1.621,1.621,0,0,1,46.406,9.4V15h1.359V9.7A1.892,1.892,0,0,1,49.7,7.711a1.658,1.658,0,0,1,1.773,1.852V15h1.359V9.25A2.574,2.574,0,0,0,50.086,6.5a2.839,2.839,0,0,0-2.648,1.594h-.031A2.359,2.359,0,0,0,45.047,6.5a2.514,2.514,0,0,0-2.391,1.445h-.031V6.578H41.344Zm13.367,0H56.07V6.578H54.711Zm.68-9.781a.859.859,0,1,0-.859-.859A.862.862,0,0,0,55.391,5.219Zm3.047-.539v1.9H57.266V7.7h1.172v5.109c0,1.617.594,2.25,2.117,2.25a4.917,4.917,0,0,0,.875-.07V13.844a5.631,5.631,0,0,1-.586.039c-.719,0-1.047-.352-1.047-1.125V7.7h1.641V6.578H59.8V4.68ZM63.023,15h1.359V10.156a2.216,2.216,0,0,1,2.3-2.445A1.888,1.888,0,0,1,68.7,9.867V15h1.359V9.625A2.849,2.849,0,0,0,67.086,6.5a2.777,2.777,0,0,0-2.672,1.445h-.031V3.234H63.023Zm9.719,2.008,1.172-3.586H72.469l-.781,3.586ZM87.25,15h1.477L84.57,3.727H83.18L79.023,15H80.5l1.133-3.227h4.484Zm-3.4-9.562H83.9l1.8,5.141H82.047Zm7.57-.461h2.711a2.066,2.066,0,0,1,2.328,2.156A2.012,2.012,0,0,1,94.2,9.3H91.422Zm0,5.563H94.2L96.609,15h1.648l-2.609-4.68a3.219,3.219,0,0,0,2.266-3.234A3.273,3.273,0,0,0,94.32,3.727h-4.3V15h1.406Z" transform="translate(1728 -2865)"/>
    <path id="_7605867022-9" data-name="7605867022" class="cls-9" d="M.645-7.75V0H2.267V-2.444H3.8A2.577,2.577,0,0,0,6.563-5.1,2.532,2.532,0,0,0,3.878-7.75ZM2.267-6.467H3.448A1.293,1.293,0,0,1,4.915-5.092a1.3,1.3,0,0,1-1.472,1.38H2.267Zm7.315-.016h1.407A1.189,1.189,0,0,1,12.3-5.248,1.163,1.163,0,0,1,11-4.012H9.582Zm0,3.647h1.327L12.353,0H14.19L12.557-3.078a2.278,2.278,0,0,0,1.407-2.2c0-1.531-1.021-2.471-2.8-2.471H7.96V0H9.582ZM20.6-1.343H17.09V-3.3H20.4V-4.544H17.09V-6.413H20.6V-7.75H15.468V0H20.6ZM30.421,0V-7.75h-1.88l-2.2,5.495H26.3l-2.2-5.495h-1.88V0h1.445V-5.231H23.7L25.807-.075h1.021l2.105-5.156h.043V0Zm3.351,0V-7.75H32.15V0Zm3.351-7.75H35.5v5.011c0,1.708,1.262,2.874,3.25,2.874s3.244-1.166,3.244-2.874V-7.75H40.372V-2.9A1.507,1.507,0,0,1,38.75-1.257,1.509,1.509,0,0,1,37.123-2.9ZM51.931,0V-7.75h-1.88l-2.2,5.495h-.043L45.6-7.75h-1.88V0h1.445V-5.231h.043L47.317-.075h1.021l2.105-5.156h.043V0Zm6.154-6.483h1.407A1.189,1.189,0,0,1,60.8-5.248a1.163,1.163,0,0,1-1.294,1.235H58.085Zm0,3.647h1.327L60.856,0h1.837L61.061-3.078a2.278,2.278,0,0,0,1.407-2.2c0-1.531-1.021-2.471-2.8-2.471h-3.2V0h1.622ZM69.106-1.343H65.593V-3.3h3.314V-4.544H65.593V-6.413h3.513V-7.75H63.971V0h5.135ZM70.717-7.75V0h1.622V-2.444H73.87A2.577,2.577,0,0,0,76.636-5.1,2.532,2.532,0,0,0,73.95-7.75Zm1.622,1.284h1.182a1.293,1.293,0,0,1,1.466,1.375,1.3,1.3,0,0,1-1.472,1.38H72.339Zm9.19-1.418c-2.3,0-3.738,1.542-3.738,4.012S79.23.134,81.528.134s3.738-1.542,3.738-4.007S83.822-7.885,81.528-7.885Zm0,1.354c1.268,0,2.079,1.031,2.079,2.659S82.8-1.225,81.528-1.225,79.444-2.25,79.444-3.873,80.261-6.531,81.528-6.531Zm6.842.048h1.407a1.189,1.189,0,0,1,1.311,1.235,1.163,1.163,0,0,1-1.294,1.235H88.371Zm0,3.647H89.7L91.142,0h1.837L91.346-3.078a2.278,2.278,0,0,0,1.407-2.2c0-1.531-1.021-2.471-2.8-2.471h-3.2V0h1.622ZM97.759,0V-6.413h2.272V-7.75H93.87v1.337h2.267V0Z" transform="translate(1747 -2901)"/>
    <path id="path" class="cls-10" d="M-122.5,212.77h-.8v2.3h.656c.787,0,1.277-.342,1.277-1.144A1.042,1.042,0,0,0-122.5,212.77Z" transform="translate(1858.34 -3120.23)"/>
    <path id="path-2" data-name="path" class="cls-10" d="M-144,192.66v16.265l5.746-2.554,5.746,2.554V192.66Zm6.54,8.536h-1.249v2.2h-1.936v-7.406h3.2a2.475,2.475,0,0,1,2.635,2.62,2.467,2.467,0,0,1-2.656,2.587Z" transform="translate(1873.754 -3104.925)"/>
    <path id="rectangle-8-2" data-name="rectangle-8" class="cls-11" d="M3,0H8V94H3a3,3,0,0,1-3-3V3A3,3,0,0,1,3,0Z" transform="translate(1709 -2927)"/>
    <path id="rectangle-8-3" data-name="rectangle-8" class="cls-3" d="M3,0H297a3,3,0,0,1,3,3V91a3,3,0,0,1-3,3H3a3,3,0,0,1-3-3V3A3,3,0,0,1,3,0Z" transform="translate(1709 -2823)"/>
    <path id="path-5-4" data-name="path-5" class="cls-8" d="M1060.154,258.538l7.228-7.228-7.228-7.228" transform="translate(927.346 -3027.583)"/>
    <path id="_7605867022-10" data-name="7605867022" class="cls-7" d="M.3-4.15C.3-1.455,2.188.293,5.068.293c3.018,0,4.814-1.709,4.814-4.707v-9.678H6.934v9.658c0,1.416-.664,2.178-1.895,2.178A1.794,1.794,0,0,1,3.164-4.15ZM17.031.186c3.262,0,5.3-2.08,5.3-5.566,0-3.447-2.061-5.557-5.3-5.557s-5.3,2.119-5.3,5.557C11.729-1.9,13.77.186,17.031.186Zm0-2.2c-1.5,0-2.412-1.23-2.412-3.369,0-2.109.908-3.369,2.412-3.369s2.4,1.25,2.4,3.369C19.434-3.242,18.535-2.012,17.031-2.012ZM23.936,0h2.852V-6.1a2.184,2.184,0,0,1,2.236-2.432c1.357,0,2.061.85,2.061,2.256V0h2.852V-6.875c0-2.49-1.377-4.033-3.76-4.033A3.405,3.405,0,0,0,26.8-8.828h-.059v-5.937h-2.8ZM35.82,0h2.852V-6.133a2.154,2.154,0,0,1,2.188-2.4c1.348,0,2.012.811,2.012,2.236V0h2.852V-6.895c0-2.51-1.348-4.014-3.73-4.014a3.379,3.379,0,0,0-3.359,2.08h-.059v-1.924H35.82ZM51.24-4.15c0,2.7,1.885,4.443,4.766,4.443,3.018,0,4.814-1.709,4.814-4.707v-9.678H57.871v9.658c0,1.416-.664,2.178-1.895,2.178A1.794,1.794,0,0,1,54.1-4.15ZM64.59.117a1.565,1.565,0,0,0,1.572-1.572A1.559,1.559,0,0,0,64.59-3.027a1.559,1.559,0,0,0-1.572,1.572A1.565,1.565,0,0,0,64.59.117ZM71.963-4.15c0,2.7,1.885,4.443,4.766,4.443,3.018,0,4.814-1.709,4.814-4.707v-9.678H78.594v9.658c0,1.416-.664,2.178-1.895,2.178A1.794,1.794,0,0,1,74.824-4.15ZM87.9-1.953c-1.035,0-1.709-.5-1.709-1.289s.635-1.26,1.826-1.338l2.256-.156v.791A2.156,2.156,0,0,1,87.9-1.953ZM86.973.127A3.679,3.679,0,0,0,90.264-1.66h.059V0h2.754V-7.373c0-2.148-1.807-3.564-4.57-3.564-2.686,0-4.541,1.416-4.619,3.467h2.607A1.751,1.751,0,0,1,88.389-8.8c1.172,0,1.885.566,1.885,1.6v.713l-2.686.166c-2.744.166-4.238,1.27-4.238,3.223C83.35-1.172,84.9.127,86.973.127Zm17.734-6.914c-.137-2.393-1.982-4.15-4.873-4.15-3.193,0-5.244,2.148-5.244,5.557,0,3.457,2.051,5.566,5.264,5.566,2.822,0,4.7-1.592,4.863-4.092h-2.656A2.028,2.028,0,0,1,99.883-2.07c-1.475,0-2.4-1.211-2.4-3.311,0-2.061.928-3.311,2.393-3.311a2.088,2.088,0,0,1,2.178,1.9ZM111.045.186c3.262,0,5.3-2.08,5.3-5.566,0-3.447-2.061-5.557-5.3-5.557s-5.3,2.119-5.3,5.557C105.742-1.9,107.783.186,111.045.186Zm0-2.2c-1.5,0-2.412-1.23-2.412-3.369,0-2.109.908-3.369,2.412-3.369s2.4,1.25,2.4,3.369C113.447-3.242,112.549-2.012,111.045-2.012ZM124.189.127c2.705,0,4.375-2.09,4.375-5.508s-1.67-5.5-4.385-5.5a3.5,3.5,0,0,0-3.32,1.963H120.8v-5.85h-2.852V0h2.8V-1.836h.059A3.545,3.545,0,0,0,124.189.127Zm-.967-8.7c1.465,0,2.422,1.25,2.422,3.193s-.947,3.2-2.422,3.2-2.432-1.27-2.441-3.193C120.791-7.295,121.758-8.574,123.223-8.574Z" transform="translate(1728 -2770)"/>
    <path id="_7605867022-11" data-name="7605867022" class="cls-7" d="M-33.39,0h1.529V-2.637h1.793V-4.025H-31.86v-8.657H-34.2a91.617,91.617,0,0,0-5.563,8.613v1.433h6.372ZM-38.2-4.061c1-1.758,2.382-3.876,4.781-7.3h.026v7.339H-38.2ZM-24.17.211a4.246,4.246,0,0,0,4.518-4.333,4.077,4.077,0,0,0-4.192-4.245,3.5,3.5,0,0,0-2.839,1.222h-.035l.387-4.131h5.959v-1.406h-7.26l-.694,7.1h1.485A3.06,3.06,0,0,1-24.126-7a2.8,2.8,0,0,1,2.892,2.927,2.782,2.782,0,0,1-2.918,2.9,2.636,2.636,0,0,1-2.812-2.285h-1.556C-28.389-1.3-26.6.211-24.17.211Zm11.294,3.226c1.679,0,2.435-.659,3.243-2.856L-5.924-9.475H-7.532l-2.654,7.919h-.035l-2.654-7.919H-14.5L-11,.009l-.185.563c-.387,1.143-.861,1.564-1.74,1.564a3.514,3.514,0,0,1-.624-.053V3.375A4.2,4.2,0,0,0-12.876,3.437ZM-4.667,0h1.529V-5.862A2.022,2.022,0,0,1-1.1-8.095a3.188,3.188,0,0,1,.835.088v-1.5A3.455,3.455,0,0,0-.9-9.562,2.286,2.286,0,0,0-3.19-7.937h-.035V-9.475H-4.667Z" transform="translate(1970 -2772)"/>
    <path id="Loe-4" data-name="Loe" class="cls-5" d="M2.5,15V10.117H7.492V8.867H2.5V4.992H7.938V3.727H1.094V15Zm10.18.078c2.367,0,3.883-1.68,3.883-4.289S15.047,6.5,12.68,6.5,8.8,8.172,8.8,10.789,10.313,15.078,12.68,15.078Zm0-1.211c-1.562,0-2.5-1.148-2.5-3.078s.93-3.078,2.5-3.078,2.5,1.141,2.5,3.078S14.25,13.867,12.68,13.867ZM17.992,15h1.359V9.789A1.8,1.8,0,0,1,21.164,7.8a2.834,2.834,0,0,1,.742.078V6.547a3.071,3.071,0,0,0-.562-.047A2.032,2.032,0,0,0,19.3,7.945h-.031V6.578H17.992ZM23.508,4.68v1.9H22.336V7.7h1.172v5.109c0,1.617.594,2.25,2.117,2.25a4.917,4.917,0,0,0,.875-.07V13.844a5.631,5.631,0,0,1-.586.039c-.719,0-1.047-.352-1.047-1.125V7.7h1.641V6.578H24.867V4.68ZM31.477,11.9c.133,1.992,1.789,3.289,4.18,3.289,2.594,0,4.219-1.289,4.219-3.352,0-1.617-.945-2.516-3.281-3.1l-1.18-.312c-1.531-.4-2.156-.906-2.156-1.758,0-1.1,1.016-1.859,2.477-1.859A2.279,2.279,0,0,1,38.3,6.758h1.406c-.062-1.891-1.687-3.219-3.93-3.219-2.344,0-3.984,1.313-3.984,3.188,0,1.531.922,2.445,3,2.977l1.445.375c1.516.391,2.18.977,2.18,1.93,0,1.109-1.109,1.914-2.633,1.914-1.609,0-2.766-.8-2.9-2.023ZM41.344,15H42.7V9.773a1.957,1.957,0,0,1,1.953-2.062A1.621,1.621,0,0,1,46.406,9.4V15h1.359V9.7A1.892,1.892,0,0,1,49.7,7.711a1.658,1.658,0,0,1,1.773,1.852V15h1.359V9.25A2.574,2.574,0,0,0,50.086,6.5a2.839,2.839,0,0,0-2.648,1.594h-.031A2.359,2.359,0,0,0,45.047,6.5a2.514,2.514,0,0,0-2.391,1.445h-.031V6.578H41.344Zm13.367,0H56.07V6.578H54.711Zm.68-9.781a.859.859,0,1,0-.859-.859A.862.862,0,0,0,55.391,5.219Zm3.047-.539v1.9H57.266V7.7h1.172v5.109c0,1.617.594,2.25,2.117,2.25a4.917,4.917,0,0,0,.875-.07V13.844a5.631,5.631,0,0,1-.586.039c-.719,0-1.047-.352-1.047-1.125V7.7h1.641V6.578H59.8V4.68ZM63.023,15h1.359V10.156a2.216,2.216,0,0,1,2.3-2.445A1.888,1.888,0,0,1,68.7,9.867V15h1.359V9.625A2.849,2.849,0,0,0,67.086,6.5a2.777,2.777,0,0,0-2.672,1.445h-.031V3.234H63.023Zm9.719,2.008,1.172-3.586H72.469l-.781,3.586ZM87.25,15h1.477L84.57,3.727H83.18L79.023,15H80.5l1.133-3.227h4.484Zm-3.4-9.562H83.9l1.8,5.141H82.047Zm7.57-.461h2.711a2.066,2.066,0,0,1,2.328,2.156A2.012,2.012,0,0,1,94.2,9.3H91.422Zm0,5.563H94.2L96.609,15h1.648l-2.609-4.68a3.219,3.219,0,0,0,2.266-3.234A3.273,3.273,0,0,0,94.32,3.727h-4.3V15h1.406Z" transform="translate(1728 -2761)"/>
    <path id="_7605867022-12" data-name="7605867022" class="cls-9" d="M.645-7.75V0H2.267V-2.444H3.8A2.577,2.577,0,0,0,6.563-5.1,2.532,2.532,0,0,0,3.878-7.75ZM2.267-6.467H3.448A1.293,1.293,0,0,1,4.915-5.092a1.3,1.3,0,0,1-1.472,1.38H2.267Zm7.315-.016h1.407A1.189,1.189,0,0,1,12.3-5.248,1.163,1.163,0,0,1,11-4.012H9.582Zm0,3.647h1.327L12.353,0H14.19L12.557-3.078a2.278,2.278,0,0,0,1.407-2.2c0-1.531-1.021-2.471-2.8-2.471H7.96V0H9.582ZM20.6-1.343H17.09V-3.3H20.4V-4.544H17.09V-6.413H20.6V-7.75H15.468V0H20.6ZM30.421,0V-7.75h-1.88l-2.2,5.495H26.3l-2.2-5.495h-1.88V0h1.445V-5.231H23.7L25.807-.075h1.021l2.105-5.156h.043V0Zm3.351,0V-7.75H32.15V0Zm3.351-7.75H35.5v5.011c0,1.708,1.262,2.874,3.25,2.874s3.244-1.166,3.244-2.874V-7.75H40.372V-2.9A1.507,1.507,0,0,1,38.75-1.257,1.509,1.509,0,0,1,37.123-2.9ZM51.931,0V-7.75h-1.88l-2.2,5.495h-.043L45.6-7.75h-1.88V0h1.445V-5.231h.043L47.317-.075h1.021l2.105-5.156h.043V0Zm6.154-6.483h1.407A1.189,1.189,0,0,1,60.8-5.248a1.163,1.163,0,0,1-1.294,1.235H58.085Zm0,3.647h1.327L60.856,0h1.837L61.061-3.078a2.278,2.278,0,0,0,1.407-2.2c0-1.531-1.021-2.471-2.8-2.471h-3.2V0h1.622ZM69.106-1.343H65.593V-3.3h3.314V-4.544H65.593V-6.413h3.513V-7.75H63.971V0h5.135ZM70.717-7.75V0h1.622V-2.444H73.87A2.577,2.577,0,0,0,76.636-5.1,2.532,2.532,0,0,0,73.95-7.75Zm1.622,1.284h1.182a1.293,1.293,0,0,1,1.466,1.375,1.3,1.3,0,0,1-1.472,1.38H72.339Zm9.19-1.418c-2.3,0-3.738,1.542-3.738,4.012S79.23.134,81.528.134s3.738-1.542,3.738-4.007S83.822-7.885,81.528-7.885Zm0,1.354c1.268,0,2.079,1.031,2.079,2.659S82.8-1.225,81.528-1.225,79.444-2.25,79.444-3.873,80.261-6.531,81.528-6.531Zm6.842.048h1.407a1.189,1.189,0,0,1,1.311,1.235,1.163,1.163,0,0,1-1.294,1.235H88.371Zm0,3.647H89.7L91.142,0h1.837L91.346-3.078a2.278,2.278,0,0,0,1.407-2.2c0-1.531-1.021-2.471-2.8-2.471h-3.2V0h1.622ZM97.759,0V-6.413h2.272V-7.75H93.87v1.337h2.267V0Z" transform="translate(1747 -2797)"/>
    <path id="path-3" data-name="path" class="cls-10" d="M-122.5,212.77h-.8v2.3h.656c.787,0,1.277-.342,1.277-1.144A1.042,1.042,0,0,0-122.5,212.77Z" transform="translate(1858.34 -3016.23)"/>
    <path id="path-4" data-name="path" class="cls-10" d="M-144,192.66v16.265l5.746-2.554,5.746,2.554V192.66Zm6.54,8.536h-1.249v2.2h-1.936v-7.406h3.2a2.475,2.475,0,0,1,2.635,2.62,2.467,2.467,0,0,1-2.656,2.587Z" transform="translate(1873.754 -3000.925)"/>
    <path id="rectangle-8-4" data-name="rectangle-8" class="cls-11" d="M3,0H8V94H3a3,3,0,0,1-3-3V3A3,3,0,0,1,3,0Z" transform="translate(1709 -2823)"/>
    <path id="path-5-5" data-name="path" class="cls-12" d="M0,0H24V24H0Z" transform="translate(1979 -3091)"/>
    <path id="rectangle-26" class="cls-3" d="M3,0H298a3,3,0,0,1,3,3V47a3,3,0,0,1-3,3H3a3,3,0,0,1-3-3V3A3,3,0,0,1,3,0Z" transform="translate(1709 -3107)"/>
    <path id="Loe-5" data-name="Loe" class="cls-5" d="M2.44,15V10.871H6.679V9.579H2.44V6.455H7.068V5.136H.909V15Zm7.632,0V5.136H8.541V15Zm8.083-1.326H13.562V5.136H12.031V15h6.125ZM22.227,15V6.455H25.3V5.136H17.619V6.455H20.7V15Zm10.722-1.326h-4.73V10.611H32.7V9.34H28.218V6.455h4.73V5.136H26.687V15h6.262Zm3.244-7.253h2.16A1.7,1.7,0,0,1,40.26,8.191a1.662,1.662,0,0,1-1.866,1.777h-2.2Zm0,4.785h2.16L40.362,15h1.771l-2.215-4.033A2.831,2.831,0,0,0,41.832,8.15c0-1.839-1.265-3.015-3.295-3.015H34.661V15h1.531ZM50.869,15c2.105,0,3.37-1.053,3.37-2.789A2.377,2.377,0,0,0,52,9.8V9.743A2.184,2.184,0,0,0,53.747,7.6c0-1.49-1.148-2.461-2.892-2.461h-4.04V15ZM48.346,6.387h2.133c1.114,0,1.743.506,1.743,1.422,0,.978-.731,1.524-2.064,1.524H48.346Zm0,7.362V10.5h2.126c1.442,0,2.2.547,2.2,1.613s-.731,1.634-2.112,1.634ZM59.9,15V10.96l3.479-5.824h-1.7L59.164,9.49h-.048L56.6,5.136H54.891l3.473,5.824V15ZM76.1,15h1.477L73.423,3.727H72.032L67.876,15h1.477l1.133-3.227H74.97ZM72.7,5.438h.047l1.8,5.141H70.9ZM78.934,15h1.359V3.234H78.934Zm3.519,0h1.359V3.234H82.454ZM91.461,4.977h2.711A2.066,2.066,0,0,1,96.5,7.133,2.012,2.012,0,0,1,94.235,9.3H91.461Zm0,5.563h2.773L96.649,15H98.3l-2.609-4.68a3.219,3.219,0,0,0,2.266-3.234A3.273,3.273,0,0,0,94.36,3.727h-4.3V15h1.406ZM103.067,7.7a2.232,2.232,0,0,1,2.266,2.383H100.7A2.358,2.358,0,0,1,103.067,7.7Zm2.234,4.9a2.062,2.062,0,0,1-2.117,1.289,2.41,2.41,0,0,1-2.484-2.641v-.078h6.047v-.531c0-2.547-1.406-4.133-3.656-4.133-2.3,0-3.8,1.711-3.8,4.32s1.492,4.258,3.859,4.258a3.316,3.316,0,0,0,3.492-2.484ZM112.383,6.5a3.117,3.117,0,0,0-2.727,1.445h-.031V6.578h-1.289V17.813H109.7v-4.18h.031a2.964,2.964,0,0,0,2.688,1.445c2.125,0,3.578-1.719,3.578-4.289S114.531,6.5,112.383,6.5Zm-.25,7.367c-1.453,0-2.445-1.242-2.445-3.078s.992-3.078,2.445-3.078c1.484,0,2.469,1.219,2.469,3.078S113.617,13.867,112.133,13.867Zm8.918,1.211c2.367,0,3.883-1.68,3.883-4.289S123.418,6.5,121.051,6.5s-3.883,1.672-3.883,4.289S118.684,15.078,121.051,15.078Zm0-1.211c-1.562,0-2.5-1.148-2.5-3.078s.93-3.078,2.5-3.078,2.5,1.141,2.5,3.078S122.621,13.867,121.051,13.867ZM126.523,15h1.359V9.789A1.8,1.8,0,0,1,129.7,7.8a2.834,2.834,0,0,1,.742.078V6.547a3.071,3.071,0,0,0-.562-.047,2.032,2.032,0,0,0-2.039,1.445H127.8V6.578h-1.281ZM132.2,4.68v1.9h-1.172V7.7H132.2v5.109c0,1.617.594,2.25,2.117,2.25a4.917,4.917,0,0,0,.875-.07V13.844a5.631,5.631,0,0,1-.586.039c-.719,0-1.047-.352-1.047-1.125V7.7H135.2V6.578h-1.641V4.68Zm4.527,4.25c0,1.125.719,1.867,2.2,2.25l1.477.383c.961.25,1.313.563,1.313,1.156,0,.758-.719,1.234-1.867,1.234s-1.844-.461-1.984-1.32h-1.367c.133,1.461,1.445,2.445,3.258,2.445,1.945,0,3.328-1.016,3.328-2.453,0-1.227-.609-1.82-2.312-2.25l-1.281-.32c-.969-.242-1.422-.625-1.422-1.2,0-.734.7-1.227,1.734-1.227s1.719.492,1.8,1.281h1.3c-.055-1.383-1.352-2.406-3.062-2.406C138.015,6.508,136.726,7.508,136.726,8.93Z" transform="translate(1730 -3091)"/>
    <path id="path-6" data-name="path" class="cls-13" d="M7,10l5,5,5-5Z" transform="translate(1978 -3092)"/>
    <g class="cls-18" transform="matrix(1, 0, 0, 1, 0, 0)">
      <path id="rectangle-2-3" data-name="rectangle-2" class="cls-3" d="M0,0H320V50H0Z" transform="translate(1699 -2655)"/>
    </g>
    <path id="rectangle-2-4" data-name="rectangle-2" class="cls-3" d="M0,0H80V50H0Z" transform="translate(1699 -2655)"/>
    <path id="rectangle-2-5" data-name="rectangle-2" class="cls-3" d="M0,0H80V50H0Z" transform="translate(1859 -2655)"/>
    <path id="rectangle-2-6" data-name="rectangle-2" class="cls-3" d="M0,0H80V50H0Z" transform="translate(1699 -2655)"/>
    <path id="rectangle-2-7" data-name="rectangle-2" class="cls-3" d="M0,0H80V50H0Z" transform="translate(1939 -2655)"/>
    <path id="SEARCH" class="cls-4" d="M-18.14,0h1.2l-3.377-9.16h-1.13L-24.824,0h1.2l.92-2.622h3.644ZM-20.9-7.77h.038L-19.4-3.593h-2.971ZM-9.984-4.615a2.7,2.7,0,0,0-2.869-2.292c-1.873,0-3.123,1.384-3.123,3.485,0,2.152,1.257,3.485,3.136,3.485A2.687,2.687,0,0,0-9.971-2.19h-1.085A1.634,1.634,0,0,1-12.834-.92c-1.193,0-2.019-.946-2.019-2.5,0-1.511.813-2.5,2.006-2.5a1.655,1.655,0,0,1,1.777,1.308Zm7.249,0A2.7,2.7,0,0,0-5.6-6.906c-1.873,0-3.123,1.384-3.123,3.485C-8.728-1.27-7.471.063-5.592.063A2.687,2.687,0,0,0-2.723-2.19H-3.808A1.634,1.634,0,0,1-5.585-.92c-1.193,0-2.019-.946-2.019-2.5,0-1.511.813-2.5,2.006-2.5A1.655,1.655,0,0,1-3.821-4.615ZM1.676.063C3.6.063,4.831-1.3,4.831-3.421S3.6-6.906,1.676-6.906-1.479-5.548-1.479-3.421-.248.063,1.676.063Zm0-.984c-1.27,0-2.031-.933-2.031-2.5s.755-2.5,2.031-2.5S3.707-5,3.707-3.421,2.952-.92,1.676-.92ZM12.092-6.843h-1.1v3.974A1.752,1.752,0,0,1,9.185-.92c-1.073,0-1.6-.6-1.6-1.727v-4.2H6.48v4.386A2.252,2.252,0,0,0,8.848.063,2.258,2.258,0,0,0,11.025-1.13h.025V0h1.041ZM14.11,0h1.1V-3.974a1.752,1.752,0,0,1,1.8-1.949c1.079,0,1.6.609,1.6,1.727V0h1.1V-4.386a2.253,2.253,0,0,0-2.374-2.52,2.25,2.25,0,0,0-2.171,1.174h-.025V-6.843H14.11Zm7.959-8.385v1.542h-.952v.914h.952v4.151c0,1.314.482,1.828,1.72,1.828A4,4,0,0,0,24.5-.006V-.939a4.575,4.575,0,0,1-.476.032c-.584,0-.851-.286-.851-.914V-5.929h1.333v-.914H23.174V-8.385Z" transform="translate(1979 -2615.675)"/>
    <path id="path-7" data-name="path" class="cls-14" d="M450.2,988.5a14.793,14.793,0,0,1,5.3-1.1,15.237,15.237,0,0,1,5.3,1.1c1.9.7,2.7,1.7,2.7,2.9v2h-16v-2C447.5,990.2,448.4,989.3,450.2,988.5Z" transform="translate(1283.5 -3622.4)"/>
    <path id="ellipse-2" class="cls-14" d="M4,0A4,4,0,1,1,0,4,4,4,0,0,1,4,0Z" transform="translate(1735 -2645)"/>
    <path id="SEARCH-2" data-name="SEARCH" class="cls-7" d="M-21.349-8.144h2.2a1.678,1.678,0,0,1,1.892,1.752A1.634,1.634,0,0,1-19.1-4.634h-2.253Zm0,4.52H-19.1L-17.134,0h1.339l-2.12-3.8A2.616,2.616,0,0,0-16.074-6.43a2.66,2.66,0,0,0-2.92-2.729h-3.5V0h1.143Zm9.819-2.311A1.813,1.813,0,0,1-9.689-4h-3.764A1.916,1.916,0,0,1-11.53-5.935Zm1.815,3.98a1.676,1.676,0,0,1-1.72,1.047,1.958,1.958,0,0,1-2.019-2.146v-.063H-8.54v-.432c0-2.069-1.143-3.358-2.971-3.358-1.866,0-3.085,1.39-3.085,3.51S-13.383.063-11.46.063A2.694,2.694,0,0,0-8.622-1.955ZM-3.57-6.906A2.533,2.533,0,0,0-5.785-5.732h-.025V-6.843H-6.858V2.285h1.1v-3.4h.025A2.408,2.408,0,0,0-3.545.063c1.727,0,2.907-1.4,2.907-3.485S-1.824-6.906-3.57-6.906Zm-.2,5.986c-1.181,0-1.987-1.009-1.987-2.5s.806-2.5,1.987-2.5c1.206,0,2.006.99,2.006,2.5S-2.567-.92-3.773-.92ZM3.863.063C5.786.063,7.017-1.3,7.017-3.421S5.786-6.906,3.863-6.906.708-5.548.708-3.421,1.939.063,3.863.063Zm0-.984c-1.27,0-2.031-.933-2.031-2.5s.755-2.5,2.031-2.5S5.894-5,5.894-3.421,5.138-.92,3.863-.92ZM8.7,0H9.8V-4.234a1.46,1.46,0,0,1,1.473-1.612,2.3,2.3,0,0,1,.6.063V-6.868a2.5,2.5,0,0,0-.457-.038A1.651,1.651,0,0,0,9.765-5.732H9.74V-6.843H8.7Zm5-8.385v1.542h-.952v.914H13.7v4.151c0,1.314.482,1.828,1.72,1.828a4,4,0,0,0,.711-.057V-.939a4.575,4.575,0,0,1-.476.032c-.584,0-.851-.286-.851-.914V-5.929h1.333v-.914H14.8V-8.385Zm4.068,3.453c0,.914.584,1.517,1.784,1.828l1.2.311c.781.2,1.066.457,1.066.939,0,.616-.584,1-1.517,1s-1.5-.375-1.612-1.073H17.578A2.385,2.385,0,0,0,20.225.063c1.581,0,2.7-.825,2.7-1.993,0-1-.5-1.479-1.879-1.828l-1.041-.26c-.787-.2-1.155-.508-1.155-.971,0-.6.565-1,1.409-1s1.4.4,1.466,1.041h1.06A2.258,2.258,0,0,0,20.3-6.9C18.816-6.9,17.769-6.087,17.769-4.932Z" transform="translate(1739 -2615.675)"/>
    <path id="SEARCH-3" data-name="SEARCH" class="cls-4" d="M-20.406-2.52C-20.3-.9-18.953.152-17.01.152c2.107,0,3.428-1.047,3.428-2.723,0-1.314-.768-2.044-2.666-2.52l-.958-.254c-1.244-.324-1.752-.736-1.752-1.428,0-.9.825-1.511,2.012-1.511A1.852,1.852,0,0,1-14.859-6.7h1.143c-.051-1.536-1.371-2.615-3.193-2.615-1.9,0-3.237,1.066-3.237,2.59,0,1.244.749,1.987,2.438,2.418l1.174.3c1.231.317,1.771.793,1.771,1.568,0,.9-.9,1.555-2.139,1.555-1.308,0-2.247-.654-2.355-1.644ZM-9.14-5.935A1.813,1.813,0,0,1-7.3-4h-3.764A1.916,1.916,0,0,1-9.14-5.935Zm1.815,3.98A1.676,1.676,0,0,1-9.045-.908a1.958,1.958,0,0,1-2.019-2.146v-.063H-6.15v-.432c0-2.069-1.143-3.358-2.971-3.358-1.866,0-3.085,1.39-3.085,3.51S-10.993.063-9.07.063A2.694,2.694,0,0,0-6.233-1.955ZM-2.234-.9C-3.1-.9-3.65-1.308-3.65-1.942c0-.66.533-1.035,1.562-1.1L-.3-3.155V-2.6A1.778,1.778,0,0,1-2.234-.9Zm-.235.958a2.439,2.439,0,0,0,2.2-1.25h.025V0H.806V-4.7c0-1.346-1.041-2.209-2.66-2.209a2.36,2.36,0,0,0-2.59,2.038h1.06A1.418,1.418,0,0,1-1.866-5.922C-.857-5.922-.3-5.453-.3-4.6v.571l-1.917.114c-1.663.1-2.564.793-2.564,1.968A2.051,2.051,0,0,0-2.469.063ZM2.793,0H3.9V-4.234A1.46,1.46,0,0,1,5.37-5.846a2.3,2.3,0,0,1,.6.063V-6.868a2.5,2.5,0,0,0-.457-.038A1.651,1.651,0,0,0,3.859-5.732H3.834V-6.843H2.793Zm9.978-4.615A2.7,2.7,0,0,0,9.9-6.906c-1.873,0-3.123,1.384-3.123,3.485C6.779-1.27,8.035.063,9.914.063A2.687,2.687,0,0,0,12.783-2.19H11.7A1.634,1.634,0,0,1,9.921-.92C8.727-.92,7.9-1.866,7.9-3.421c0-1.511.813-2.5,2.006-2.5a1.655,1.655,0,0,1,1.777,1.308ZM14.427,0h1.1V-3.936A1.8,1.8,0,0,1,17.4-5.922,1.534,1.534,0,0,1,19.035-4.17V0h1.1V-4.367a2.315,2.315,0,0,0-2.412-2.539,2.256,2.256,0,0,0-2.171,1.174h-.025V-9.56h-1.1Z" transform="translate(1819 -2615.675)"/>
    <path id="Subtraction_1" data-name="Subtraction 1" class="cls-14" d="M-1688.036,3188.279h0a12.207,12.207,0,0,1-6.286-2.249,12.938,12.938,0,0,1-4.676-5.873,12.94,12.94,0,0,1,4.676-5.873,12.3,12.3,0,0,1,7.287-2.284,12.3,12.3,0,0,1,7.287,2.284,12.939,12.939,0,0,1,4.676,5.873,12.391,12.391,0,0,1-4.677,5.873,13.293,13.293,0,0,1-6.287,2.244v-2.662a4.94,4.94,0,0,0,2.806-1.54,5.741,5.741,0,0,0,1.632-3.807,5.1,5.1,0,0,0-1.632-3.806,5.735,5.735,0,0,0-3.806-1.632,5.1,5.1,0,0,0-3.807,1.632,5.739,5.739,0,0,0-1.631,3.806,5.311,5.311,0,0,0,1.631,3.807,5.38,5.38,0,0,0,2.807,1.537v2.668Zm1-4.859a3.145,3.145,0,0,1-2.284-.979,3.144,3.144,0,0,1-.978-2.284,3.143,3.143,0,0,1,.978-2.283,3.144,3.144,0,0,1,2.284-.979,3.143,3.143,0,0,1,2.284.979,3.143,3.143,0,0,1,.978,2.283,3.144,3.144,0,0,1-.978,2.284A3.148,3.148,0,0,1-1687.036,3183.42Z" transform="translate(3506.037 -5817)"/>
    <path id="SEARCH-4" data-name="SEARCH" class="cls-4" d="M-5.62,0V-9.16H-6.763V-5.2H-11.79V-9.16h-1.143V0h1.143V-4.17h5.027V0ZM-.733-5.935A1.813,1.813,0,0,1,1.108-4H-2.656A1.916,1.916,0,0,1-.733-5.935Zm1.815,3.98A1.676,1.676,0,0,1-.638-.908,1.958,1.958,0,0,1-2.656-3.053v-.063H2.257v-.432c0-2.069-1.143-3.358-2.971-3.358C-2.58-6.906-3.8-5.516-3.8-3.4S-2.586.063-.663.063A2.694,2.694,0,0,0,2.174-1.955ZM4,0h1.1V-9.56H4Zm6.474-6.906A2.533,2.533,0,0,0,8.261-5.732H8.235V-6.843H7.188V2.285h1.1v-3.4h.025A2.408,2.408,0,0,0,10.5.063c1.727,0,2.907-1.4,2.907-3.485S12.222-6.906,10.476-6.906Zm-.2,5.986c-1.181,0-1.987-1.009-1.987-2.5s.806-2.5,1.987-2.5c1.206,0,2.006.99,2.006,2.5S11.479-.92,10.273-.92Z" transform="translate(1899 -2615.675)"/>
    <path id="path-8" data-name="path" class="cls-14" d="M11.5,2A9.5,9.5,0,1,0,21,11.5,9.5,9.5,0,0,0,11.5,2Zm.95,16.15h-1.9v-1.9h1.9Zm1.967-7.363-.855.874A3.234,3.234,0,0,0,12.45,14.35h-1.9v-.475a3.824,3.824,0,0,1,1.112-2.689l1.178-1.2A1.858,1.858,0,0,0,13.4,8.65a1.9,1.9,0,0,0-3.8,0H7.7a3.8,3.8,0,0,1,7.6,0A3.023,3.023,0,0,1,14.417,10.787Z" transform="translate(1887 -2649)"/>
    <path id="settings-blue" class="cls-13" d="M19.028,12.431A7.207,7.207,0,0,0,19.1,11.5a7.206,7.206,0,0,0-.068-.931L21.088,9a.466.466,0,0,0,.117-.608L19.252,5.106a.5.5,0,0,0-.6-.209l-2.432.95a7.185,7.185,0,0,0-1.65-.931L14.2,2.4a.473.473,0,0,0-.479-.4H9.819a.473.473,0,0,0-.479.4L8.969,4.916a7.556,7.556,0,0,0-1.65.931L4.887,4.9a.483.483,0,0,0-.6.209L2.338,8.393A.46.46,0,0,0,2.456,9l2.061,1.568a7.333,7.333,0,0,0-.068.931,7.333,7.333,0,0,0,.068.931L2.456,14a.466.466,0,0,0-.117.608l1.953,3.287a.5.5,0,0,0,.6.209l2.432-.95a7.185,7.185,0,0,0,1.65.931L9.34,20.6a.473.473,0,0,0,.479.4h3.906a.473.473,0,0,0,.479-.4l.371-2.517a7.556,7.556,0,0,0,1.65-.931l2.432.95a.483.483,0,0,0,.6-.209l1.953-3.287A.466.466,0,0,0,21.088,14l-2.061-1.568Zm-7.256,2.394A3.326,3.326,0,1,1,15.19,11.5a3.372,3.372,0,0,1-3.418,3.325Z" transform="translate(1967.729 -2649)"/>
    <g class="cls-17" transform="matrix(1, 0, 0, 1, 0, 0)">
      <path id="rectangle-2-8" data-name="rectangle-2" class="cls-15" d="M0,0H80V50H0Z" transform="translate(1699 -2655)"/>
    </g>
    <path id="path-9" data-name="path" class="cls-3" d="M450.2,988.5a14.793,14.793,0,0,1,5.3-1.1,15.237,15.237,0,0,1,5.3,1.1c1.9.7,2.7,1.7,2.7,2.9v2h-16v-2C447.5,990.2,448.4,989.3,450.2,988.5Z" transform="translate(1283.5 -3622.4)"/>
    <path id="ellipse-2-2" data-name="ellipse-2" class="cls-3" d="M4,0A4,4,0,1,1,0,4,4,4,0,0,1,4,0Z" transform="translate(1735 -2645)"/>
    <path id="SEARCH-5" data-name="SEARCH" class="cls-16" d="M-21.349-8.144h2.2a1.678,1.678,0,0,1,1.892,1.752A1.634,1.634,0,0,1-19.1-4.634h-2.253Zm0,4.52H-19.1L-17.134,0h1.339l-2.12-3.8A2.616,2.616,0,0,0-16.074-6.43a2.66,2.66,0,0,0-2.92-2.729h-3.5V0h1.143Zm9.819-2.311A1.813,1.813,0,0,1-9.689-4h-3.764A1.916,1.916,0,0,1-11.53-5.935Zm1.815,3.98a1.676,1.676,0,0,1-1.72,1.047,1.958,1.958,0,0,1-2.019-2.146v-.063H-8.54v-.432c0-2.069-1.143-3.358-2.971-3.358-1.866,0-3.085,1.39-3.085,3.51S-13.383.063-11.46.063A2.694,2.694,0,0,0-8.622-1.955ZM-3.57-6.906A2.533,2.533,0,0,0-5.785-5.732h-.025V-6.843H-6.858V2.285h1.1v-3.4h.025A2.408,2.408,0,0,0-3.545.063c1.727,0,2.907-1.4,2.907-3.485S-1.824-6.906-3.57-6.906Zm-.2,5.986c-1.181,0-1.987-1.009-1.987-2.5s.806-2.5,1.987-2.5c1.206,0,2.006.99,2.006,2.5S-2.567-.92-3.773-.92ZM3.863.063C5.786.063,7.017-1.3,7.017-3.421S5.786-6.906,3.863-6.906.708-5.548.708-3.421,1.939.063,3.863.063Zm0-.984c-1.27,0-2.031-.933-2.031-2.5s.755-2.5,2.031-2.5S5.894-5,5.894-3.421,5.138-.92,3.863-.92ZM8.7,0H9.8V-4.234a1.46,1.46,0,0,1,1.473-1.612,2.3,2.3,0,0,1,.6.063V-6.868a2.5,2.5,0,0,0-.457-.038A1.651,1.651,0,0,0,9.765-5.732H9.74V-6.843H8.7Zm5-8.385v1.542h-.952v.914H13.7v4.151c0,1.314.482,1.828,1.72,1.828a4,4,0,0,0,.711-.057V-.939a4.575,4.575,0,0,1-.476.032c-.584,0-.851-.286-.851-.914V-5.929h1.333v-.914H14.8V-8.385Zm4.068,3.453c0,.914.584,1.517,1.784,1.828l1.2.311c.781.2,1.066.457,1.066.939,0,.616-.584,1-1.517,1s-1.5-.375-1.612-1.073H17.578A2.385,2.385,0,0,0,20.225.063c1.581,0,2.7-.825,2.7-1.993,0-1-.5-1.479-1.879-1.828l-1.041-.26c-.787-.2-1.155-.508-1.155-.971,0-.6.565-1,1.409-1s1.4.4,1.466,1.041h1.06A2.258,2.258,0,0,0,20.3-6.9C18.816-6.9,17.769-6.087,17.769-4.932Z" transform="translate(1739 -2615.675)"/>
  </g>
</svg>
