<svg viewBox="0 0 293 377" version="1.1" xmlns="http://www.w3.org/2000/svg" xmlns:xlink="http://www.w3.org/1999/xlink">
    <g id="Layer_6" fill="#1A1A1A" class="cls-1">
        <path d="M124,0.67 C55.52,0.67 0,56.18 0,124.67 C0,193.15 55.52,248.67 124,248.67 C192.48,248.67 248,193.15 248,124.67 C248,56.18 192.48,0.67 124,0.67 Z M124,215.27 C73.96,215.27 33.4,174.701 33.4,124.67 C33.4,74.63 73.96,34.07 124,34.07 C174.04,34.07 214.6,74.63 214.6,124.67 C214.6,174.7 174.04,215.27 124,215.27 Z" id="Shape"></path>
        <path d="M288.791,346.308 C294.885,355.465 292.909,367.591 284.4,373.252 C275.891,378.914 263.943,376.055 257.849,366.897 L169.208,233.693 C163.114,224.535 165.09,212.41 173.599,206.749 C182.109,201.087 194.057,203.946 200.151,213.104 L288.791,346.308 Z" id="Shape"></path>
    </g>
</svg>
