<svg xmlns="http://www.w3.org/2000/svg" xmlns:xlink="http://www.w3.org/1999/xlink" viewBox="1317 -3172 320 567">
  <defs>
    <style>
      .cls-1.cls-onboarding {
        clip-path: url(#clip-tf-search);
      }

      .cls-2 {
        fill: #ededed;
      }

      .cls-3, .cls-6 {
        fill: #fff;
      }

      .cls-4 {
        fill: #979797;
      }

      .cls-10, .cls-11, .cls-4, .cls-6, .cls-7 {
        stroke: rgba(0,0,0,0);
        stroke-width: 1px;
      }

      .cls-10, .cls-5 {
        fill: #209dd2;
      }

      .cls-7, .cls-8 {
        fill: #3e3e3e;
      }

      .cls-9 {
        fill: #57bf93;
      }

      .cls-11, .cls-12 {
        fill: #0f9cd4;
      }

      .cls-13 {
        filter: url(#rectangle-2-2);
      }

      .cls-14 {
        filter: url(#rectangle-2);
      }

      .cls-15 {
        filter: url(#rectangle-9);
      }
    </style>
    <filter id="rectangle-9" x="1308" y="-3178" width="338" height="73" filterUnits="userSpaceOnUse">
      <feOffset dy="3" input="SourceAlpha"/>
      <feGaussianBlur stdDeviation="3" result="blur"/>
      <feFlood flood-opacity="0.161"/>
      <feComposite operator="in" in2="blur"/>
      <feComposite in="SourceGraphic"/>
    </filter>
    <filter id="rectangle-2" x="1308" y="-2665" width="338" height="68" filterUnits="userSpaceOnUse">
      <feOffset dy="-2" input="SourceAlpha"/>
      <feGaussianBlur stdDeviation="3" result="blur-2"/>
      <feFlood flood-opacity="0.102"/>
      <feComposite operator="in" in2="blur-2"/>
      <feComposite in="SourceGraphic"/>
    </filter>
    <filter id="rectangle-2-2" x="1388" y="-2660" width="98" height="68" filterUnits="userSpaceOnUse">
      <feOffset dy="3" input="SourceAlpha"/>
      <feGaussianBlur stdDeviation="3" result="blur-3"/>
      <feFlood flood-opacity="0.161"/>
      <feComposite operator="in" in2="blur-3"/>
      <feComposite in="SourceGraphic"/>
    </filter>
    <clipPath id="clip-tf-search">
      <rect x="1317" y="-3172" width="320" height="567"/>
    </clipPath>
  </defs>
  <g id="tf-search" class="cls-1 cls-onboarding">
    <rect class="cls-3" x="1317" y="-3172" width="320" height="567"/>
    <path id="Path_110" data-name="Path 110" class="cls-2" d="M0,0H320V568H0Z" transform="translate(1317 -3172)"/>
    <path id="rectangle-9-2" data-name="rectangle-9" class="cls-3" d="M3,0H219.36a3,3,0,0,1,3,3V42a3,3,0,0,1-3,3H3a3,3,0,0,1-3-3V3A3,3,0,0,1,3,0Z" transform="translate(1327 -3022)"/>
    <path id="rectangle-9-3" data-name="rectangle-9" class="cls-3" d="M3,0H64.86a3,3,0,0,1,3,3V42a3,3,0,0,1-3,3H3a3,3,0,0,1-3-3V3A3,3,0,0,1,3,0Z" transform="translate(1559.143 -3022)"/>
    <path id="Person" class="cls-4" d="M2.813,0V-5.493H8.429V-6.9H2.813v-4.359H8.93v-1.424H1.23V0Zm8.533,0h1.529V-9.475H11.346Zm.765-11a.97.97,0,0,0,.967-.967.964.964,0,0,0-.967-.967.97.97,0,0,0-.967.967A.975.975,0,0,0,12.111-11ZM15.757,0h1.529V-5.862a2.022,2.022,0,0,1,2.039-2.232,3.188,3.188,0,0,1,.835.088v-1.5a3.455,3.455,0,0,0-.633-.053,2.286,2.286,0,0,0-2.294,1.626H17.2V-9.475H15.757Zm6.266-6.829c0,1.266.809,2.1,2.47,2.531l1.661.431c1.081.281,1.477.633,1.477,1.3,0,.853-.809,1.389-2.1,1.389S23.456-1.7,23.3-2.663H21.76C21.909-1.02,23.386.088,25.425.088c2.188,0,3.744-1.143,3.744-2.76,0-1.38-.686-2.048-2.6-2.531l-1.441-.36c-1.09-.272-1.6-.7-1.6-1.345,0-.826.782-1.38,1.951-1.38s1.934.554,2.03,1.441h1.468C28.914-8.4,27.455-9.554,25.53-9.554,23.473-9.554,22.023-8.429,22.023-6.829ZM32.051-11.61v2.136H30.733v1.266h1.318v5.748c0,1.819.668,2.531,2.382,2.531a5.532,5.532,0,0,0,.984-.079V-1.3a6.335,6.335,0,0,1-.659.044c-.809,0-1.178-.4-1.178-1.266V-8.209h1.846V-9.475H33.58V-11.61Z" transform="translate(1342 -2993)"/>
    <path id="rectangle-9-4" data-name="rectangle-9" class="cls-5" d="M3,0H297a3,3,0,0,1,3,3V42a3,3,0,0,1-3,3H3a3,3,0,0,1-3-3V3A3,3,0,0,1,3,0Z" transform="translate(1327 -2791)"/>
    <path id="Person-2" data-name="Person" class="cls-6" d="M-30.774-3.1c.133,1.992,1.789,3.289,4.18,3.289,2.594,0,4.219-1.289,4.219-3.352,0-1.617-.945-2.516-3.281-3.1l-1.18-.312c-1.531-.4-2.156-.906-2.156-1.758,0-1.1,1.016-1.859,2.477-1.859a2.279,2.279,0,0,1,2.57,1.953h1.406c-.062-1.891-1.687-3.219-3.93-3.219-2.344,0-3.984,1.313-3.984,3.188,0,1.531.922,2.445,3,2.977l1.445.375c1.516.391,2.18.977,2.18,1.93,0,1.109-1.109,1.914-2.633,1.914-1.609,0-2.766-.8-2.9-2.023Zm17.5,1.836h-5.578V-5.141h5.289v-1.25h-5.289v-3.617h5.578v-1.266h-6.984V0h6.984ZM-3.611,0h1.477L-6.291-11.273H-7.681L-11.838,0h1.477l1.133-3.227h4.484Zm-3.4-9.562h.047l1.8,5.141H-8.814Zm8.05-.461H3.752A2.066,2.066,0,0,1,6.08-7.867,2.012,2.012,0,0,1,3.814-5.7H1.041Zm0,5.563H3.814L6.228,0H7.877L5.267-4.68A3.219,3.219,0,0,0,7.533-7.914a3.273,3.273,0,0,0-3.594-3.359h-4.3V0H1.041ZM14.419.188c2.492,0,4.164-1.242,4.68-3.469H17.677a3.11,3.11,0,0,1-3.25,2.172c-2.227,0-3.641-1.766-3.641-4.531,0-2.742,1.43-4.523,3.633-4.523a3.225,3.225,0,0,1,3.258,2.445H19.1a4.477,4.477,0,0,0-4.68-3.742c-3.086,0-5.078,2.281-5.078,5.82C9.341-2.07,11.31.188,14.419.188ZM30.235,0V-11.273H28.829V-6.4H22.641v-4.875H21.235V0h1.406V-5.133h6.188V0Z" transform="translate(1477 -2763)"/>
    <path id="rectangle-9-5" data-name="rectangle-9" class="cls-3" d="M3,0H297.36a3,3,0,0,1,3,3V42a3,3,0,0,1-3,3H3a3,3,0,0,1-3-3V3A3,3,0,0,1,3,0Z" transform="translate(1327 -2939)"/>
    <path id="rectangle-9-6" data-name="rectangle-9" class="cls-3" d="M3,0H219.36a3,3,0,0,1,3,3V42a3,3,0,0,1-3,3H3a3,3,0,0,1-3-3V3A3,3,0,0,1,3,0Z" transform="translate(1327 -2855)"/>
    <path id="rectangle-9-7" data-name="rectangle-9" class="cls-3" d="M3,0H64.86a3,3,0,0,1,3,3V42a3,3,0,0,1-3,3H3a3,3,0,0,1-3-3V3A3,3,0,0,1,3,0Z" transform="translate(1559.143 -2855)"/>
    <path id="Person-3" data-name="Person" class="cls-4" d="M13.729,0V-12.683H11.892L7.515-2.1h-.07L3.067-12.683H1.23V0H2.707V-9.773h.062L6.812-.088H8.147L12.19-9.773h.062V0Z" transform="translate(1569 -2993)"/>
    <path id="Person-4" data-name="Person" class="cls-4" d="M8.93-1.424H2.813V-12.683H1.23V0h7.7Zm5.361.185c-1.2,0-1.96-.571-1.96-1.45,0-.914.738-1.433,2.162-1.521l2.479-.158V-3.6A2.462,2.462,0,0,1,14.29-1.239ZM13.965.088a3.377,3.377,0,0,0,3.05-1.731h.035V0H18.5V-6.5c0-1.863-1.441-3.059-3.683-3.059-1.986,0-3.542,1.222-3.586,2.821H12.7A1.963,1.963,0,0,1,14.8-8.2c1.4,0,2.171.65,2.171,1.828v.791l-2.654.158c-2.3.141-3.551,1.1-3.551,2.725C10.766-1.02,12.04.088,13.965.088Zm7.127-6.917c0,1.266.809,2.1,2.47,2.531l1.661.431c1.081.281,1.477.633,1.477,1.3,0,.853-.809,1.389-2.1,1.389S22.525-1.7,22.367-2.663H20.829C20.978-1.02,22.455.088,24.494.088c2.188,0,3.744-1.143,3.744-2.76,0-1.38-.686-2.048-2.6-2.531l-1.441-.36c-1.09-.272-1.6-.7-1.6-1.345,0-.826.782-1.38,1.951-1.38s1.934.554,2.03,1.441h1.468C27.983-8.4,26.524-9.554,24.6-9.554,22.543-9.554,21.092-8.429,21.092-6.829ZM31.12-11.61v2.136H29.8v1.266H31.12v5.748C31.12-.642,31.788.07,33.5.07a5.532,5.532,0,0,0,.984-.079V-1.3a6.335,6.335,0,0,1-.659.044c-.809,0-1.178-.4-1.178-1.266V-8.209h1.846V-9.475H32.649V-11.61Z" transform="translate(1342 -2910)"/>
    <path id="Person-5" data-name="Person" class="cls-4" d="M6.451.211c2.8,0,4.685-1.4,5.265-3.9h-1.6A3.5,3.5,0,0,1,6.46-1.248c-2.5,0-4.1-1.986-4.1-5.1,0-3.085,1.608-5.089,4.087-5.089a3.628,3.628,0,0,1,3.665,2.751h1.6a5.037,5.037,0,0,0-5.265-4.21c-3.472,0-5.713,2.566-5.713,6.548C.738-2.329,2.953.211,6.451.211ZM14.194,0h1.529V-9.475H14.194Zm.765-11a.97.97,0,0,0,.967-.967.964.964,0,0,0-.967-.967.97.97,0,0,0-.967.967A.975.975,0,0,0,14.958-11Zm4.148-.606v2.136H17.788v1.266h1.318v5.748c0,1.819.668,2.531,2.382,2.531a5.532,5.532,0,0,0,.984-.079V-1.3a6.335,6.335,0,0,1-.659.044c-.809,0-1.178-.4-1.178-1.266V-8.209h1.846V-9.475H20.635V-11.61Zm6.6,15.047c1.679,0,2.435-.659,3.243-2.856L32.658-9.475H31.05L28.4-1.556H28.36L25.706-9.475H24.08L27.587.009,27.4.571c-.387,1.143-.861,1.564-1.74,1.564a3.514,3.514,0,0,1-.624-.053V3.375A4.2,4.2,0,0,0,25.706,3.437Z" transform="translate(1342 -2826)"/>
    <path id="Person-6" data-name="Person" class="cls-4" d="M9.475,0h1.661L6.46-12.683H4.9L.22,0H1.881L3.155-3.63H8.2ZM5.651-10.758H5.7l2.03,5.783H3.621ZM13.2,0H14.73V-13.236H13.2Zm4.5,0h1.529V-13.236H17.7Z" transform="translate(1569 -2826)"/>
    <path id="_7605867022" data-name="7605867022" class="cls-7" d="M1.719,0V-3.357H5.151v-.859H1.719V-6.88H5.457v-.87H.752V0ZM7.965,0V-7.75H7V0Zm2.911-6.891h1.864a1.42,1.42,0,0,1,1.6,1.482,1.383,1.383,0,0,1-1.558,1.488H10.876Zm0,3.824h1.907L14.442,0h1.133L13.781-3.217a2.213,2.213,0,0,0,1.558-2.224,2.251,2.251,0,0,0-2.471-2.31H9.909V0h.967Zm5.747.935C16.714-.763,17.852.129,19.5.129c1.783,0,2.9-.886,2.9-2.3,0-1.112-.65-1.729-2.256-2.132l-.811-.215c-1.053-.274-1.482-.623-1.482-1.208,0-.757.7-1.278,1.7-1.278a1.567,1.567,0,0,1,1.767,1.343h.967a2.438,2.438,0,0,0-2.7-2.213c-1.611,0-2.739.9-2.739,2.191,0,1.053.634,1.681,2.063,2.046l.994.258c1.042.269,1.5.671,1.5,1.327,0,.763-.763,1.316-1.81,1.316-1.106,0-1.9-.553-1.993-1.391ZM26.945,0V-6.88h2.5v-.87H23.481v.87h2.5V0Zm7.986,0V-6.064h.048L39.223,0h.94V-7.75h-.956v6.085h-.048L34.915-7.75h-.94V0ZM47.144,0H48.16L45.3-7.75h-.956L41.489,0H42.5l.779-2.218h3.083ZM44.808-6.574h.032L46.081-3.04H43.567ZM57.124,0V-7.75H56L53.326-1.284h-.043L50.608-7.75H49.486V0h.9V-5.973h.038L52.9-.054h.816l2.471-5.919h.038V0Zm6.746-.87H60.034V-3.534H63.67v-.859H60.034V-6.88h3.835v-.87h-4.8V0h4.8Z" transform="translate(1327 -3032)"/>
    <path id="_7605867022-2" data-name="7605867022" class="cls-7" d="M5.457-.87H1.719V-7.75H.752V0H5.457ZM12,0h1.015L10.156-7.75H9.2L6.343,0H7.358l.779-2.218H11.22ZM9.662-6.574h.032L10.935-3.04H8.421Zm4.307,4.442C14.061-.763,15.2.129,16.843.129c1.783,0,2.9-.886,2.9-2.3,0-1.112-.65-1.729-2.256-2.132l-.811-.215c-1.053-.274-1.482-.623-1.482-1.208,0-.757.7-1.278,1.7-1.278a1.567,1.567,0,0,1,1.767,1.343h.967a2.438,2.438,0,0,0-2.7-2.213c-1.611,0-2.739.9-2.739,2.191,0,1.053.634,1.681,2.063,2.046l.994.258c1.042.269,1.5.671,1.5,1.327,0,.763-.763,1.316-1.81,1.316-1.106,0-1.9-.553-1.993-1.391ZM24.292,0V-6.88h2.5v-.87H20.828v.87h2.5V0Zm7.986,0V-6.064h.048L36.57,0h.94V-7.75h-.956v6.085h-.048L32.262-7.75h-.94V0ZM44.492,0h1.015L42.649-7.75h-.956L38.836,0h1.015l.779-2.218h3.083ZM42.155-6.574h.032L43.428-3.04H40.914ZM54.471,0V-7.75H53.348L50.673-1.284H50.63L47.955-7.75H46.833V0h.9V-5.973h.038L50.244-.054h.816l2.471-5.919h.038V0Zm6.746-.87H57.381V-3.534h3.636v-.859H57.381V-6.88h3.835v-.87h-4.8V0h4.8Z" transform="translate(1327 -2949)"/>
    <path id="_7605867022-3" data-name="7605867022" class="cls-7" d="M3.942.129A3,3,0,0,0,7.16-2.256H6.182A2.138,2.138,0,0,1,3.948-.763c-1.531,0-2.5-1.214-2.5-3.115,0-1.885.983-3.11,2.5-3.11a2.217,2.217,0,0,1,2.24,1.681H7.16A3.078,3.078,0,0,0,3.942-7.879c-2.122,0-3.491,1.568-3.491,4C.451-1.423,1.8.129,3.942.129ZM9.705,0V-7.75H8.738V0ZM14.63,0V-6.88h2.5v-.87H11.166v.87h2.5V0Zm7.057,0V-3.335l2.75-4.415h-1.1L21.22-4.27h-.032L19.071-7.75h-1.1l2.75,4.415V0Z" transform="translate(1327 -2866)"/>
    <path id="_7605867022-4" data-name="7605867022" class="cls-7" d="M8.39,0V-7.75H7.267L4.592-1.284H4.549L1.875-7.75H.752V0h.9V-5.973h.038L4.163-.054h.816L7.45-5.973h.038V0ZM11.3,0V-7.75h-.967V0Zm1.944-7.75V0H15.9c2.3,0,3.658-1.434,3.658-3.878S18.2-7.75,15.9-7.75Zm.967.87h1.627c1.762,0,2.734,1.074,2.734,3.013,0,1.923-.978,3-2.734,3H14.211ZM25.237,0V-7.75H24.27V0Zm2.9,0V-6.064h.048L32.429,0h.94V-7.75h-.956v6.085h-.048L28.121-7.75h-.94V0Zm8.142,0V-7.75h-.967V0ZM41.2,0V-6.88h2.5v-.87H37.74v.87h2.5V0Zm7.922,0h1.015L47.284-7.75h-.956L43.47,0h1.015l.779-2.218h3.083ZM46.79-6.574h.032L48.062-3.04H45.549Zm9.383,5.7H52.434V-7.75h-.967V0h4.705Z" transform="translate(1559 -3032)"/>
    <path id="_7605867022-5" data-name="7605867022" class="cls-7" d="M.381-2.132C.473-.763,1.611.129,3.255.129c1.783,0,2.9-.886,2.9-2.3,0-1.112-.65-1.729-2.256-2.132l-.811-.215C2.036-4.8,1.606-5.146,1.606-5.731c0-.757.7-1.278,1.7-1.278A1.567,1.567,0,0,1,5.076-5.667h.967a2.438,2.438,0,0,0-2.7-2.213C1.729-7.879.6-6.977.6-5.688c0,1.053.634,1.681,2.063,2.046l.994.258c1.042.269,1.5.671,1.5,1.327,0,.763-.763,1.316-1.81,1.316-1.106,0-1.9-.553-1.993-1.391ZM10.7,0V-6.88h2.5v-.87H7.24v.87h2.5V0Zm7.922,0h1.015L16.784-7.75h-.956L12.97,0h1.015l.779-2.218h3.083ZM16.29-6.574h.032L17.563-3.04H15.049ZM22.874,0V-6.88h2.5v-.87H19.41v.87h2.5V0Zm8.76-.87H27.8V-3.534h3.636v-.859H27.8V-6.88h3.835v-.87h-4.8V0h4.8Z" transform="translate(1559 -2866)"/>
    <path id="rectangle-10" class="cls-8" d="M1.207,1.207,8.5,2.525,2.525,8.5Z" transform="translate(1612 -2843.707) rotate(45)"/>
    <path id="rectangle-10-2" data-name="rectangle-10" class="cls-8" d="M1.207,1.207,8.5,2.525,2.525,8.5Z" transform="translate(1612 -2821.979) rotate(-135)"/>
    <path id="rectangle-9-8" data-name="rectangle-9" class="cls-3" d="M0,0H320V57H0Z" transform="translate(1317 -3117)"/>
    <g class="cls-15" transform="matrix(1, 0, 0, 1, 0, 0)">
      <path id="rectangle-9-9" data-name="rectangle-9" class="cls-3" d="M0,0H320V55H0Z" transform="translate(1317 -3172)"/>
    </g>
    <path id="rectangle-9-10" data-name="rectangle-9" class="cls-2" d="M3.008.5H297.992A2.548,2.548,0,0,1,300.5,3.086V27.914a2.548,2.548,0,0,1-2.508,2.586H3.008A2.548,2.548,0,0,1,.5,27.914V3.086A2.548,2.548,0,0,1,3.008.5Z" transform="translate(1327 -3100.466)"/>
    <path id="rectangle-26" class="cls-9" d="M3,0H99V30H3a3,3,0,0,1-3-3V3A3,3,0,0,1,3,0Z" transform="translate(1327 -3099.966)"/>
    <path id="Person-7" data-name="Person" class="cls-6" d="M-23.831-8.455V0h1.77V-2.666h1.67a2.811,2.811,0,0,0,3.018-2.895A2.762,2.762,0,0,0-20.3-8.455Zm1.77,1.4h1.289a1.41,1.41,0,0,1,1.6,1.5,1.416,1.416,0,0,1-1.605,1.506h-1.283Zm11.692,5.59H-14.2V-3.6h3.615V-4.957H-14.2V-7h3.832V-8.455h-5.6V0h5.6Zm3.407-5.607h1.535A1.3,1.3,0,0,1-4-5.725,1.269,1.269,0,0,1-5.409-4.377H-6.962Zm0,3.979h1.447L-3.939,0h2L-3.716-3.357a2.485,2.485,0,0,0,1.535-2.4c0-1.67-1.113-2.7-3.059-2.7H-8.732V0h1.77Zm5.985.686C-.924-.82.37.146,2.4.146c2.1,0,3.428-1.037,3.428-2.678,0-1.289-.738-2.016-2.432-2.379L2.374-5.127C1.4-5.35.992-5.643.992-6.164c0-.627.586-1.043,1.459-1.043s1.512.434,1.57,1.148H5.679C5.65-7.588,4.413-8.6,2.445-8.6.558-8.6-.79-7.57-.79-6.012c0,1.236.768,2.027,2.326,2.361l1.1.24c1.02.229,1.424.533,1.424,1.084,0,.621-.645,1.072-1.588,1.072S.81-1.711.728-2.408ZM11.09-8.6C8.582-8.6,7.012-6.92,7.012-4.225S8.582.146,11.09.146s4.078-1.682,4.078-4.371S13.592-8.6,11.09-8.6Zm0,1.477c1.383,0,2.268,1.125,2.268,2.9s-.885,2.889-2.268,2.889S8.816-2.455,8.816-4.225,9.707-7.125,11.09-7.125ZM18.358,0V-5.537h.053L22.366,0h1.465V-8.455H22.137v5.508H22.09L18.141-8.455H16.665V0Z" transform="translate(1377 -3080.966)"/>
    <path id="Person-8" data-name="Person" class="cls-10" d="M-12.02-1.465h-3.832V-3.6h3.615V-4.957h-3.615V-7h3.832V-8.455h-5.6V0h5.6ZM-1.429,0V-8.455H-3.48l-2.4,5.994h-.047l-2.4-5.994h-2.051V0h1.576V-5.707h.047l2.3,5.625h1.113l2.3-5.625h.047V0Zm7.3,0H7.755L4.813-8.455H2.733L-.2,0H1.614l.645-2.051H5.229ZM3.724-6.838h.041L4.849-3.375H2.64ZM10.746,0V-8.455H8.976V0Zm7.233-1.465h-3.7v-6.99h-1.77V0h5.467Z" transform="translate(1577 -3080.966)"/>
    <path id="rectangle-9-11" data-name="rectangle-9" class="cls-3" d="M0,0H1V34.068H0Z" transform="translate(1526 -3102)"/>
    <path id="Person-9" data-name="Person" class="cls-10" d="M-20.384-8.455V0h1.77V-2.666h1.67a2.811,2.811,0,0,0,3.018-2.895,2.762,2.762,0,0,0-2.93-2.895Zm1.77,1.4h1.289a1.41,1.41,0,0,1,1.6,1.5,1.416,1.416,0,0,1-1.605,1.506h-1.283ZM-5.176,0V-8.455h-1.77v3.434h-3.809V-8.455h-1.77V0h1.77V-3.562h3.809V0ZM.4-8.6C-2.1-8.6-3.674-6.92-3.674-4.225S-2.1.146.4.146,4.482-1.535,4.482-4.225,2.906-8.6.4-8.6Zm0,1.477c1.383,0,2.268,1.125,2.268,2.9S1.787-1.336.4-1.336-1.869-2.455-1.869-4.225-.979-7.125.4-7.125ZM7.673,0V-5.537h.053L11.68,0h1.465V-8.455H11.452v5.508H11.4L7.456-8.455H5.979V0Zm12.84-1.465H16.681V-3.6H20.3V-4.957H16.681V-7h3.832V-8.455h-5.6V0h5.6Z" transform="translate(1476 -3080.966)"/>
    <path id="Person-10" data-name="Person" class="cls-7" d="M-35.681-3.612C-35.6-1.23-33.659.22-30.61.22c3.146,0,5.142-1.556,5.142-4.017,0-1.934-1.107-3.023-3.647-3.568l-1.538-.325c-1.459-.334-2.074-.773-2.074-1.556,0-.94.879-1.564,2.188-1.564,1.327,0,2.268.65,2.355,1.723H-25.7c-.044-2.294-1.9-3.814-4.852-3.814-2.83,0-4.852,1.547-4.852,3.885,0,1.854,1.151,3.041,3.489,3.542l1.652.36c1.529.343,2.136.8,2.136,1.626,0,.932-.967,1.608-2.382,1.608s-2.5-.686-2.619-1.731ZM-15.26-2.2h-5.748V-5.4h5.423V-7.436h-5.423v-3.059h5.748v-2.188h-8.4V0h8.4ZM-4.858,0h2.821L-6.449-12.683h-3.12L-13.972,0h2.725l.967-3.076h4.456ZM-8.084-10.257h.062L-6.4-5.062H-9.71ZM2.09-10.608h2.3A1.945,1.945,0,0,1,6.537-8.587,1.9,1.9,0,0,1,4.419-6.565H2.09Zm0,5.968H4.26L6.625,0H9.631L6.959-5.036a3.728,3.728,0,0,0,2.3-3.6c0-2.5-1.67-4.043-4.588-4.043H-.565V0H2.09ZM16.789.22C19.9.22,22.071-1.573,22.37-4.4H19.786A2.864,2.864,0,0,1,16.8-1.978c-2.03,0-3.3-1.67-3.3-4.377,0-2.672,1.292-4.351,3.3-4.351A2.938,2.938,0,0,1,19.777-8.13h2.584c-.2-2.839-2.522-4.772-5.572-4.772-3.674,0-6,2.47-6,6.557S13.1.22,16.789.22ZM35.206,0V-12.683H32.552v5.15H26.839v-5.15H24.185V0h2.654V-5.344h5.713V0Z" transform="translate(1477 -3138)"/>
    <g class="cls-14" transform="matrix(1, 0, 0, 1, 0, 0)">
      <path id="rectangle-2-3" data-name="rectangle-2" class="cls-3" d="M0,0H320V50H0Z" transform="translate(1317 -2654)"/>
    </g>
    <path id="rectangle-2-4" data-name="rectangle-2" class="cls-3" d="M0,0H80V50H0Z" transform="translate(1317 -2654)"/>
    <path id="rectangle-2-5" data-name="rectangle-2" class="cls-3" d="M0,0H80V50H0Z" transform="translate(1477 -2654)"/>
    <path id="rectangle-2-6" data-name="rectangle-2" class="cls-3" d="M0,0H80V50H0Z" transform="translate(1317 -2654)"/>
    <path id="rectangle-2-7" data-name="rectangle-2" class="cls-3" d="M0,0H80V50H0Z" transform="translate(1557 -2654)"/>
    <path id="SEARCH" class="cls-10" d="M-18.14,0h1.2l-3.377-9.16h-1.13L-24.824,0h1.2l.92-2.622h3.644ZM-20.9-7.77h.038L-19.4-3.593h-2.971ZM-9.984-4.615a2.7,2.7,0,0,0-2.869-2.292c-1.873,0-3.123,1.384-3.123,3.485,0,2.152,1.257,3.485,3.136,3.485A2.687,2.687,0,0,0-9.971-2.19h-1.085A1.634,1.634,0,0,1-12.834-.92c-1.193,0-2.019-.946-2.019-2.5,0-1.511.813-2.5,2.006-2.5a1.655,1.655,0,0,1,1.777,1.308Zm7.249,0A2.7,2.7,0,0,0-5.6-6.906c-1.873,0-3.123,1.384-3.123,3.485C-8.728-1.27-7.471.063-5.592.063A2.687,2.687,0,0,0-2.723-2.19H-3.808A1.634,1.634,0,0,1-5.585-.92c-1.193,0-2.019-.946-2.019-2.5,0-1.511.813-2.5,2.006-2.5A1.655,1.655,0,0,1-3.821-4.615ZM1.676.063C3.6.063,4.831-1.3,4.831-3.421S3.6-6.906,1.676-6.906-1.479-5.548-1.479-3.421-.248.063,1.676.063Zm0-.984c-1.27,0-2.031-.933-2.031-2.5s.755-2.5,2.031-2.5S3.707-5,3.707-3.421,2.952-.92,1.676-.92ZM12.092-6.843h-1.1v3.974A1.752,1.752,0,0,1,9.185-.92c-1.073,0-1.6-.6-1.6-1.727v-4.2H6.48v4.386A2.252,2.252,0,0,0,8.848.063,2.258,2.258,0,0,0,11.025-1.13h.025V0h1.041ZM14.11,0h1.1V-3.974a1.752,1.752,0,0,1,1.8-1.949c1.079,0,1.6.609,1.6,1.727V0h1.1V-4.386a2.253,2.253,0,0,0-2.374-2.52,2.25,2.25,0,0,0-2.171,1.174h-.025V-6.843H14.11Zm7.959-8.385v1.542h-.952v.914h.952v4.151c0,1.314.482,1.828,1.72,1.828A4,4,0,0,0,24.5-.006V-.939a4.575,4.575,0,0,1-.476.032c-.584,0-.851-.286-.851-.914V-5.929h1.333v-.914H23.174V-8.385Z" transform="translate(1597 -2614.675)"/>
    <path id="path" class="cls-5" d="M450.2,988.5a14.793,14.793,0,0,1,5.3-1.1,15.237,15.237,0,0,1,5.3,1.1c1.9.7,2.7,1.7,2.7,2.9v2h-16v-2C447.5,990.2,448.4,989.3,450.2,988.5Z" transform="translate(901.5 -3621.4)"/>
    <path id="ellipse-2" class="cls-5" d="M4,0A4,4,0,1,1,0,4,4,4,0,0,1,4,0Z" transform="translate(1353 -2644)"/>
    <path id="SEARCH-2" data-name="SEARCH" class="cls-11" d="M-21.349-8.144h2.2a1.678,1.678,0,0,1,1.892,1.752A1.634,1.634,0,0,1-19.1-4.634h-2.253Zm0,4.52H-19.1L-17.134,0h1.339l-2.12-3.8A2.616,2.616,0,0,0-16.074-6.43a2.66,2.66,0,0,0-2.92-2.729h-3.5V0h1.143Zm9.819-2.311A1.813,1.813,0,0,1-9.689-4h-3.764A1.916,1.916,0,0,1-11.53-5.935Zm1.815,3.98a1.676,1.676,0,0,1-1.72,1.047,1.958,1.958,0,0,1-2.019-2.146v-.063H-8.54v-.432c0-2.069-1.143-3.358-2.971-3.358-1.866,0-3.085,1.39-3.085,3.51S-13.383.063-11.46.063A2.694,2.694,0,0,0-8.622-1.955ZM-3.57-6.906A2.533,2.533,0,0,0-5.785-5.732h-.025V-6.843H-6.858V2.285h1.1v-3.4h.025A2.408,2.408,0,0,0-3.545.063c1.727,0,2.907-1.4,2.907-3.485S-1.824-6.906-3.57-6.906Zm-.2,5.986c-1.181,0-1.987-1.009-1.987-2.5s.806-2.5,1.987-2.5c1.206,0,2.006.99,2.006,2.5S-2.567-.92-3.773-.92ZM3.863.063C5.786.063,7.017-1.3,7.017-3.421S5.786-6.906,3.863-6.906.708-5.548.708-3.421,1.939.063,3.863.063Zm0-.984c-1.27,0-2.031-.933-2.031-2.5s.755-2.5,2.031-2.5S5.894-5,5.894-3.421,5.138-.92,3.863-.92ZM8.7,0H9.8V-4.234a1.46,1.46,0,0,1,1.473-1.612,2.3,2.3,0,0,1,.6.063V-6.868a2.5,2.5,0,0,0-.457-.038A1.651,1.651,0,0,0,9.765-5.732H9.74V-6.843H8.7Zm5-8.385v1.542h-.952v.914H13.7v4.151c0,1.314.482,1.828,1.72,1.828a4,4,0,0,0,.711-.057V-.939a4.575,4.575,0,0,1-.476.032c-.584,0-.851-.286-.851-.914V-5.929h1.333v-.914H14.8V-8.385Zm4.068,3.453c0,.914.584,1.517,1.784,1.828l1.2.311c.781.2,1.066.457,1.066.939,0,.616-.584,1-1.517,1s-1.5-.375-1.612-1.073H17.578A2.385,2.385,0,0,0,20.225.063c1.581,0,2.7-.825,2.7-1.993,0-1-.5-1.479-1.879-1.828l-1.041-.26c-.787-.2-1.155-.508-1.155-.971,0-.6.565-1,1.409-1s1.4.4,1.466,1.041h1.06A2.258,2.258,0,0,0,20.3-6.9C18.816-6.9,17.769-6.087,17.769-4.932Z" transform="translate(1357 -2614.675)"/>
    <path id="SEARCH-3" data-name="SEARCH" class="cls-10" d="M-20.406-2.52C-20.3-.9-18.953.152-17.01.152c2.107,0,3.428-1.047,3.428-2.723,0-1.314-.768-2.044-2.666-2.52l-.958-.254c-1.244-.324-1.752-.736-1.752-1.428,0-.9.825-1.511,2.012-1.511A1.852,1.852,0,0,1-14.859-6.7h1.143c-.051-1.536-1.371-2.615-3.193-2.615-1.9,0-3.237,1.066-3.237,2.59,0,1.244.749,1.987,2.438,2.418l1.174.3c1.231.317,1.771.793,1.771,1.568,0,.9-.9,1.555-2.139,1.555-1.308,0-2.247-.654-2.355-1.644ZM-9.14-5.935A1.813,1.813,0,0,1-7.3-4h-3.764A1.916,1.916,0,0,1-9.14-5.935Zm1.815,3.98A1.676,1.676,0,0,1-9.045-.908a1.958,1.958,0,0,1-2.019-2.146v-.063H-6.15v-.432c0-2.069-1.143-3.358-2.971-3.358-1.866,0-3.085,1.39-3.085,3.51S-10.993.063-9.07.063A2.694,2.694,0,0,0-6.233-1.955ZM-2.234-.9C-3.1-.9-3.65-1.308-3.65-1.942c0-.66.533-1.035,1.562-1.1L-.3-3.155V-2.6A1.778,1.778,0,0,1-2.234-.9Zm-.235.958a2.439,2.439,0,0,0,2.2-1.25h.025V0H.806V-4.7c0-1.346-1.041-2.209-2.66-2.209a2.36,2.36,0,0,0-2.59,2.038h1.06A1.418,1.418,0,0,1-1.866-5.922C-.857-5.922-.3-5.453-.3-4.6v.571l-1.917.114c-1.663.1-2.564.793-2.564,1.968A2.051,2.051,0,0,0-2.469.063ZM2.793,0H3.9V-4.234A1.46,1.46,0,0,1,5.37-5.846a2.3,2.3,0,0,1,.6.063V-6.868a2.5,2.5,0,0,0-.457-.038A1.651,1.651,0,0,0,3.859-5.732H3.834V-6.843H2.793Zm9.978-4.615A2.7,2.7,0,0,0,9.9-6.906c-1.873,0-3.123,1.384-3.123,3.485C6.779-1.27,8.035.063,9.914.063A2.687,2.687,0,0,0,12.783-2.19H11.7A1.634,1.634,0,0,1,9.921-.92C8.727-.92,7.9-1.866,7.9-3.421c0-1.511.813-2.5,2.006-2.5a1.655,1.655,0,0,1,1.777,1.308ZM14.427,0h1.1V-3.936A1.8,1.8,0,0,1,17.4-5.922,1.534,1.534,0,0,1,19.035-4.17V0h1.1V-4.367a2.315,2.315,0,0,0-2.412-2.539,2.256,2.256,0,0,0-2.171,1.174h-.025V-9.56h-1.1Z" transform="translate(1437 -2614.675)"/>
    <path id="path-2" data-name="path" class="cls-5" d="M707.876,632.184a12.767,12.767,0,0,1,14.574,0,12.989,12.989,0,0,1,4.677,5.873,12.446,12.446,0,0,1-4.677,5.873,13.14,13.14,0,0,1-7.287,2.284,12.335,12.335,0,0,1-7.287-2.284,12.987,12.987,0,0,1-4.676-5.873A12.988,12.988,0,0,1,707.876,632.184Zm3.48,9.788a5.277,5.277,0,0,0,3.807,1.631,5.1,5.1,0,0,0,3.806-1.631,5.751,5.751,0,0,0,1.631-3.807,5.1,5.1,0,0,0-1.631-3.807,5.751,5.751,0,0,0-3.806-1.631,5.1,5.1,0,0,0-3.807,1.631,5.752,5.752,0,0,0-1.631,3.807A5.276,5.276,0,0,0,711.357,641.972Zm1.523-6.2a3.154,3.154,0,1,1-.979,2.284A3.131,3.131,0,0,1,712.879,635.773Z" transform="translate(721.837 -3273.9)"/>
    <path id="rectangle-3" class="cls-5" d="M0,0H2V3.35H0Z" transform="translate(1436 -2630.949)"/>
    <path id="SEARCH-4" data-name="SEARCH" class="cls-10" d="M-5.62,0V-9.16H-6.763V-5.2H-11.79V-9.16h-1.143V0h1.143V-4.17h5.027V0ZM-.733-5.935A1.813,1.813,0,0,1,1.108-4H-2.656A1.916,1.916,0,0,1-.733-5.935Zm1.815,3.98A1.676,1.676,0,0,1-.638-.908,1.958,1.958,0,0,1-2.656-3.053v-.063H2.257v-.432c0-2.069-1.143-3.358-2.971-3.358C-2.58-6.906-3.8-5.516-3.8-3.4S-2.586.063-.663.063A2.694,2.694,0,0,0,2.174-1.955ZM4,0h1.1V-9.56H4Zm6.474-6.906A2.533,2.533,0,0,0,8.261-5.732H8.235V-6.843H7.188V2.285h1.1v-3.4h.025A2.408,2.408,0,0,0,10.5.063c1.727,0,2.907-1.4,2.907-3.485S12.222-6.906,10.476-6.906Zm-.2,5.986c-1.181,0-1.987-1.009-1.987-2.5s.806-2.5,1.987-2.5c1.206,0,2.006.99,2.006,2.5S11.479-.92,10.273-.92Z" transform="translate(1517 -2614.675)"/>
    <path id="path-3" data-name="path" class="cls-5" d="M11.5,2A9.5,9.5,0,1,0,21,11.5,9.5,9.5,0,0,0,11.5,2Zm.95,16.15h-1.9v-1.9h1.9Zm1.967-7.363-.855.874A3.234,3.234,0,0,0,12.45,14.35h-1.9v-.475a3.824,3.824,0,0,1,1.112-2.689l1.178-1.2A1.858,1.858,0,0,0,13.4,8.65a1.9,1.9,0,0,0-3.8,0H7.7a3.8,3.8,0,0,1,7.6,0A3.023,3.023,0,0,1,14.417,10.787Z" transform="translate(1505 -2648)"/>
    <path id="settings-blue" class="cls-12" d="M19.028,12.431A7.207,7.207,0,0,0,19.1,11.5a7.206,7.206,0,0,0-.068-.931L21.088,9a.466.466,0,0,0,.117-.608L19.252,5.106a.5.5,0,0,0-.6-.209l-2.432.95a7.185,7.185,0,0,0-1.65-.931L14.2,2.4a.473.473,0,0,0-.479-.4H9.819a.473.473,0,0,0-.479.4L8.969,4.916a7.556,7.556,0,0,0-1.65.931L4.887,4.9a.483.483,0,0,0-.6.209L2.338,8.393A.46.46,0,0,0,2.456,9l2.061,1.568a7.333,7.333,0,0,0-.068.931,7.333,7.333,0,0,0,.068.931L2.456,14a.466.466,0,0,0-.117.608l1.953,3.287a.5.5,0,0,0,.6.209l2.432-.95a7.185,7.185,0,0,0,1.65.931L9.34,20.6a.473.473,0,0,0,.479.4h3.906a.473.473,0,0,0,.479-.4l.371-2.517a7.556,7.556,0,0,0,1.65-.931l2.432.95a.483.483,0,0,0,.6-.209l1.953-3.287A.466.466,0,0,0,21.088,14l-2.061-1.568Zm-7.256,2.394A3.326,3.326,0,1,1,15.19,11.5a3.372,3.372,0,0,1-3.418,3.325Z" transform="translate(1585.729 -2648)"/>
    <g class="cls-13" transform="matrix(1, 0, 0, 1, 0, 0)">
      <path id="rectangle-2-8" data-name="rectangle-2" class="cls-9" d="M0,0H80V50H0Z" transform="translate(1397 -2654)"/>
    </g>
    <path id="SEARCH-5" data-name="SEARCH" class="cls-6" d="M-20.406-2.52C-20.3-.9-18.953.152-17.01.152c2.107,0,3.428-1.047,3.428-2.723,0-1.314-.768-2.044-2.666-2.52l-.958-.254c-1.244-.324-1.752-.736-1.752-1.428,0-.9.825-1.511,2.012-1.511A1.852,1.852,0,0,1-14.859-6.7h1.143c-.051-1.536-1.371-2.615-3.193-2.615-1.9,0-3.237,1.066-3.237,2.59,0,1.244.749,1.987,2.438,2.418l1.174.3c1.231.317,1.771.793,1.771,1.568,0,.9-.9,1.555-2.139,1.555-1.308,0-2.247-.654-2.355-1.644ZM-9.14-5.935A1.813,1.813,0,0,1-7.3-4h-3.764A1.916,1.916,0,0,1-9.14-5.935Zm1.815,3.98A1.676,1.676,0,0,1-9.045-.908a1.958,1.958,0,0,1-2.019-2.146v-.063H-6.15v-.432c0-2.069-1.143-3.358-2.971-3.358-1.866,0-3.085,1.39-3.085,3.51S-10.993.063-9.07.063A2.694,2.694,0,0,0-6.233-1.955ZM-2.234-.9C-3.1-.9-3.65-1.308-3.65-1.942c0-.66.533-1.035,1.562-1.1L-.3-3.155V-2.6A1.778,1.778,0,0,1-2.234-.9Zm-.235.958a2.439,2.439,0,0,0,2.2-1.25h.025V0H.806V-4.7c0-1.346-1.041-2.209-2.66-2.209a2.36,2.36,0,0,0-2.59,2.038h1.06A1.418,1.418,0,0,1-1.866-5.922C-.857-5.922-.3-5.453-.3-4.6v.571l-1.917.114c-1.663.1-2.564.793-2.564,1.968A2.051,2.051,0,0,0-2.469.063ZM2.793,0H3.9V-4.234A1.46,1.46,0,0,1,5.37-5.846a2.3,2.3,0,0,1,.6.063V-6.868a2.5,2.5,0,0,0-.457-.038A1.651,1.651,0,0,0,3.859-5.732H3.834V-6.843H2.793Zm9.978-4.615A2.7,2.7,0,0,0,9.9-6.906c-1.873,0-3.123,1.384-3.123,3.485C6.779-1.27,8.035.063,9.914.063A2.687,2.687,0,0,0,12.783-2.19H11.7A1.634,1.634,0,0,1,9.921-.92C8.727-.92,7.9-1.866,7.9-3.421c0-1.511.813-2.5,2.006-2.5a1.655,1.655,0,0,1,1.777,1.308ZM14.427,0h1.1V-3.936A1.8,1.8,0,0,1,17.4-5.922,1.534,1.534,0,0,1,19.035-4.17V0h1.1V-4.367a2.315,2.315,0,0,0-2.412-2.539,2.256,2.256,0,0,0-2.171,1.174h-.025V-9.56h-1.1Z" transform="translate(1437 -2614.675)"/>
    <path id="Subtraction_2" data-name="Subtraction 2" class="cls-3" d="M-1306,3188.281h0a12.21,12.21,0,0,1-6.322-2.251,12.926,12.926,0,0,1-4.676-5.873,12.926,12.926,0,0,1,4.676-5.873,12.3,12.3,0,0,1,7.286-2.284,12.3,12.3,0,0,1,7.287,2.284,12.926,12.926,0,0,1,4.676,5.873,12.389,12.389,0,0,1-4.676,5.873,13.307,13.307,0,0,1-6.25,2.241v-2.666a4.944,4.944,0,0,0,2.77-1.533,5.741,5.741,0,0,0,1.632-3.807,5.1,5.1,0,0,0-1.632-3.806,5.741,5.741,0,0,0-3.807-1.632,5.1,5.1,0,0,0-3.806,1.632,5.735,5.735,0,0,0-1.632,3.806,5.309,5.309,0,0,0,1.632,3.807,5.369,5.369,0,0,0,2.843,1.544v2.664Zm.963-4.862a3.143,3.143,0,0,1-2.283-.979,3.145,3.145,0,0,1-.979-2.284,3.144,3.144,0,0,1,.979-2.283,3.142,3.142,0,0,1,2.283-.979,3.144,3.144,0,0,1,2.284.979,3.144,3.144,0,0,1,.979,2.283,3.145,3.145,0,0,1-.979,2.284A3.145,3.145,0,0,1-1305.037,3183.42Z" transform="translate(2742 -5817)"/>
  </g>
</svg>
