<svg class="tf-logo-white" xmlns="http://www.w3.org/2000/svg" viewBox="0 0 493.85 67.24"><defs><style>.tf-logo-white .cls-1{fill:#fff;}</style></defs><title>tf-logo-white</title><path class="cls-1" d="M264.42,283.23a2.87,2.87,0,0,1,2.85-2.93,3,3,0,0,1,2.93,2.93v9.15h10.05a2.64,2.64,0,0,1,2.63,2.55,2.59,2.59,0,0,1-2.63,2.55H270.19v22.65c0,4.73,2.62,6.45,6.53,6.45a16.35,16.35,0,0,0,3.53-.52,2.5,2.5,0,0,1,2.48,2.48,2.41,2.41,0,0,1-1.65,2.25,14.58,14.58,0,0,1-5.7,1.05c-6.23,0-11-3.08-11-11V283.23Z" transform="translate(-157.52 -272.91)"/><path class="cls-1" d="M290.86,294.93a2.91,2.91,0,0,1,2.85-2.92,2.88,2.88,0,0,1,2.93,2.92v7.28c2.85-6.45,8.48-10.35,13.35-10.35a2.78,2.78,0,0,1,2.85,2.93,2.87,2.87,0,0,1-2.55,2.92c-7.5.9-13.65,6.53-13.65,17.7v13.2a2.89,2.89,0,1,1-5.78,0V294.93Z" transform="translate(-157.52 -272.91)"/><path class="cls-1" d="M354.46,328.61a2.85,2.85,0,1,1-5.7,0v-4.2c-2.63,4.2-6.6,7.58-13.28,7.58-9.38,0-14.85-6.3-14.85-15.53V294.93a2.82,2.82,0,0,1,2.85-2.92,2.93,2.93,0,0,1,2.93,2.92V315c0,7.2,3.9,11.7,10.73,11.7,6.6,0,11.63-4.88,11.63-12.15V294.93a2.82,2.82,0,0,1,2.85-2.92,2.87,2.87,0,0,1,2.85,2.92v33.68Z" transform="translate(-157.52 -272.91)"/><path class="cls-1" d="M364.25,283.23a2.87,2.87,0,0,1,2.85-2.93,3,3,0,0,1,2.93,2.93v9.15h10.05a2.64,2.64,0,0,1,2.63,2.55,2.59,2.59,0,0,1-2.63,2.55H370v22.65c0,4.73,2.62,6.45,6.53,6.45a16.35,16.35,0,0,0,3.53-.52,2.5,2.5,0,0,1,2.48,2.48,2.41,2.41,0,0,1-1.65,2.25,14.58,14.58,0,0,1-5.7,1.05c-6.23,0-11-3.08-11-11V283.23Z" transform="translate(-157.52 -272.91)"/><path class="cls-1" d="M391.92,278.95a2.89,2.89,0,1,1,5.78,0v20.18A14.69,14.69,0,0,1,411,291.55c9.38,0,14.85,6.3,14.85,15.53v21.53a2.89,2.89,0,1,1-5.78,0V308.5c0-7.2-3.9-11.7-10.73-11.7S397.7,301.68,397.7,309v19.65a2.82,2.82,0,0,1-2.85,2.93,2.88,2.88,0,0,1-2.93-2.93V278.95Z" transform="translate(-157.52 -272.91)"/><path class="cls-1" d="M436.13,289.08c0-4.43,1.2-7.8,3.38-10a11.42,11.42,0,0,1,8.33-3,19.62,19.62,0,0,1,4.58.45,2.57,2.57,0,0,1,2.1,2.48,2.49,2.49,0,0,1-2.78,2.48,20.07,20.07,0,0,0-3.15-.38c-4.5,0-6.75,2.7-6.75,8.25v3.15h10.05a2.47,2.47,0,0,1,2.55,2.48,2.51,2.51,0,0,1-2.55,2.48h-10v31.13a2.87,2.87,0,0,1-2.85,2.93,2.93,2.93,0,0,1-2.93-2.93V289.08Zm26.4-8.85a3.43,3.43,0,0,1,6.83,0v1a3.43,3.43,0,0,1-6.83,0v-1Zm0.52,14.7A2.91,2.91,0,0,1,465.9,292a2.88,2.88,0,0,1,2.92,2.92v33.68a2.82,2.82,0,0,1-2.85,2.93,2.88,2.88,0,0,1-2.92-2.93V294.93Z" transform="translate(-157.52 -272.91)"/><path class="cls-1" d="M479.42,294.93a2.91,2.91,0,0,1,2.85-2.92,2.88,2.88,0,0,1,2.93,2.92v4.2a14.69,14.69,0,0,1,13.28-7.58c9.38,0,14.85,6.3,14.85,15.53v21.53a2.89,2.89,0,1,1-5.78,0V308.5c0-7.2-3.9-11.7-10.73-11.7s-11.63,4.88-11.63,12.15v19.65a2.82,2.82,0,0,1-2.85,2.93,2.88,2.88,0,0,1-2.93-2.93V294.93Z" transform="translate(-157.52 -272.91)"/><path class="cls-1" d="M560.69,328.61a2.89,2.89,0,1,1-5.78,0v-5.25c-3.15,4.65-7.73,8.63-14.85,8.63-9.3,0-18.53-7.35-18.53-20.1v-0.15c0-12.68,9.23-20.18,18.53-20.18,7.2,0,11.85,3.9,14.85,8.25V278.95a2.82,2.82,0,0,1,2.85-2.93,2.88,2.88,0,0,1,2.92,2.93v49.66Zm-33.23-17v0.15c0,9.15,6.38,15,13.65,15s14-6.08,14-15v-0.15c0-8.93-6.83-14.93-14-14.93C533.61,296.73,527.46,302.28,527.46,311.66Z" transform="translate(-157.52 -272.91)"/><path class="cls-1" d="M588.7,332.06c-10.65,0-19.35-8.18-19.35-20.18v-0.15c0-11.18,7.88-20.18,18.6-20.18,11.48,0,18,9.38,18,19.65a2.69,2.69,0,0,1-2.7,2.7H575.2C576,322.31,582,327,588.85,327a15.85,15.85,0,0,0,11.18-4.5,2.49,2.49,0,0,1,4.2,1.8,2.49,2.49,0,0,1-.9,1.88A19.72,19.72,0,0,1,588.7,332.06Zm11.48-22.43c-0.6-7.05-4.65-13.2-12.38-13.2-6.75,0-11.85,5.63-12.6,13.2h25Z" transform="translate(-157.52 -272.91)"/><path class="cls-1" d="M615.54,294.93a2.91,2.91,0,0,1,2.85-2.92,2.88,2.88,0,0,1,2.93,2.92v7.28c2.85-6.45,8.48-10.35,13.35-10.35a2.78,2.78,0,0,1,2.85,2.93A2.87,2.87,0,0,1,635,297.7c-7.5.9-13.65,6.53-13.65,17.7v13.2a2.89,2.89,0,1,1-5.78,0V294.93Z" transform="translate(-157.52 -272.91)"/><path class="cls-1" d="M220.88,274.59l-22.57,9.83,32.51,14.16c10,4.38,10,11.53,0,15.9l-32.51,14.16,22.57,9.83c10,4.38,18.23-.12,18.23-10v-44C239.11,274.7,230.91,270.21,220.88,274.59Zm-55.07,24,32.51-14.16-22.57-9.83c-10-4.37-18.22.11-18.22,10v44c0,9.84,8.2,14.34,18.22,10l22.57-9.83L165.8,314.48C155.78,310.11,155.78,303,165.8,298.58Zm31.7-4.51a12.45,12.45,0,1,0,12.45,12.45A12.46,12.46,0,0,0,197.5,294.07Zm0,18.19a5.74,5.74,0,1,1,5.74-5.74A5.74,5.74,0,0,1,197.5,312.26Z" transform="translate(-157.52 -272.91)"/><path class="cls-1" d="M643.44,276v1.29h-2.19v6h-1.54v-6h-2.2V276h5.92Z" transform="translate(-157.52 -272.91)"/><path class="cls-1" d="M649.18,276h2.2v7.31H650v-4.94c0-.14,0-0.34,0-0.6s0-.45,0-0.59l-1.38,6.13h-1.48l-1.37-6.13c0,0.14,0,.34,0,0.59s0,0.46,0,.6v4.94h-1.42V276h2.22l1.33,5.74Z" transform="translate(-157.52 -272.91)"/></svg>