<?xml version="1.0" encoding="UTF-8" standalone="no"?>
<svg width="224px" height="214px" viewBox="0 0 224 214" version="1.1" xmlns="http://www.w3.org/2000/svg" xmlns:xlink="http://www.w3.org/1999/xlink">
    <!-- Generator: Sketch 3.8.3 (29802) - http://www.bohemiancoding.com/sketch -->
    <title>linkedin</title>
    <desc>Created with Sketch.</desc>
    <defs></defs>
    <g id="Page-1" stroke="none" stroke-width="1" fill="none" fill-rule="evenodd">
        <g id="linkedin" fill="#FFFFFF">
            <rect id="Rectangle-path" x="3.601" y="69.857" width="47.678" height="143.429"></rect>
            <path d="M27.757,0.711 C11.445,0.711 0.77,11.414 0.77,25.487 C0.77,39.259 11.131,50.284 27.128,50.284 L27.449,50.284 C44.075,50.284 54.423,39.259 54.423,25.487 C54.109,11.414 44.075,0.711 27.757,0.711 L27.757,0.711 Z" id="Shape"></path>
            <path d="M168.32,66.486 C142.992,66.486 131.673,80.429 125.34,90.186 L125.34,90.651 L125.032,90.651 C125.121,90.505 125.251,90.336 125.34,90.186 L125.34,69.858 L77.657,69.858 C78.293,83.317 77.657,213.287 77.657,213.287 L125.342,213.287 L125.342,133.184 C125.342,128.889 125.663,124.626 126.922,121.557 C130.376,112.983 138.216,104.117 151.393,104.117 C168.648,104.117 175.551,117.276 175.551,136.551 L175.551,213.289 L223.229,213.289 L223.229,131.039 C223.227,86.983 199.705,66.486 168.32,66.486 L168.32,66.486 Z" id="Shape"></path>
        </g>
    </g>
</svg>