<?xml version="1.0" encoding="UTF-8" standalone="no"?>
<svg width="258px" height="332px" viewBox="0 0 258 332" version="1.1" xmlns="http://www.w3.org/2000/svg" xmlns:xlink="http://www.w3.org/1999/xlink">
    <!-- Generator: Sketch 3.8.3 (29802) - http://www.bohemiancoding.com/sketch -->
    <title>pinterest</title>
    <desc>Created with Sketch.</desc>
    <defs></defs>
    <g id="Page-1" stroke="none" stroke-width="1" fill="none" fill-rule="evenodd">
        <g id="pinterest" fill="#FFFFFF">
            <path d="M136.779,0.209 C46.289,0.209 0.657,65.083 0.657,119.193 C0.657,151.95 13.059,181.089 39.655,191.939 C44.018,193.737 47.927,192.006 49.193,187.177 C50.072,183.847 52.157,175.414 53.083,171.891 C54.355,167.115 53.862,165.45 50.339,161.274 C42.672,152.236 37.764,140.526 37.764,123.928 C37.764,75.799 73.778,32.712 131.537,32.712 C182.683,32.712 210.784,63.963 210.784,105.691 C210.784,160.614 186.48,206.964 150.407,206.964 C130.479,206.964 115.573,190.493 120.341,170.278 C126.063,146.147 137.153,120.118 137.153,102.687 C137.153,87.101 128.78,74.1 111.47,74.1 C91.102,74.1 74.737,95.174 74.737,123.395 C74.737,141.372 80.811,153.534 80.811,153.534 C80.811,153.534 59.97,241.853 56.314,257.318 C49.041,288.123 55.221,325.875 55.748,329.685 C56.055,331.95 58.958,332.496 60.277,330.791 C62.149,328.333 86.42,298.387 94.659,268.455 C96.996,259.989 108.053,216.11 108.053,216.11 C114.674,228.738 134.016,239.835 154.584,239.835 C215.801,239.835 257.343,184.026 257.343,109.322 C257.348,52.82 209.499,0.209 136.779,0.209 L136.779,0.209 Z" id="Shape"></path>
        </g>
    </g>
</svg>