<?xml version="1.0" encoding="UTF-8" standalone="no"?>
<svg width="302px" height="228px" viewBox="0 0 302 228" version="1.1" xmlns="http://www.w3.org/2000/svg" xmlns:xlink="http://www.w3.org/1999/xlink">
    <!-- Generator: Sketch 3.8.3 (29802) - http://www.bohemiancoding.com/sketch -->
    <title>youtube</title>
    <desc>Created with Sketch.</desc>
    <defs></defs>
    <g id="Page-1" stroke="none" stroke-width="1" fill="none" fill-rule="evenodd">
        <g id="youtube">
            <path d="M286.939,17.642 C275.454,4.826 262.59,4.75 256.692,4.024 C214.44,0.749 151.067,0.749 151.067,0.749 L150.925,0.749 C150.925,0.749 87.551,0.749 45.309,4.024 C39.411,4.751 26.557,4.826 15.062,17.642 C6.021,27.419 3.067,49.626 3.067,49.626 C3.067,49.626 0.047,75.683 0.047,101.741 L0.047,126.165 C0.047,152.241 3.067,178.289 3.067,178.289 C3.067,178.289 6.012,200.486 15.062,210.244 C26.557,223.06 41.628,222.673 48.348,224.013 C72.499,226.487 151,227.251 151,227.251 C151,227.251 214.44,227.138 256.691,223.901 C262.589,223.146 275.453,223.071 286.938,210.254 C295.979,200.496 298.933,178.299 298.933,178.299 C298.933,178.299 301.953,152.242 301.953,126.175 L301.953,101.75 C301.953,75.684 298.933,49.626 298.933,49.626 C298.933,49.626 295.99,27.42 286.939,17.642 L286.939,17.642 Z" id="Shape" fill="#FFFFFF"></path>
            <polygon id="Path" fill="#E52D27" points="113.297 170.626 113.297 57.375 207.673 114.001"></polygon>
        </g>
    </g>
</svg>