<svg id="Isolation_Mode" data-name="Isolation Mode" xmlns="http://www.w3.org/2000/svg" viewBox="0 0 1122.81 630.2"><defs><style>.cls-1{fill:#e1e1e1;}.cls-2{fill:none;stroke:#209cd2;stroke-miterlimit:10;stroke-width:4px;}.cls-3{fill:#209cd2;}.cls-4{fill:#57bf93;fill-rule:evenodd;}</style></defs><title>criminal</title><path class="cls-1" d="M390.41,550.4c-.2.6-.3,1.2-.6,2.1,1.5.6,4.6,2,5.2,2.2.3-.1.6-.1,1.1-.2.4-.9,1.1-2.6,1.3-3.1a18.14,18.14,0,0,1-.4-2.2c-1.1-.1-2.7-.3-3.1-.4C393.31,549.2,391.31,550,390.41,550.4Zm33.2,13.1c-.1.3-.1.4-.2.7.6.9,2.5,3.6,3.1,4.6.7-.1,1.3-.2,1.5-.2s1.9-.8,1.9-.8,1.4,1.2,1.8,1.6c.5,0,1.1-.1,2.1-.1-.7-.4-1.8-1.1-1.8-1.1l-2.3-4.4s-.9-1.5-1.6-2.6C426.81,561.9,424.31,563.1,423.61,563.5Zm27.6,10.7-.3.3c1.1.1,2.8.2,3.4.3a1.63,1.63,0,0,1,.6-.3c-1.6-.2-2.9-.3-3.4-.4A.44.44,0,0,0,451.21,574.2Zm7.8,4.3c1,1.3,4.2,5.7,4.4,6.1.3.2,1.3.8,1.9,1.2.9-.2,4.2-.9,4.5-.9s1.9-1,2.9-1.4v-.4c-1-.6-3.6-2.3-3.9-2.4l-4.7-1.2s-2.8-1.5-4.2-2.2A7.43,7.43,0,0,1,459,578.5Zm-6.5,3.6a8.93,8.93,0,0,0,1.3-.5v-.3c-.3-.4-.6-.8-1-1.3-.4,0-.8-.1-1.5-.1A23.86,23.86,0,0,0,452.51,582.1Zm24.5,14a8.66,8.66,0,0,0,.2,1c.4.4,2.1,2.4,2.1,2.4l-1,2-2.6,3.8-1.9.8a4.48,4.48,0,0,0,.1,1.2l2.2,1.8,2,7-.7,2.8c0,.4.2,3.1.3,4,.7.5,2.5,1.8,3,2.2.2,0,.4.1.7.1.6-.8,2-2.5,2-2.5l2.8-3.7,4.3-2.5s1.3.6,1.7.8c.8-.3,3.4-1.2,3.8-1.3.3-.3,3-2.4,3.6-3-1.2-.8-3.8-2.5-3.8-2.5s-2.2-4.9-2.3-5.1-1.2-1.8-1.5-2.3c-.4-.3-3.2-2-3.4-2.1l-8.2-3.8s-1.9-.9-2.9-1.4A.85.85,0,0,0,477,596.1Z" transform="translate(-11.1 0.1)"/><path class="cls-1" d="M243.41,464.8c-.7.7-3,3.3-3,3.3l-6.1.2s-.7-.6-1-.8c-.2,0-.2.1-.3.1-.4.2-4,2.3-4,2.3l-3.8.9-1.5-.9c-.9.6-2.4,1.5-2.9,1.9-.3.7-1.2,3.2-1.2,3.2l-4.7,4.5-5.4.2s-1.6-.6-2-.7h-2.8c-.3.2-.9.6-1.7,1.1.8,1.3,2,3.4,2,3.4l3.3,5.3,1,4.9s-.3,1.1-.5,1.6a.37.37,0,0,1,.1.3l5.1,2.9s-1.8,1.5-2,1.6c.3,1,.7,2.3.7,2.5l3.1,5.9-3.8,2-6.2-2.2-4.1-2.4,1-2.9s.5-.8.9-1.3c-.1-.1-.1-.1-.2-.1-.5-.1-1.9-.2-2.2-.3a17.73,17.73,0,0,1-2.7.4c0,.1.2,2,.2,2h-2.9l-1.1-1.1H193s-4.3.3-6,.4c.6,1.1,1.2,2.3,1.4,2.7.4.3,2.8,2.3,2.8,2.3s-.9,3.3-.9,3.5-.3,2.5-.4,3.4c.7.7,2.4,2.6,3,3.1,1,.1,5.2.2,5.2.2l4,2c.2.1,1.2.3,1.6.4.6-.1,3.2-.8,3.2-.8l3.9-1.2,2.4,4.1-.6.6-1.4,1.4.2-.2a10,10,0,0,0-.6,2.9l-1,5.5-3.4,2h-2.6s-1.1-.7-1.3-.9a8.49,8.49,0,0,0-.9-.3c-.9.6-3.2,2.4-3.2,2.4l-4.5.6s-.3-2.5-.4-3.3a15.56,15.56,0,0,0-1.5-.6c-.6.3-1.5.7-2,.9-.4.7-2.1,4-2.1,4l-3.2,2s-3.6,2.6-4.4,3.2c-.2.8-.7,3.8-.9,4.5.1.3.3.6.5,1.2l.7-.3,3.1,1.9-2.2,2.2c0,.6-.2,2.7-.2,2.7s-1.5.6-2.1.8c.5.9,2.1,3.5,2.1,3.5s.5,3.2.7,4c.3.3.5.4.8.7h5.3c.2-.4,1.4-2.5,1.4-2.5l2.9,2.9v5.1c.1.4,1.3,3.4,1.3,3.4s-2.5.3-2.9.4c-.1.1-.2.1-.4.2.2.5.5,1.4.5,1.4s-.5,2.8-.6,3.1c.7-.5,1.7-1.1,1.7-1.1l6-.2s.3,1.7.4,2.1c.1-.2,2.2-2.2,2.2-2.2s1,4,1.3,5.4l1.8-1.8,3.1.8s.4,1.5.6,2.2c.9-.2,1.7-.3,2-.4.4-.3,4.3-3.4,4.3-3.4l-.9,6.9s-1.6,1.5-2,1.8l-2.4,4.7-2.4,4.6s-3.3,1.2-4.3,1.6c-.3.9-1.5,4.4-1.5,4.4h-2.4l-.5-.4c-.4.1-.7.2-.7.2s-3.5.7-3.7.7-2.2.7-2.9.9c-.4.5-2.5,3-2.5,3l-2.2.7s-1.6-1.2-2-1.6c-.6,0-1.7-.1-2.2-.1-.4.2-1.8.8-1.8.8s-2.3.5-2.9.7c-.5.4-2.2,2.2-2.2,2.2s-1.1.4-1.7.6h3.4l3.4-2.3s3.2,1.2,3.9,1.5c.7-.2,2.7-.9,2.7-.9l6.1-2.2a5.53,5.53,0,0,0-.1.9c.2,0,3.7-.2,3.7-.2s1.1.4,2,.7a.35.35,0,0,1,.1-.2,3.29,3.29,0,0,1,.6-.6c-.2-.2-2.7-1.9-2.7-1.9l8.3-3.6s5.4-1.1,5.8-1.2,2.1-1.1,2.1-1.1l8.5-4.6s6.4-4.2,6.8-4.4c.2-.2,1.6-1.9,2.3-2.7a7.93,7.93,0,0,0-.4-.9l-3-1.3.7-3.4,4-3.4s3.4-1.2,4.3-1.5l1-2,2-2.9,2.8-4,6.2-3.4,5.3.5,2.8,5.7H249s-.6-.8-.8-1c-1.1.6-2.3,1.2-3,1.6h0v2.2s-2.5,4.3-2.6,4.5a9.42,9.42,0,0,1-.4,1c.4.1,2,.6,2,.6v3.7s-1.9.3-2.3.4c1,0,1.7.1,2,.1.6-.4,2.8-1.8,3.1-1.9.3-.3,1.9-2.3,1.9-2.3l4.3-3s2,1.3,2.9,1.9c.3-.3,1.4-1.2,1.4-1.2s1.7,1.1,2.1,1.3c0,0,.3-.9.4-1.3l-1.2-.2-.6-6,5.1-2.1,5.1-.5s2.6,5.5,3.1,6.6c.7.1,1.8.3,1.8.3s5.1,3.1,6.5,3.9a1.44,1.44,0,0,1,.3-.2h6.8l6.4,2.8,3.4,1c.6-.3,2.1-.8,2.4-1s2.2-2,2.4-2.2h-.1c-.4.3-1.6,1.3-1.6,1.3l-4.3-.2-2.8-1.7s.4-91.7.4-93.3c-.9-.6-3.8-2.5-4-2.7s-3.7-1.5-4.6-1.8c-.6.3-1.6.7-1.6.7l-3,.9s-4.3-2.1-5.4-2.7c-.4.3-1.7,1.1-1.7,1.1l-7.4-4.9c-.7-.1-7.8-.7-7.8-.7l-3-2.2s-.2-2.3-.3-3.5c-1-.1-1.7-.1-2.3-.2-.5.5-2.7,2.6-2.7,2.6l-2-3.6a5.13,5.13,0,0,0,.4-1c-.6-.6-1.2-1.3-1.4-1.5s-2.8-1.9-3.4-2.3C243.51,464.8,243.51,464.8,243.41,464.8ZM163,515.5a3.44,3.44,0,0,0,.1.9h.9l-.5-.5a3.29,3.29,0,0,0-.3-.6C163.11,515.4,163.11,515.5,163,515.5Zm4.5,3.1s1.3,2.9,1.7,4a.9.9,0,0,1,.5.1c-.5-1.2-1.2-3.1-1.6-4-.4-.1-.5-.1-.9-.2A.44.44,0,0,1,167.51,518.6Zm.6,37.7c.5.6,2.4,2.5,2.9,3.1.5,0,1,.1,1.8.1.4-.8.7-1.6,1-2.3l-3.6-.9-2.1-.4C168,556,168.11,556.2,168.11,556.3ZM303.81,584v.3s-.6,1.6-1.1,2.7c1.2.8,3.4,2.2,3.4,2.2s4.1,2.2,4.8,2.6a13,13,0,0,0-.3-1.3c-.6-.6-6.2-6.1-6.9-6.7C303.81,583.7,303.81,584,303.81,584Zm17.2,2-.3.2s-.7.1-1.1.2a9,9,0,0,1-.9,1c-.1.7-.4,3.9-.4,3.9s-1.3.3-1.5.4-3.6,2.1-3.7,2.1c.6.7,1.2,1.3,1.3,1.4s2.3,1.6,3,2.2l2.8-.7,3,2s-2.9,1.7-3.5,2.2v.9c.5.4,1.4,1,1.4,1l2,3.7s.4,2.2.6,3.4a16.75,16.75,0,0,0,2,.4s1.7,2.9,2.9,4.9c-.1-1.5-.3-5.7-.3-5.7l3.8,2.3.8,4.7a4.33,4.33,0,0,1,.1.5c.1-.2.4-1.9.4-1.9h3.5v6.3c.5.4,2.2,2.2,2.2,2.2a5.72,5.72,0,0,1-.8.8c.3.6.6,1.3.6,1.3v.1c.3.2,5.5,3.4,5.5,3.4l.9.9c0-.9-.1-1.5-.1-1.8-.3-.5-2-3.7-2-3.7l2.5-2.5,2.9,1.9,3.3,1.8s1.3,2.6,1.6,3.3c.1.1.1.1.3.1a11.46,11.46,0,0,0,1-1.3c.1-.4.7-2.7.9-3.1-.1-.5-.5-3-.5-3s-.6-2.9-.9-3.9c-1.1-.4-4.9-2-4.9-2l-6-2.2s-1.6-4.1-1.8-4.4-2.3-2.8-2.3-2.8l-3.1-4.3s-3.1-5.5-3.6-6.3c-.7-.3-4.3-2-4.3-2s-1-2.1-1.3-2.7c-.5-.3-2.3-1.3-2.3-1.3s-.6-2.5-.7-3.2c-.5-.4-1.3-.9-2-1.4C321.71,585.5,321,586,321,586Zm-87.4,8s-.9.7-1.7,1.3a4.11,4.11,0,0,0,.8.3c.6-.3,1.5-.7,2.5-1.2l-1.6-.4Zm-10.5,7.1a6,6,0,0,1-.7.6c.2,1.1.7,3.5.9,4.6.7.2,1.2.3,1.7.5.9-.5,4.9-2.9,4.9-2.9s2-1.2,3.4-2c-.5-.7-1.2-1.8-1.2-1.8h0l-5.1-1.4C225.71,599.5,223.31,601,223.11,601.1Zm-53.8,11.1-.3.1s-2.4-.3-4.3-.4c.4.2,2.1.9,2.4,1.1.2,0,1.1.2,1.6.2a11.06,11.06,0,0,0,1.3-.7s2.3-1.4,2.4-1.5C171,611.5,169.31,612.2,169.31,612.2Zm-9.3.3v.4l.1.1c0-.1.4-.4.4-.4s2.5-.7,2.7-.8a6.25,6.25,0,0,0-1.2-.1A16,16,0,0,0,160,612.5Zm-14.8,2.2c0,.1.2,1.2.2,1.2l-1.4,1.4c.9-.2,2.8-.7,3.5-.9a1,1,0,0,1,.3-.4c-.7-.6-1.2-1.1-1.7-1.5C145.81,614.6,145.61,614.6,145.21,614.7Z" transform="translate(-11.1 0.1)"/><path class="cls-1" d="M941.11,470.9c.4,1.1,1.4,4,1.4,4l-.4,7.4-5.1-1.9s-.3-1.9-.4-2.9c-1.5-.1-4.1-.2-4.2-.2s-5.8.7-5.8.7L903,479.4l-11.9.7-9.5-.6-2.1-2.1s-1.9-2.8-2.5-3.7c-1.1-.1-4.9-.2-5.1-.3s-7.3.7-7.3.7l-27.9,3.2s-8.1,1-10,1.3c-.1.7-.1,1-.2,1.5a17.41,17.41,0,0,0,1.4,1.4c.2.1,3.3,2.5,3.3,2.5s.2,5.6.2,7.8a18.75,18.75,0,0,1,2-.3c.2-.1,6.6-2.3,6.6-2.3l6.7-.5,4.9-.7,8.7,2,9.2,4.4s1.4,1.2,1.7,1.5,3.3,1.3,3.3,1.3l2.3,2.7s.1,1,.2,1.5c.9-.3,2-.8,2-.8h4.1c.5-.3,3.1-1.7,3.4-1.8s4.4-4.2,4.4-4.2,1.4.1,2.3.1a1.44,1.44,0,0,1-.2-.3l.3-3.8,5.6-1.1h3.3l3.4,1.7c.2.1,5,1.7,5,1.7s2.2,3.4,2.7,4l3.2,1.1s1,3,1.3,3.8c.8.4,3.5,1.7,3.5,1.7s1.3,2.1,1.7,2.7c.6.2,1.6.5,1.6.5l6.3,1.6s1.5,3.5,1.6,3.8c.3.3,3.6,4.3,3.6,4.3v11.2s-1.4,4.5-1.6,5.1c.1.5.3,2.4.3,2.6,0,0,.2.8.4,1.5.1,0,2.4-1,2.4-1l6.4,1.4.3,3.3-3.9,6.5s-.8,1-1.5,1.7c1.1,1.1,3,3.1,3,3.1l3,3.5s3.1,5.7,3.2,5.9,3.2,4.3,3.2,4.3,1.6,3.8,2.1,4.9h.3c.5-.7,2.1-2.6,2.1-2.6l3.4,2.2,3.2,4.9s.6,3.3.7,3.8c.2.3,1,1.4,1.9,2.7a1.44,1.44,0,0,0,.2-.3l5.5.5,4.5,2.8,4,6.1,1,4s.2,1.9.3,2.7a2.2,2.2,0,0,0,.6.5,3.28,3.28,0,0,1,.6.3c.6-.2,1.4-.6,1.8-.7.3-.4,1.8-2,1.8-2s4-.2,4.5-.2c.4-.2,2.3-1.1,2.8-1.3.3-.3,1.7-2,2.3-2.7-.2-.6-.4-1.4-.4-1.4l-.4-3.1s.5-1.6.7-2.1c-.1-.5-.4-2.8-.4-2.8s2.1-1.1,2.9-1.5c.1-.9.2-2.2.2-2.6-.2-.4-.7-1.8-.7-1.8s-.5-13-.5-13.2-1.3-7.5-1.4-7.9-4.8-8.8-4.8-8.8l-3.9-6.3-2.8-5.7-3.2-3.2-3.6-9.1,1.3-2.1a6,6,0,0,0,.6-.7c-.4-.8-1-1.8-1.1-2.1-.3-.3-4.2-3.9-4.2-3.9l-5.5-6.2-4.1-7-5.9-10.4-4.1-10.8s-1.7-5.6-2.2-7.1c-1.3-.1-4.6-.3-4.6-.3s-4.3-.3-5.4-.4Zm-4.8,69.6c.1.1.4.9.8,1.7.2-.7.3-.9.4-1.4a8.67,8.67,0,0,1-1.2-.5A.14.14,0,0,0,936.31,540.5Zm38.2,70.5a.35.35,0,0,0,.2-.1h-.1Z" transform="translate(-11.1 0.1)"/><path class="cls-1" d="M1062.41,93.6c0,.8-.1,5-.1,5s.3,4.9.3,5.7c.4.5,2.2,3,2.2,3v5.4l-4.6,6.2s-1.4.6-2.2,1c.4.5,1.2,1.8,1.2,1.8v9.8l-.9,10.2s-.1,3.9-.2,4.7c.3.4,1.1,1.4,1.1,1.4l-.2,5.6s-.1.5-.2.8l17.3-4.5s1.2-.3,1.8-.5c.4-.7,2-2.9,2-2.9s3.5-1.6,4-1.8c.2-.2.4-.5.6-.7s.3-1,.6-2c-.7-.2-2.2-.8-2.2-.8s-.4-2.3-.5-3.3c-1.1-.3-4.3-1.3-4.3-1.3s-.4-3.6-.4-3.8-7.9-25.5-7.9-25.5-3.1-9.8-4.2-13.4c-.2.5-.4,1.1-.4,1.1l-2.2-1.7A4.68,4.68,0,0,0,1062.41,93.6Z" transform="translate(-11.1 0.1)"/><path class="cls-1" d="M835.41,125.9c-.1.1-1.7,1.3-2.5,1.9.1.7.1,1.3.2,2.1h.2l2.8.6,1.8,3-4.7,1.5-2.4.3a12.7,12.7,0,0,1-1,1.2,11.55,11.55,0,0,0-.2,1.6c.1.4.3,1.6.3,1.6l.4,7L825,150l-2.4-.6v-5.1c-.1.1-2.1.9-2.6,1.1-.3.3-1,1.1-1.4,1.6a9.68,9.68,0,0,0,.7.9l-1.1,4.4s-1.5.3-2.1.5c.2.6.9,2.6.9,2.6l-1.3,7.2s-1.4,3.6-1.7,4.2c.1.6.6,4.2.6,4.5s.7,1.6.7,1.6l-1.1,3.2s-.2.5-.3.8-.2,1.7-.3,2.3c.4.8,3.7,6.2,3.7,6.2l3.3,7.2,1.7,5.7-.9,5.5-1.1,6.7s-2.4,5.2-2.6,5.6c0,.4-.4,3.3-.4,3.3a11.09,11.09,0,0,0-1.1,1.1h.9l23.3-2.5,9.5-1.3s.1,1.7.1,1.8c2-.3,5.9-1,5.9-1l11.3-1.7s2-.2,3.2-.4c0-.5.1-1.4.1-1.4l2.6-4.5s1.2-1.1,1.8-1.6c0-1.1-.2-5.5-.2-5.5l2.5-2.5a4.17,4.17,0,0,1,.6-.2c.1-1.1.2-3.2.2-3.2l2.5-5,3,1.8v.1l.4-.2c-.1-1.5-.3-8.8-.3-9.2-.2-.4-3.5-8.9-3.5-8.9s-2.3-9.1-2.4-9.7c-.3-.4-2.1-2.8-2.3-3.1a17.77,17.77,0,0,0-1.8-1.2c-.5.3-1.1.7-1.1.7s-3,1.4-3.8,1.7c-.4.9-2,5.1-2,5.1l-3.3,4.5-2.2,1.2-2.3-1c-2.9-1.6-3.5-2.7-3.5-3.5a.9.9,0,0,1,.1-.5c.1-.4.3-3,.5-5.2l.1-.9s2.9-1.1,3.9-1.5c.2-1,.7-3,.7-3l.8-3.4s1.7-1.1,2.4-1.6c0-1.3-.3-8.9-.3-9.7-.3-.5-1.1-1.6-1.3-1.9s-1.6-1-1.6-1l-1.4-3.7,2.1-2.1h.1c-.7-.6-1.5-1.4-1.5-1.4l-1.1-2.2h-2.2l-5.3-1.7s-5.2-3.2-5.8-3.6h-2l-1,1-2.1-1.1s-1.7-1.3-2.7-2C836.71,125.1,835.41,125.9,835.41,125.9Z" transform="translate(-11.1 0.1)"/><path class="cls-1" d="M760.71,78.7c-.1.1-.1.2-.2.2.3-.1.8-.3.8-.3a3.21,3.21,0,0,0,.5-.3A10,10,0,0,0,760.71,78.7Zm17.4,10.5c-.4.2-4,2.2-4.3,2.4s-2.1,2.1-2.2,2.3-1.6,2.2-1.6,2.2-1.4.6-1.9.9c-.3.5-1.4,2.1-1.7,2.5,0,.4-.2,1.9-.2,1.9s-5.1,2.4-5.3,2.6-2.8,2.3-2.8,2.3-5.5.9-6.4,1v1.2l-4.7,3s-1.3.4-2.2.7c1,1.4,2.3,3.2,2.7,3.8,1.1.2,8.1,1.2,8.1,1.2l9,2.4s3,1.1,3.2,1.1,13.6,3.1,13.6,3.1,1.9,2.2,2.3,2.6l4.3,1.7s2,10.5,2.2,11.5c.4.3.8.6.9.7.9-2.1,2.5-5.6,2.6-5.7.1-.3,1.1-4.4,1.1-4.4l2.5-5.6,2.6-.5s.9,1.3,1.2,1.8l5.3-2.9s1.2,1.4,1.7,1.9c.1-.1.2-.1.2-.2.2-.6,1.3-3.7,1.3-3.7l3.5-1.2,7.1-.7,2.1-2.9,6.5-.2s6.1,1.3,6.4,1.4h1.4c.5-.2,3.6-1.6,3.6-1.6s2.1.2,2.6.2,2.3-.7,2.3-.7,1,.1,1.5.2c-1.1-1-2.8-2.7-2.8-2.7V106l-.6.6-7.1,1.9-2.5.6-3.8-1.1-1.4-.9v-5.6c-.7.3-2.3,1.1-2.3,1.1l-5.2,2.3s-6.9.3-7.3.3-2.8.9-3.2,1.1c-.4.4-4.3,3.8-4.3,3.8l-2.2,1.3h-1.2c-.4.2-1.6,1-1.6,1l-2.7-.8a11.46,11.46,0,0,0-1.2-.9,7,7,0,0,0-1,.7l-5.3.2-3.6-3.6s-1.3-2.7-1.5-3.3a8.7,8.7,0,0,0-1.1-.9c-.4-.1-2.7-.8-3.1-.9h-2.9l-.9-.9c-1.1.9-2.6,2.1-2.7,2.2s-1.8,2.1-1.8,2.1l-2.8-1.6.5-4.2s2.3-3.1,2.7-3.6c.1-.5.6-3.2.6-3.2s2-.7,2.7-.9c.3-.8,1.6-3.4,1.6-3.4s1.1-.3,1.2-.3C779,89.1,778.31,89.2,778.11,89.2Zm75.3,25.1c0,.1.2,1,.4,1.8.8,0,1.3.1,1.8.1l.4-.4v-.3a9.62,9.62,0,0,1-1.3-1.4A10.51,10.51,0,0,1,853.41,114.3Z" transform="translate(-11.1 0.1)"/><path class="cls-1" d="M1033.71,107.2c.2,1.4.6,3.7.6,3.9s2.6,7.1,2.6,7.1l.9,6.1s-.8,3.1-1,3.9c.5.8,2.7,4.7,2.7,4.7l1.1,2.9s-.4,1.5-.7,2.4l2,.9,1.3.7,3.4,12.6s-.2,2.5-.3,4.3c1.5-.2,3.1-.5,3.1-.5l5.8-1.2c0-.1.5-1.6.6-1.9s.1-3.5.2-4.3c-.3-.4-1.1-1.4-1.1-1.4l.3-6.6.7-10.1s.3-7.2.3-8.2c-.4-.5-1.4-1.6-1.4-1.6v-2.7s2.8-1.2,3.3-1.5c.4-.5,3.1-4.2,3.5-4.8v-3.5c-.4-.6-2.1-3-2.1-3s-.2-2.9-.2-4.7C1056.61,101.4,1035.91,106.6,1033.71,107.2Z" transform="translate(-11.1 0.1)"/><path class="cls-1" d="M1095.31,34.7h0c-.1.1-3.1,2.3-4,2.9v.9l-1.9,1.9-4.4-1-1.9-3.4v-.3h-.4c-.5,1.1-1.8,3.5-1.8,3.7s-3.2,9.6-3.2,9.6-1.7,4.6-1.8,5.1.2,5,.2,5l.2,1.8-1.1,3.6s-.5.6-.7.9v5.5c.5.6,2.3,2.9,2.3,2.9l-1.9,5.3s-2.7,4.8-2.8,5.1-1.2,4.2-1.3,4.6v4.5s-2.2-.6-2.7-.7c1,3,4.5,14,4.5,14l8,25.8a18.13,18.13,0,0,1,.2,2.2c1.2.3,4.2,1.2,4.2,1.2s.4,2.6.6,3.5c.1.1.1.1.2.1.3-2,.9-4.7.9-4.9s.2-5.3.2-5.3.9-.8,1.4-1.2c-.3-1-1-3.4-1-3.4l4.9-5.6s1.7,1.5,2.2,2a1.69,1.69,0,0,1,.5-.2c.2-.1,4.1-2.3,5.1-2.9l.4-3.6s2.8-.5,3.6-.6a14.19,14.19,0,0,1,1.1-1.8,8.47,8.47,0,0,1-.1-1.3l-.4-3.8s.5-.9.8-1.3c0-.1-.1-.2-.1-.3-.3-.4-2.4-2.7-2.4-2.7l5.1-3.1s1.6,2.9,2.1,3.9c.2,0,.7-.2.9-.2l-.2-.2,1.9-2.9,2.7-1.6c.3-.4,1.3-1.9,1.3-1.9l4-.4.2,1.4c.1.4.2.7.3,1h.1c.7-.8,4.9-5.5,4.9-5.5l4-3.7,1.8-.6c.4-.9,1.7-3.8,1.9-4.2V83.1c-.4-.6-2-3.4-2.2-3.6s-1-1.1-1.6-1.7h-.4c-.1.2-.6,1.9-.6,1.9h-2.4l-4.1-3.2s-.2-5.2-.2-5.7c-.1-.2-.2-.5-.4-1h-6.7s-9.7-32-10-33.1l-1.6-.8s-5.9-2.4-6.3-2.5a2.25,2.25,0,0,1-.7-.1Zm21.7,67.8.2.2a3.75,3.75,0,0,0,.1-.8A1.69,1.69,0,0,0,1117,102.5Zm-4.6,2.1a.49.49,0,0,1,.1-.3l-.1-.1C1112.31,104.3,1112.41,104.4,1112.41,104.6Zm4.6-.1Z" transform="translate(-11.1 0.1)"/><path class="cls-1" d="M1075.11,170.2c.5,2,2.7,11.1,3.3,13.4a9.33,9.33,0,0,0,1.4-.5c.3-.3,2-1.6,2.2-1.8s1.6-2.5,1.6-2.5,1.4.2,1.9.2c.3-.2.8-.4,1.5-.8-.8-1.4-2.1-3.5-2.1-3.5s-3.3-4.3-3.5-4.5a14.89,14.89,0,0,1-1.7-1.5C1078.91,169.1,1076.61,169.7,1075.11,170.2Z" transform="translate(-11.1 0.1)"/><path class="cls-1" d="M1024.61,109.7c-.1,0-5.2,1.7-5.2,1.7s-3.2-.2-3.6-.2-5.5,1.3-5.7,1.3-2.8,1.1-3.1,1.2a23.05,23.05,0,0,0-2.3,1.8c-.2.2-2.2,2.5-2.2,2.5l-3,4-3.1,4.9-1.6,3.2-.9,1.1s-5.1,4.8-5.9,5.6c0,.6.1,1.3.1,1.7a3.11,3.11,0,0,1,.4.6c.4.2.9.4,1.3.6h3.1v3.4s-.8,1.5-1.1,2.2c.1.3.1.5.2.8.3.4,1.7,2.5,1.7,2.5l-.3,3.8-3.1,1.8h-2a18.77,18.77,0,0,0-1.2,1.5c-.1.2-2,3.6-2,3.6l-2.9,2.4s-5.4.5-5.9.5c-.4.2-2.4,1-2.5,1.1s-2.6,1.6-2.6,1.6l-2.6-.3s-1.5-1-2.1-1.3c-.8,0-6.1.2-6.3.2s-3.1.5-3.3.5-4.3,1.4-4.3,1.4l-4.6,1.5c-.2.1-1.2.7-2.1,1.3.4,1.3,1.1,3.5,1.5,4.7.5,0,1.8.2,1.8.2l1.8,4.3.4,2s-1.6,1.3-1.8,1.5a31.59,31.59,0,0,0-2,2.7c-.1.4-.6,1.9-.6,1.9l-2.5,2.3s-1.3.8-1.7,1.1-1,1.7-1,1.7l-1.6,1.4-1,.8c.1,1,.4,3.1.5,4.7,2-.3,6.7-1.1,6.7-1.1l46.9-9.5,22-5s2.2,2.4,2.8,3.1c.9,0,4.3-.1,4.3-.1s1.7,6.6,2,7.4c.4.4,1.3,1.1,1.8,1.5.7,0,2.8.2,2.8.2s1.2,1.1,1.5,1.3,3.6,1.7,3.8,1.8,4.1,1.2,4.1,1.2l5.1,1.1s1.9,1.1,2.7,1.6c-.2-.3-1.3-1.4-1.3-1.4s1.3-2.6,1.5-3.1v-8.3c0-.3-1.5-7.8-1.5-7.8l-.9-3.9-1-6.5.6-12s.5-4.8.5-5.3-2.8-10-3.1-11.1l-.1-.1-4.3-1.9,1.1-3.9a18.31,18.31,0,0,0-.7-1.7c-.1-.2-3.1-5.4-3.1-5.4s1-4,1.1-4.5c-.1-.5-.8-4.9-.8-5.2s-2.6-7.1-2.6-7.1-.3-2.3-.4-3.9C1029,108.4,1024.71,109.7,1024.61,109.7Zm47,86.1-3.4,3.3-9.2,4.5-3.1-.2-1.3-.5c-.2.1-.3.2-.4.2-.3.3-2.4,2.7-2.4,2.7l-1.9,1.7-2.7.7c0,.6.1,1.7.2,2.6.8-.2,3.9-1.1,3.9-1.1l6.3-2.1s2.2-.8,2.6-1,11.6-8.7,11.8-8.8,1.1-1.1,2.1-2.2c-.8-.3-1.1-.4-1.6-.6A3.92,3.92,0,0,0,1071.61,195.8Zm-24.2,6.5a2.64,2.64,0,0,0,.1.7l.2-.2c-.2-.3-.2-.4-.3-.5Z" transform="translate(-11.1 0.1)"/><path class="cls-1" d="M995.41,189.4l-47,9.5-11.3,1.8s-.4-3.7-.6-5.7c-1.7,1.6-3.9,3.7-3.9,3.7s-1.2.5-1.5.6-2.7,1.9-3.7,2.6c.3,1.6,3,20,3,20l2.7,10.5s3.2,17.1,3.6,19.7l2.1-.4,13.1-1.7,41.4-8.4,16.3-3.1s7.9-1.6,8.7-1.7l2.6-2,2.5-.8s1.1-.2,1.4-.3,1.4-.8,1.9-1l1.2-2.4,1.9-2.7s1.9-1.8,2.8-2.7c-.8-.5-1.7-1.1-1.7-1.1l-4.3-2.9-.9-2.4c-.9-.1-3.2-.4-3.2-.4s-.3-2.1-.3-2.3-1.2-4.1-1.2-4.1,2.1-1,2.8-1.4c0-.5.1-.7.1-1.1l-1.4-1.4.3-2.8s1.7-2.7,2.1-3.3v-3.5l1.7-1.7c-.6,0-1.6-.1-1.6-.1l-3.2-2.7-1.5-6c-1.1,0-3.3.1-3.3.1s-1.9-2-2.6-2.8C1012.81,185.3,995.41,189.4,995.41,189.4Z" transform="translate(-11.1 0.1)"/><path class="cls-1" d="M1027.81,199.5v3.2s-1.8,2.9-2.2,3.4a2,2,0,0,1-.1.7l1.4,1.4-.3,4.2a23.41,23.41,0,0,0-2.1,1.1c.3.9.6,1.9.6,1.9v.2l2.8.3s1,2.6,1.2,3.2c.6.4,3.5,2.4,3.5,2.4l3.3,2.2V226s-3.4,3.1-3.6,3.3-1.5,2.1-1.6,2.3l-1.7,3.3s-1.7,1-2.3,1.3c-.2.5-.4,1.2-.4,1.2l-.2,1.2s-.4,1.7-.6,2.4c.3.5.7,1.4.9,1.7s2.9,2.6,3.1,2.8c.4.2,4.6,2.2,4.9,2.3s5.3.9,5.3.9.3,2.3.3,2.6c.3-1.5.7-4.2.7-4.2s3-4.4,3.1-4.6,3.1-6.5,3.2-6.8.9-4.4,1.1-5.3c-.2-.4-.6-1.1-.6-1.1s-.2-9.7-.2-10.3a14,14,0,0,0-.9-1.8.1.1,0,0,0-.1.1l-4.1.5-2.2-2.2,2.4-2.1s1.3-1.2,1.8-1.7v-.5c0-.2-.4-3.9-.4-3.9s.6-2.7.6-3a6.25,6.25,0,0,0-.1-1.2c-.7-.5-1.9-1.2-2.2-1.4l-5.3-1.2-4.7-1.5c-.1,0-1.9-.9-3.1-1.4A5.12,5.12,0,0,1,1027.81,199.5Z" transform="translate(-11.1 0.1)"/><path class="cls-1" d="M1022.41,237.6c-.2.2-.8.6-1.4,1.1.4,1.3,1.6,4.5,1.6,4.5l2.5,6.2,2.3,10.7s1.1,4.1,1.5,5.7c1.4,0,4-.1,4.2-.1s3.2-.6,5-1c-.5-1.5-1-3.3-1.5-4.8a.49.49,0,0,1-.3.1l-5-3.4s-2-5.3-2.1-5.5-1.8-3.2-2-3.6-3.5-3.2-3.5-3.2l-1.2-3,.5-2.2s.2-1.3.3-1.9C1022.91,237.4,1022.61,237.5,1022.41,237.6Z" transform="translate(-11.1 0.1)"/><path class="cls-1" d="M1011.51,241.4l-16.3,3.1L981,247.4c.4.3.7.5.8.6l3.3,1.6,2.4,2.2a18.75,18.75,0,0,0,1.2,1.5c.6.3,5,2.1,5,2.1v3c1.5.4,5,1.2,5,1.2a1,1,0,0,0,.3.1c.4-.6,1.7-2.4,1.7-2.4l5.4,3.7s-1.8,3.4-1.9,3.7-.9,4.4-.9,4.4-1.5,2.2-1.9,2.7v1.6c.1.2.2.5.4,1,1.1.3,4.3,1.1,4.6,1.2l4.7-.1s3.3,1,3.5,1.1.6.1,1.1.2a2.56,2.56,0,0,1,.2-.5c-.5-.7-1.4-2-1.4-2v-1.7c-.7-.6-2.4-2.1-2.4-2.1l-2.6-6.8s1.3-5.6,1.5-6.1c0-.3-.1-1-.1-1.5l-2-2,.9-1a9.14,9.14,0,0,0,1.2-1.7,20.74,20.74,0,0,1,.6-2.6l.2-.5,2.5-1.7,2-1.7,1.4-1.2,1.8,3.6s-1.8,2-2.1,2.3a31.68,31.68,0,0,0-1.1,3.3l2.1.4.7,8.2-.9.4,3.1,3.4-2.5,2c-.1.7-.2,1.9-.3,2.5.4.6,1.6,2.1,2.1,2.8.8.1,2.6.3,3.2.4.5-.2,2.5-1.2,2.5-1.2s3.6,4.7,4,5.2a4.17,4.17,0,0,0,.6.2c.9-.4,5.4-2.3,6.2-2.6.3-.7,1.5-3,1.8-3.5-.1-.5-.2-1.9-.3-3.3-1.8.4-5.1,1-5.1,1l-6.9.2-2.3-8.7s-2.1-9.7-2.1-10-2.8-6.6-2.8-6.6-.7-2.2-1.1-3.6C1016.51,240.3,1011.51,241.4,1011.51,241.4Zm-44.3,8.7c.1,0,1.7.9,2.1,1.1a17.85,17.85,0,0,1,2.3-.2l2.5-2,.3-.2C970.81,249.4,970.31,249.5,967.21,250.1Zm-11.4,2.3c.4,1.6.9,4,.9,4l.6,3.2c.2-.3,3.4-3.9,3.4-3.9s2.1-.5,2.7-.7l1.2-1.2c.1-.2,2.5-3.7,2.6-3.7C962.31,251.1,956.61,252.2,955.81,252.4Z" transform="translate(-11.1 0.1)"/><path class="cls-1" d="M988.11,261.2l-.6.4-.8-.3s-6.1-2.4-8.8-3.4c0,1.6-.1,3.8-.1,3.8l-3.3,6.8s-2.4,2.1-2.8,2.5c-.2.5-1.3,3.4-1.3,3.4s-2.1.4-3,.6c-.4,1.4-2.1,8.4-2.1,8.4l-6.1.5s-1.1-1.3-1.8-2c-.2,1.7-.6,5-.6,5L951,300.5s-.4.7-.7,1.3c.3.3.9,1.1.9,1.1l-.5,3.3-3.9,5.1s-1.6-.4-2.2-.6l-3.1,2.3s-1.5-.3-2.3-.5c-.6,1.3-1.8,4.5-1.8,4.5l-5.5,2s-1.8-1-2.6-1.4c-.7.4-1.8,1-1.8,1l-3.4,1.5-5.1-1.3s-2.3-2.6-3.5-4c-1.8,2-10.3,11.2-10.4,11.3s-.9,1.4-1.3,1.9v2.7s-3,1.6-4.8,2.6l3.6-.5,9.2-1.1s6.9-.2,7.7-.2c.6-.4,2.9-2.2,2.9-2.2s7.4.4,7.7.4,40.7-5.7,40.7-5.7l61.4-13.3c-.9-1.5-1.7-2.9-2.3-3.9-1.5.4-6.1,1.8-6.1,1.8L1020,305s2.8-1.5,3.6-2a8.32,8.32,0,0,1-.2-1.3l-2-2s-.1-.9-.1-1.4c-.7-.5-2.5-1.7-2.5-1.7l-.2-4.1,1.9.1-.2-.2s.4-1.6.5-2.2c-.4-.3-1.4-1.1-1.4-1.1s.4-4.5.5-5.4c-.1-.1-.1-.2-.2-.3-.9-.1-3.9-.5-3.9-.5s-.6-2.4-.8-3.4l-1.3-.2-3.2-1h-4.8l-6.4-1.6-.9-3-.2-3s1.9-2.5,2.3-3c.1-.5.3-2.2.5-3-.4-.5-1-1.2-1.2-1.5-.4-.2-1.6-.9-1.9-1s-7.2-1.6-7.2-1.6-.1-2.5-.1-3.4a7.25,7.25,0,0,0-1.2-.5C989.21,260.6,988.61,261,988.11,261.2Zm44.3,18.4a8.47,8.47,0,0,1,.1,1.3l-.9,3.7s-1.5,4.1-1.7,4.5c0,.4-.4,5-.4,5.4s.4,1.4.8,2.7c.2-.1.3-.3.4-.4.2-.6,1.6-4.2,1.8-4.7-.1-.6-.5-3.5-.5-3.5l.5-5.6s2.9-3.8,3.3-4.2a4.33,4.33,0,0,0,.1-.5C1034.21,278.9,1033.21,279.3,1032.41,279.6Z" transform="translate(-11.1 0.1)"/><path class="cls-1" d="M931.81,243.8l-.6,5.6-.3,6.5-2.7,4.7-3.6,3.9-3.1,2.2s-1.4-.3-2.1-.5c-.4.4-.7.8-.8.9s-2.4,3.6-2.4,3.6-.5.7-.8,1.1v1.7c.3.5,1.4,2.2,1.4,2.2l-.9,3-4.1,2.2s-.8-2.8-.9-3.3a.77.77,0,0,0-.3-.2c-.2,1-.8,3.1-.8,3.4s-.2,5.9-.2,5.9-1.3,1.2-1.8,1.6c-.1.8-.2,3.3-.2,3.3l-3.2,1.3a6.82,6.82,0,0,0-1.2.1c.1,1.5.2,3.5.2,3.9a9.74,9.74,0,0,0,.5,1.1c.6.3,3,1.7,3,1.7s.6,2,.7,2.6c.6.5,4.6,3.7,4.6,3.7s1.6,3.2,1.8,3.9c.6.4,3.3,2.1,3.3,2.1s2.4,3.3,2.5,3.4.5.6.8.9c.6.1,2.5.6,3.2.8.6-.3,2-.8,2.1-.9s3.2-1.9,3.2-1.9,2.5,1.3,3,1.5a19.63,19.63,0,0,0,3-1.1c.4-.8,2.5-5.6,2.5-5.6l3.3.8c.7-.6,3.3-2.4,3.3-2.4s1.2.3,1.7.5c.7-1,1.9-2.7,2.2-3.1a3.75,3.75,0,0,0,.1-1.1c-.3-.4-1.2-1.5-1.2-1.5l5.8-12.8s1.3-3.3,1.4-3.6.8-6.6.8-6.6l2.8-1.5s2.2,2.3,2.8,3c.7-.1,1.6-.1,2.6-.2.3-1.2.9-3.3.9-3.3l1.2-4.8s2.2-.4,3.1-.6c.4-.8,1.1-2.6,1.1-2.6s2.5-2.4,2.8-2.7,2.5-5,2.7-5.5c0-.6.2-7.4.2-7.4l6.6,2.5s2.8,1.2,4.6,2c.2-1.5.4-2.7.5-3.4l-.9-.9s-1.7-1.6-2-1.8-3.9-2-3.9-2a7.82,7.82,0,0,1-1-.8,8.11,8.11,0,0,0-1.1.3c-.4.3-2,1.4-2,1.4l-3.1,2.5-4,.4a5.9,5.9,0,0,1-.8-.4c-.6.8-1.3,1.9-1.3,1.9l-2,2s-2,.5-2.6.6c-.5.6-2.2,2.9-2.2,2.9l-4.4,5.3-1.7-9.7s-.6-2.5-.9-4c-2.2.3-12.3,1.8-12.3,1.8l-6.4,1s-1.4-7.5-2.4-13.5C931.81,242.8,931.81,243.8,931.81,243.8Z" transform="translate(-11.1 0.1)"/><path class="cls-1" d="M919.91,207h0c-.1,0-3.8,2.2-4.1,2.4s-3.6,3.9-3.6,3.9l-4.8,4.6-3.9,1s-2.7.5-3.1.5l-6.1,2.9-3.2.2s-2.9-2.6-3.7-3.3c-1.1.1-5.5.7-5.5.7l-3.2-1.8s-1.6-.9-2.2-1.2c-.8.1-4.8.7-4.8.7l-11.1,1.8-10.9,2.1c.2,2.2,1.3,14.7,1.3,14.7l2,15,2.8,25.6s.3,2.4.5,3.9c1.2,0,2.7-.1,3-.1l3-1,4.7,2.1s1.6,3.3,2.1,4.4h5.3s1.5,1.7,2.1,2.3h.9c.5-.2,2.9-1.5,2.9-1.5l3.2.5,5,.5c.6-.7,1.6-2,1.6-2l3-1.6L897,283s.7,3.1.9,3.9l1.4.7s2.9,1.9,3.5,2.4c.6,0,1.4-.1,1.7-.1.1,0,.2-.1.3-.1.1-.9.2-2.7.2-2.7s1.2-1.1,1.7-1.6c0-1,.1-4.8.1-4.8l1.3-5.3,2.9-1.3s2.4,2.1,2.5,2.1c-.4-.6-1-1.7-1-1.7l.1-3.4,1.1-1.5L916,266l1.8-2.5s2,.5,2.6.6c.6-.4,1.6-1.2,1.8-1.3s3.1-3.4,3.2-3.5,2.4-3.5,2.7-4c.1-.7.3-5.1.3-5.1s.5-5.3.5-5.4-.2-5.1-.2-5.5-1.1-3.4-1.1-3.4l.6-2.1a22.55,22.55,0,0,0,1.6-1.6c-.4-1.4-2.3-9.1-2.3-9.1s-2.3-15.4-2.9-19C922.71,205.1,919.91,207,919.91,207Zm-6.4,69.2h0c0-.1,0-.1-.1-.2C913.51,276.1,913.51,276.1,913.51,276.2Z" transform="translate(-11.1 0.1)"/><path class="cls-1" d="M842.11,220.8l-24,2.5s-4.7.2-5.3.2c-.5.3-2.4,1.4-2.6,1.5s-2.4,2.2-2.4,2.2l-2.2.6-2-1.3c-.1,0-.6-.2-1.1-.3.2,3,.9,10.7.9,10.7l1.4,16.8,1.4,17.5.5,7.8s-.8,5.6-.9,6c.1.3.2,2.5.3,3,.3.5,1.9,3,1.9,3l.6,7.2s-2.9,4.8-3,4.9-2,4.3-2,4.3-1.9,2.5-2.3,3c-.1.7-.5,4.5-.5,4.5v.5l1.2-.6,6.3-1.1,5.7-.6s1.7,1.8,1.9,2.1h0c.5-.9,1.2-2.4,1.2-2.4l4.8-2,2.4,1.7c0-.3-.1-1.7-.1-1.7l3.7-2.1,3.7-1.9,2.1,2.1h2c.1-.2.1-.3.2-.4-.1-.5-.4-2.8-.4-2.8l3.5-5s3.9-2.8,4.7-3.4c.1-1,.7-5.8.7-5.8s4.1-.7,4.4-.8,3.4-1.5,3.6-1.6,1.2-.7,1.9-1.2v-.2c-.3-.4-1.4-2.1-1.4-2.1s.4-2.5.4-2.9-.6-6.1-.6-6.1l-4.6-40.2s-1.3-13.5-1.5-16C845,220.5,842.11,220.8,842.11,220.8Z" transform="translate(-11.1 0.1)"/><path class="cls-1" d="M745.91,209.9h0c.7.3,2,.7,2,.7l1.5,1.9s.3,1.3.4,1.9c.6.5,4.2,3.7,4.2,3.7l1,3.2-.9,4.3-2,4c-.1.3-.8,3.1-.8,3.1l-3.1,2.4-2.2.9s-4,1.1-5.1,1.3c-.2.6-.5,1.3-.5,1.3a12.69,12.69,0,0,1-.6,1.6,1.33,1.33,0,0,1,.3.7c.4.3,2.3,2,2.3,2l-.3,5.8s-1.8,1.6-2.2,1.9c-.1.3-.4.9-.5,1.2v3.8l-2.8.7c-.2.2-.6.4-1,.7,0,.3-.1.5-.1.7s.3,2.9.3,2.9-1.7,1.3-2.2,1.7c-.2.5-.7,1.9-.9,2.3.1.6.4,3.3.4,3.5s2.2,6.9,2.3,7.5c.4.5,7.4,7.7,7.6,7.9l6.6,4.4s-.2,4.3-.3,5.1c.1.2.2.3.3.5l6.6.5,4.2,2.1-1,5.2s-2.4,6.3-2.5,6.5-.4,2.1-.6,2.8c.4.7,1.9,3.2,2.1,3.5.4.3,5.9,4.9,6.5,5.3l5.4.8s2.4,5.9,2.5,6.1,2.5,4,2.5,4-.8,2.7-1.1,3.4c.3.7,1.3,3.4,1.5,3.8a7.36,7.36,0,0,0,1,1.1c.1,0,.1,0,.1-.1.2-.6,1-2.2,1-2.2l2.9-2.3,3.1-.9,3.3,1.5,3.3,1.2a2.48,2.48,0,0,1,.1-.9c-.3-.6-1.4-2.7-1.4-2.7l.5-3.7,2.7-2,3.3-.9-.1-.1-1.3-3.8s1.7-1.1,2.1-1.4c.2-.6.9-2.5,1-2.8v-3.3l.7-5.7s2.5-3.1,2.7-3.4,2-4.3,2-4.3,1.9-3.4,2.3-4.1c-.1-.7-.3-4.4-.4-5-.3-.5-2.2-3.9-2.2-3.9l-.1-4.1s.7-5.4.7-5.7-.9-7.7-.9-7.7l-1.2-17.3-1.4-16.4s-1-12.3-1-12.6a5.07,5.07,0,0,1-.2-.9l-.9-2.8s-1.1-3.2-1.3-3.7c-.3-.3-1.7-1.8-1.7-1.8l-1.8-3.3s-.1-3.2-.2-4.9C790.21,207.4,748.71,209.8,745.91,209.9Z" transform="translate(-11.1 0.1)"/><path class="cls-1" d="M1068.51,171.7l-21.6,4.8.6,2,1.6,8.2.2,10.3s-.6,1.1-1,1.8c.1.2.2.2.3.3,1.3-1.1,3.6-3.3,3.6-3.3l3.9-3.5,3-3.2a10.59,10.59,0,0,1,1.2,1c.8-.5,2.3-1.2,2.3-1.2s5.5-1.2,5.7-1.3,5.5-2.2,7.2-2.9c-.5-1.9-2.9-11.6-3.4-13.7C1070.81,171.2,1068.51,171.7,1068.51,171.7Z" transform="translate(-11.1 0.1)"/><path class="cls-1" d="M734.21,105.5c-.2.2-3.1,2.1-3.1,2.1l-8.4,3.6-3.6.8-3.9-.6-.2-.2c-.5.7-.9,1.2-1.1,1.5,0,.6-.2,2.6-.2,2.6v9.6l-1.7,2.3s-5,3.7-5.6,4.1c-.2.6-1.4,3.6-1.9,5l2.8,2.3,1,4.5s-1.8,3.1-2.1,3.7v3.9s.4,5.7.4,6.6l2.4,2.4h4s1.6,2.8,2.1,3.6c.9.1,3.7.5,3.7.5s4.1,6,4.4,6.5l7.7,4.5,2.7,3.5,1.1,8.5s.4,2.1.6,2.9c.6.4,2.5,1.8,2.5,1.8l.4,2.6s-1.9,3.2-2.3,3.8a24.53,24.53,0,0,1,.2,2.7c.3.5,1.9,3,2.3,3.6a19.49,19.49,0,0,0,2.2,1c.4.1,3.5.5,3.5.5l1.4,1.4c1.2-.1,44.8-2.6,47.4-2.8,0-.9-.1-1.7-.1-1.9s-1.3-4.9-1.3-4.9-.7-6.1-.7-6.6c-.2-.4-1.4-2.9-1.4-2.9l1.2-3.9.9-3.3s1-1.9,1.4-2.5c-.2-.8-.6-3.2-.6-3.2l-.8-4.2.7-2.6,2-2.5a14.09,14.09,0,0,0,.1-2.1c-.3-.4-1-1.5-1-1.5l.8-3.2c-.1-.5-.5-4.7-.5-4.7l3.2-6.6s1.5-3.4,2.4-5.5c-1.1,1.7-2.3,3.4-2.3,3.4l-3.1,4.6s-1.6,1.4-2,1.8c-.2.5-1,2.8-1,2.8s-1.7.7-2.3.9c-.3.5-1.5,2.6-1.5,2.6l-3.7-.8-.3-3.4,1.6-3,2.4-5.3s1.6-1.4,1.9-1.8c.1-.3.3-.6.5-1.2l-2.3-1.7s-1.8-9.7-2.1-11.1c-1-.4-3.5-1.3-3.5-1.3s-1.6-1.9-2.1-2.4l-12.8-2.9-3.2-1.1-8.9-2.3-9.1-1.3-3.6-4.9-.1.1-2.6-.4a7.26,7.26,0,0,1-.5-.9,1,1,0,0,0-.4.1,8.91,8.91,0,0,0-1.1.2c-.4.2-2.5,1.4-2.5,1.4l-2.7-1.8,1.1-3.3,2.3-3.7.2-.1a.1.1,0,0,1-.1-.1A2.87,2.87,0,0,0,734.21,105.5Z" transform="translate(-11.1 0.1)"/><path class="cls-1" d="M1029.51,314.3l-12.2,2.6-21.8,4.6-23.6,5.2-16.7,2.3L938,331.5l-7.9.9h-3.4c-.1,1.2-.2,2.7-.2,2.7l-.7,2.9s-2.9,2.6-3.3,2.9c-.2.5-2.1,4.6-2.1,4.6s-2.7-.4-3.2-.5a12.75,12.75,0,0,1-1.4.4c-.5.7-2.7,4.3-2.7,4.3l-1.1-.2-1.7-.3a2,2,0,0,1-1.4-.6l-3,3c-.1.7-.8,3.6-.8,3.6l-5.3,2.6c-.3.2-4.6,3.9-4.6,3.9s-4,1.5-4.3,1.6-3.1,2-3.9,2.6c-.2.9-.8,4.4-.8,4.4s-3.1.7-3.6.9a9,9,0,0,0-1.2,1c0,.4-.1,1-.2,2,3.1-.4,20.7-2.5,21-2.6s6.5-2.7,6.5-2.7l10-5,8.2-.9,18.6-.6,3.9,2.8s.9,1.8,1.4,2.9c1.3-.2,3.6-.6,3.6-.6l14.2-1.6,3.6,1,14.1,8.5,10.4,8.6c1.1-.3,5.4-1.3,5.4-1.3s2.8-.3,4.1-.4a15.4,15.4,0,0,0,.3-1.6l2.2-7.5,4-5.5,7.4-6.1,6-2.8,3.6-.8a11.43,11.43,0,0,1,1.4.6h.3c.4-.6.9-1.4,1.6-2.6-.2-.6-.8-2-.9-2.4h-5.6s2.2-7.1,2.5-8.2c0-.1,0-.1-.1-.2h-2.8v-2.3c-.1-.3-1.4-5.5-1.4-5.5l4.9,3.9a6.82,6.82,0,0,0,1.2.1s1.7.2,2.3.3c.5-.2,2.5-1.1,3.2-1.4.3-.7,1.1-2.5,1.1-2.6s.9-2.8.9-2.8l2.6-1.3c.1-.9.2-2.1.2-3-.1-.1-3.2-2.6-3.2-2.6s4.2-.3,4.6-.3a.49.49,0,0,1-.1-.3l-2.5-2.5-4-7.3s-1.3-2.9-1.9-4.4C1032.31,313.7,1029.51,314.3,1029.51,314.3Z" transform="translate(-11.1 0.1)"/><path class="cls-1" d="M1081.91,148.5c-.4.5-2.2,3.2-2.2,3.2l-3,.8-19.3,5.1c-.1,0-7.5,1.4-7.5,1.4s-2.3.5-3.6.7c-.1,1.8-.6,10-.6,10.3s.3,2,.5,3.5l21-4.7,5.6-1.2,7.8-2.2,3,2.6,3.9,4.9s1.5,2.5,2.3,3.9h0c-.2-.7-.4-1.9-.4-1.9l1.4-2.5,5.2-2.6s.7,2.8,1,3.8c.3-.4,1.2-1.4,1.2-1.4l2.8-1.4c-.1,0-4.7-.6-4.7-.6s-4.4-6.8-4.5-7-1.4-1.6-2-2.3h-.8c-.4.3-2,1.4-2,1.4l-3.4-4.5.5-2.4s1.8-3.9,2.3-5.1c-.5-.7-1.3-2-2-3.1A9.93,9.93,0,0,1,1081.91,148.5Zm22.7,20.9c.8-.3,1.1-.4,1.7-.6a4.14,4.14,0,0,1-.1-1C1105.71,168.2,1104.61,169.4,1104.61,169.4Z" transform="translate(-11.1 0.1)"/><path class="cls-1" d="M921,334.2l-.4.3h-8c-.2,0-20,2.6-20,2.6l-8.7,2.1-56.8,5.5-17.2,1.9-5.1.6h-2.9c-.1,1.3-.2,4.4-.2,4.4l-10.3.3-7.5.7s-6-.1-7.8-.1c-.4,1.7-1.3,6.5-1.3,6.5l-2,6.6s-3.1,2.5-3.6,3c-.2.7-1.3,4-1.3,4.2s-.4,3.4-.4,3.4-2.7,1.5-3.9,2.2c.4,1.2,1.3,3.1,1.3,3.1s-.6,2.7-.9,4c5.5-.5,111.8-10.8,114.1-11,.1-1.2.4-3.7.4-3.7l2.7-2.2s1.6-.4,2.5-.7c.2-1.1.7-3.7.7-3.7l5.2-3.4s3.9-1.4,4.3-1.6,4.4-3.9,4.4-3.9,3.3-1.5,4.3-2c.1-.9.5-3,.5-3l5.1-5,2.5-.5a13.13,13.13,0,0,0,.3,1.5c.3,0,.6.1.9.1.7-1.1,2.2-3.5,2.2-3.5l3.1-1s1,.1,1.7.2c.5-1.1,1.4-3.2,1.4-3.2s2.5-2.3,3.1-2.8c.1-.6.3-1.4.3-1.6s.1-1.4.2-2.5h-.3A33.75,33.75,0,0,1,921,334.2Z" transform="translate(-11.1 0.1)"/><path class="cls-1" d="M680.11,357.4c.5,2,1.4,5.9,1.4,5.9v9.1c.1.2,1.5,12,1.5,12s.3,39.4.3,40.7a10.9,10.9,0,0,1,1.3,1.1c.9-.4,3-1.4,3-1.4l4.4,1.8s.5,4.9.7,6.7c2.5,0,56.9-1.2,58.6-1.2.3-.5.4-.8.6-1.1-.1-.6-.2-2.6-.3-3.1-.3-.5-2.5-4-2.5-4s1.3-1.2,1.8-1.6c-.5-.8-1.4-2.2-1.4-2.2l.9-3.4,1.6-6.6s1.6-1.3,2.4-2c-.2-.7-.7-2.2-.7-2.2l4.6-6.8s1.6-.8,2.5-1.2a3.55,3.55,0,0,0-.1-.7l-.4-2.3,3.6-7s1.6-.8,2.3-1.2c.1-1,.4-3.1.4-3.2l-1.2-.2-2.1-6.2s2.9-2.5,3.5-2.9c.2-.6.5-1.8.5-1.8l1.4-4.5s.2-.7.4-1.2c-.9.2-2.1.4-2.1.4l-7.5-.9,1-3.8,3.3-2.8a22.14,22.14,0,0,0,.7-3c-.3-.5-.8-1.3-1.2-2C761.51,354.7,683.51,357.2,680.11,357.4Z" transform="translate(-11.1 0.1)"/><path class="cls-1" d="M658.21,259.4H658c.2.3.6,1.1.6,1.1s-.2,1.8-.2,2.4c.4.7,2.5,3.8,2.5,3.8s3.1,4.1,3.2,4.3,2.4,2.1,2.9,2.6c.6.1,2.2.2,2.2.2l2.6,1.6v4.7s-1.6,1.4-2.1,1.9l-.3,1.5c.4.7,1.8,3,1.9,3.2s2.3,2.8,2.5,3,3.1,2.3,3.1,2.3l1.6,13.4.4,39.6.2,5.1s.2,2.8.4,4.4l23.1-.9,25.4-.8,22.7-.9,13.6-.3,3.1,4.9-1,4.7s-2.4,1.9-3.2,2.5c1.7.2,3.5.3,3.7.3s2.1-.4,3.2-.6c.4-1.2,1.5-4.8,1.6-5s.7-6.7.7-6.7l2.7-3.3s1.5-.9,2.3-1.3c0-.9.1-2.8.1-2.8s.5-1,.9-1.6a5.58,5.58,0,0,1-.5-.8,14.63,14.63,0,0,0-1.3.9l-3.3-3.7-1.6-5.9s.6-1.8.8-2.6c-.5-.8-1.9-3.3-1.9-3.3s-1.3-3.2-1.7-4.3c-1.1-.2-4.8-.8-4.8-.8l-8.2-6.6-2.2-5.3,1-4s2.2-6.4,2.2-6.6.2-1.1.3-2a3.05,3.05,0,0,1-.9-.5c-.5-.1-8-.9-8-.9l-1.7-2.8s-.1-3.1-.1-4.2c-1.1-.7-5.5-3.4-5.5-3.4l-8-8.9-2.6-8.5-.3-5.1s.4-1.3.7-2c-.7-.8-2.3-2.9-2.3-2.9s-.5-1.1-.9-1.8C725.81,256.9,658.31,259.4,658.21,259.4Z" transform="translate(-11.1 0.1)"/><path class="cls-1" d="M858.41,379.9V381l.2,2.2s.6,3.1.6,3.4,3.7,8.6,3.7,8.6l2.7,10.9,1.6,6.7,1.7,5.3s1.6,7.4,1.6,7.6,2,6.1,2.2,6.6c.3.3,2.9,3.8,2.9,3.8s.3,2.3.5,3.3c.6.3,2.2.9,2.2.9l.3,3.5s-1.9,5.2-2,5.5-.5,3.4-.5,3.4-.1,1.2-.1,1.7c.2.5,1.7,4.7,1.7,4.7l.4,6.3s-.5,1.4-.7,2.2h0c.4.2,2,1.1,2,1.1s.2,3.3.3,3.9c.3.5,2,3,2.1,3.2s1.4,1.3,1.9,1.8c1,0,8.1.2,8.1.2l35.2-2.1,6-.8,6.5.1s.1,2.6.2,3.5h.1c.1-1.2.2-2.3.2-2.6-.2-.5-1.9-5.4-1.9-5.4l2.2-3.1,7.3,1s2,.1,3.6.2c-.2-2-.7-5.4-.7-5.4L953,452s1.3-3.8,1.5-4.4l-.5-3s2.2-4.3,3.2-6l-.7.3-4-2-.9-2.9s-1.1-3-1.3-3.5a16.18,16.18,0,0,1-1.9-1.8c-.6-.1-3.2-.8-3.2-.8l-2-6.1s-2.5-5.4-2.9-6.3c-.8-.4-4.3-2-4.3-2l-2.7-2.5-1.4-2.8c-.3-.3-1.8-1.7-2-1.8s-2.6-1.5-2.6-1.5-2.3-3-2.5-3.3-2.8-2-3-2.2-5.4-2.1-5.4-2.1-.5-1.6-.7-2-2.6-3.2-2.6-3.2-.5-1.4-.6-1.7-2.5-3.6-3.1-4.6c-1,0-3.5.1-3.5.1l-4.6-2.9-2-1.8-.6-2.9,1.4-3,1.6-.8C898.81,375,860.71,379.6,858.41,379.9Z" transform="translate(-11.1 0.1)"/><path class="cls-1" d="M927.71,366c-.1,0-7.7.8-8.2.9s-9.7,4.9-9.7,4.9-3.7,1.5-5.3,2.1c.2.6.6,2.5.6,2.5l-3.1,1.3c-.2.4-.3.8-.5,1.2.1.3.1.7.2,1.1l.9.9c.3.2,3.3,2,3.9,2.3.7-.1,4.1-.2,4.1-.2l4.3,6.5s.4,1.1.5,1.5c.3.4,2.7,3.2,2.7,3.2s.2.7.4,1.2c1,.4,4.5,1.7,4.5,1.7l3.7,2.7s2.1,2.7,2.4,3.1c.4.2,2.4,1.3,2.4,1.3l2.6,2.4,1.4,2.8c.3.3,1.7,1.5,1.9,1.8.4.2,4.9,2.2,4.9,2.2l3.2,7s1.2,3.5,1.6,4.7l2.4.6,3,2.8,1.6,4.2s.3,1.1.5,1.8c.5.3,1,.5,1.6.8.6-.3,1.3-.7,1.3-.7s1.8-1.1,2.1-1.3,3.9-4.3,4.8-5.2c-.3-.9-1.3-4.5-1.3-4.5s3.7-.2,4.5-.3c.6-.6,3.7-3.5,3.7-3.5l1.6-.8,2.3-3.5,3-3c.2-.3,2.5-4.2,2.5-4.2s1.7-.5,2.5-.7c.3-.8,1.2-2.8,1.2-2.8a15.47,15.47,0,0,1,1.5-.8c.1-1.3.5-6.3.5-6.3l3-7.2,5-5c-2-1.6-9.6-7.7-9.7-7.8s-13.2-7.9-13.5-8.1-2.3-.6-2.7-.8c-.6.1-13.5,1.6-13.5,1.6l-5.7.8s-1.9-3.7-2.1-4.3c-.4-.3-1.7-1.2-2.2-1.6C943.81,365.5,927.81,366,927.71,366Z" transform="translate(-11.1 0.1)"/><path class="cls-1" d="M860.21,283.2l-.2.1s-2.3.1-3.6.1a10.63,10.63,0,0,1-.3,1.4l1.1,1.4.4,3-3.5,2.4-4.4,1.9s-1.3.2-2.3.4c-.2,1.4-.7,4.8-.7,4.8l-5.5,4c-.2.4-1.9,3-2.4,3.7.1.7.4,2.3.4,2.3l-1.1,3-5.3.1s-.9-1-1.3-1.5c-.7.3-1.4.7-1.4.7s-1.6.9-2.6,1.4c.1.9.2,3.6.2,3.6l-3.7.8s-.6-1.5-.7-1.8a5.65,5.65,0,0,0-1.4-.9c-.7.3-1.7.7-2.2.9-.4.7-2.2,4.3-2.2,4.3l-3.2-1.8s-.7-.9-1.2-1.4l-4.1.4s-5.1.9-5.5,1c-.2.1-1.8.9-2.6,1.2-.2.5-.4,1.3-.9,2.7l-.4,1.1-.4.3a3.08,3.08,0,0,0-.7.5,6.2,6.2,0,0,1,.3,1.1l.8,1.8.6,1.4-3.3,1.3-2.6.6c-.3.2-.9.7-1.4,1.1-.1.5-.1,1-.2,1.4.3.6,1.4,2.6,1.4,2.6l-.3,3.9-2.7.8-4.3-1.6s-1.9-.9-2.6-1.2l-1.5.5c-.3.2-1.5,1.2-1.9,1.5a6.89,6.89,0,0,1-.4,1c.5.8,1.8,2.8,1.8,2.8s-1,2.1-1.2,2.5-.3,3.9-.3,3.9-1.1.7-1.3.8H784l7.4-.7s5.7-.1,7.7-.1c.1-1.3.2-4.6.2-4.6h5.6c.2,0,5-.6,5-.6l17.2-1.9s56.4-5.3,56.6-5.3,7.2-1.8,7.6-1.9,6-3.6,6-3.6,3-1.5,4.1-2c0-.7.1-1.8.1-1.8l1.6-2.3,5.4-6,3.9-4.4s.7-.7,1.3-1.4c-.6-.4-1.6-1-1.6-1s-1.8-3.5-2-4c-.4-.3-4.6-3.8-4.6-3.8s-.6-1.7-.8-2.4c-.6-.4-2.7-1.6-2.7-1.6l-1.2-2.4s-.1-4.7-.1-5.8c-.7-.6-2.1-1.6-2.2-1.8l-2.7-1.4s-.3-1.4-.5-2.1c-.1.1-.4.1-.4.1-.2.1-2.1,1.2-2.5,1.4-.3.4-2.2,2.6-2.2,2.6l-3.6-.3s-4.6-.5-5.4-.6c-.6.3-2.7,1.3-2.7,1.3l-2.8.2s-1.7-1.9-2.3-2.5h-5.9s-2-4.3-2.4-5.1c-.7-.3-2-.9-2.7-1.1C861.51,282.8,860.21,283.2,860.21,283.2Z" transform="translate(-11.1 0.1)"/><path class="cls-1" d="M810,383.9c-.1,1.7-.2,5.7-.2,5.7l.2,18.1-.9,34s-.2,15-.2,15.2,3,20.4,3,20.4,1.3,12.2,1.5,14.4h1.5c.4-.8.9-1.8.9-1.9s2-6,2-6l4.5,1.3,3.8,7.4v1.6c1.4-.6,2.3-1,3.1-1.4-.1-1.5-.4-6-.5-7-.7-.5-2.4-1.8-2.4-1.8l-2.5-2.5.4-5,12.6-1.7,27.9-3.2,7.6-.7s2.7.2,4.5.3a1.7,1.7,0,0,1-.1-.7,7.47,7.47,0,0,1-1.2-.7l-1.4-1.7s.9-2.7,1.1-3.1c0-.5-.3-4.9-.3-5.4-.1-.3-1.8-4.9-1.8-4.9l.2-2.5.6-3.8s1.7-4.6,1.9-5.1c0-.3-.1-.6-.1-1.1-.6-.2-2-.8-2-.8s-.5-3.6-.6-4.2c-.4-.5-2.7-3.6-2.7-3.6l-2.4-7.2s-1.6-7.4-1.6-7.6-1.7-5.2-1.7-5.2l-1.6-6.8s-2.6-10.4-2.6-10.7-3.7-8.7-3.7-8.7l-.7-3.9-.2-2.6V380C852.51,380.4,812.41,383.6,810,383.9Z" transform="translate(-11.1 0.1)"/><path class="cls-1" d="M692.71,436v9l.7,10.1s.6,3.4.7,3.8c.3.4,2.7,4.5,2.7,4.5s.9,4.8,1,5.4l4.8,6.1s.2,2.6.2,3.4c.2.2.8.9.8.9l-.8,10.2s-2.2,3.7-2.9,4.9c.5.7,1.6,2.1,1.6,2.1s-.8,3.1-.9,3.3-.8,8.1-.8,8.1-1.3,2.9-1.5,3.4a13.92,13.92,0,0,0,.1,1.7c1.5-.5,3.5-1.1,3.5-1.1l13.7.2s11.2,3.9,11.4,3.9,5.9,1,6.5,1.1c.4-.2,1.5-.6,2.5-1-.1-.1-1.3-.8-1.3-.8l.1-1c.1-.6.4-2.5,2-2.8l4-1.3.6.5,1.2,1c.5-.3,1.5-.8,1.5-.8l4.7.9,2.1,3.5a9,9,0,0,1,.2,1.6l4.3.3,3.1,3.1-1.5,3.1a.35.35,0,0,1-.2.1l.3.3c.5.2,7.5,3.2,8.4,3.6.7-.2,2-.7,2.7-1,.3-.7,1.1-2.7,1.1-2.7s2.7-.7,3.2-.8c.4-.3,2.6-2.1,2.6-2.1l2.7,2s.5,1.8.8,2.8c.3-.5.6-.9,1.1-1.7-.5-.1-1.5-.2-1.5-.2s1.4-2.7,1.6-3.2c-.1-.4-.3-2.5-.3-2.5s2.5-.6,3.1-.7c.4-.4,2.1-2.4,2.1-2.4l2.1,2.7v1.2c0,.5.1,1,.1,1.3,1.3.1,3.3.5,4,.6h.2L796,523s.6.8.9,1.3h2.9l.4.4c.5-.6.7-.9,1-1.3H801s-3.3-2.6-3.8-3.1l-6.3-.9-4.8-3.3,2.1-5.1h.2v-1.8h1.7c-.2,0-5.3-1.1-5.3-1.1l-1.9-3.5s2.3-2.5,2.5-2.8,1.2-2.1,1.6-3l-.9-2.1s-1-3.4-1.2-4.1c-.5-.4-3.9-3.7-3.9-3.7s.9-4.6,1.1-5.9c-1.7.2-9.1,1-9.1,1l-28.6.5-1.1-4,1.1-9.8,3.8-6.8s4.7-8.1,5.2-9c-.2-.7-.7-3.1-.7-3.1s1.4-.8,1.8-1l.2-.6c-.7-.6-2.3-2.1-2.3-2.1s-.1-2.1-.2-2.5-2-4.8-2-4.8-.1-3.9-.1-5.7C747.61,435.1,695.41,435.9,692.71,436Zm98.8,69.2a33.32,33.32,0,0,1-1,3.8h2.3c.4-.6.7-1.2,1.1-1.8-.4-.6-1.1-1.7-1.1-1.7s-.1-1-.2-1.6C792.11,504.5,791.71,504.9,791.51,505.2Zm-5.2,14.5Z" transform="translate(-11.1 0.1)"/><path class="cls-1" d="M768.91,388.1a3.54,3.54,0,0,1-.1.6s-2.2,1.2-2.8,1.5c-.3.7-2.3,4.5-2.7,5.2.1.5.2,1.3.2,1.3l.4,3-3.7,1.8c-.4.5-2.8,4-3.4,4.9.2.7.8,2.9.8,2.9s-2.5,2-3.1,2.5c-.2.8-1.6,6.7-1.6,6.7s-.2.7-.3,1.2c.4.7,2,3.2,2,3.2s-1.3,1.2-1.7,1.7c.6,1,1.6,2.7,1.6,2.7l.3,4.5s-1.2,2.2-1.5,2.7c0,.6.1,5.3.1,5.8.2.5,2,4.5,2,4.5s.1,1.3.1,2c.6.6,2.7,2.4,2.7,2.4l-.8,3.6a6.42,6.42,0,0,0-1,.6c.1.8.4,2.1.4,2.1l-6,10.5s-3,5.4-3.3,5.9c0,.5-.8,8-.9,8.5.1.3.2.6.4,1.1,2,0,25.7-.4,25.7-.4l8.5-.9,2.8-.3,1.7,2.2s-1,4.7-1.2,5.9c.9.8,3.5,3.2,3.5,3.2s1.3,4.3,1.3,4.5.2.4.3.8c.7-1.1,3-4.8,3-4.8s2.1.9,2.6,1.2c.9-.3,7.2-2.1,7.2-2.1l2.9.4s1.1.6,1.5.8h4.1c-.1-.5-1.6-14.4-1.6-14.4l-3-20.5.2-15.5.9-33.9-.2-18.1s-.1-3.4-.2-5.3C804.21,384.4,770.91,387.9,768.91,388.1Z" transform="translate(-11.1 0.1)"/><path class="cls-1" d="M642.71,188.9h-.9c-.2.6-.4,1.1-.5,1.4.1.4.2,1.4.3,2,.7.5,3.3,2.5,3.3,2.5l-1.8,7.3s-1.5,3.7-1.9,4.7c.4.8,1.4,2.4,1.4,2.4l1.6,2.6s1.2,5.8,1.3,6,3,8.3,3,8.3.9,4.6,1,5.1,2.5,4,2.5,4,.7,5.6.8,5.9,1.8,4.6,1.8,4.6.2,6.7.2,7.2c.2.4,1.1,2.4,1.6,3.6l72.8-2.8s1.6,3.1,1.7,3.4c.1.1.8,1,1.5,1.9-.1-.5-.2-1.3-.2-1.3l.5-2.3,2.5-1.7,1.1-.3c0-.9-.1-2.2-.1-2.2l1.1-2.4s1.2-1,1.7-1.5a30.29,30.29,0,0,0,.2-3.1c-.6-.5-1.7-1.5-1.7-1.5l-1.2-2.3,2-5.5,8.4-2.8c.2-.2,1.3-.9,1.8-1.3.2-.7.8-2.7.8-2.7s1.6-3.2,1.7-3.5.5-2.7.6-3.2c-.1-.4-.4-1.4-.5-1.9-.5-.5-4.1-3.7-4.1-3.7s-.5-1.8-.6-2.2c-.2-.2-.3-.4-.6-.7-.6-.2-2.9-.8-2.9-.8s-.3-3-.4-3.6a.1.1,0,0,0-.1-.1c-.8-.1-3-.5-3-.5l-3.3-1.7-3.2-4.8-.3-4.4s1.7-2.9,2.2-3.6a.6.6,0,0,1-.1-.4c-.7-.4-2.5-1.7-2.5-1.7s-.5-2.7-.8-4C729.41,187.6,642.71,188.9,642.71,188.9Z" transform="translate(-11.1 0.1)"/><path class="cls-1" d="M666,57.5l-.1,1.4h-32.3c.6,1.8,1.5,4.4,1.5,4.4s-.8,4.2-.8,4.5V78.7c.1.4,1.6,4.9,1.7,5.2s2.1,3.9,2.1,3.9l.5,11.1,2,14.6,2,8,.5,9.5-.3,4.1-1.9,2-1.7,1.4v.6c.3.4.7,1.2.9,1.4s4.7,3.9,4.7,3.9l.6,3.9s.3,34.9.3,37.6c2.8,0,82.6-1.2,85.7-1.2-.2-1.8-.5-4.5-.5-5-.4-.5-1.6-2.2-1.9-2.6-.5-.3-7.8-4.5-7.8-4.5s-3.5-5.1-4.1-5.9c-.9-.1-3.7-.6-3.7-.6s-1.4-2.4-2-3.3H708l-4.2-4.1-.4-7.9-.2-4.5s1.6-2.7,2-3.4c-.1-.6-.4-1.8-.5-2.4-.6-.5-3.6-2.8-3.6-2.8l3-7.9s5.5-4.1,5.7-4.3.7-.8,1.1-1.3c0-.9-.1-8.3-.1-8.3l.3-4,3.1-4.1,5.2-3.3s.8-.1,1.2-.2c.6-.7,4.8-5.3,4.8-5.3s1.3-.6,1.8-.8l2.2-3.8,2.8-4.1,3.7-3.1,5.4-2.3,10.1-4.4.2-.1h-1.8s-1.4-2.4-1.9-3.3c-1.4,0-7.5.3-8.3.3-.3.3-1.1.9-1.1.9h-2.6l-.9-2.4-.4-.8a9.64,9.64,0,0,1-1.2.2L730,78.7l-2.3,1.1h-4l-4-1.5V76.9l-.2.2-4.4-2.2s-.2-1.2-.2-1.5a3,3,0,0,1-.3.6l-3.9-.8-6.1-2.8s-3.4-2.2-4-2.6h-3.2l-1.2-.9c-.6.2-1,.3-1.4.4l-.7.7c-.1.4-.5,2.1-.5,2.1h-7.9V67.7c-1.8-.1-6.6-.3-6.6-.3s-.3-1.3-.4-1.5H674l-2.5-2.5-1.7-7.1s-.6-4.1-.8-5.3c-.6-.2-1.1-.5-1.2-.5a6.57,6.57,0,0,1-1.3-.3C666.21,51.9,666,57.5,666,57.5Zm86.9,21.4c-.2.3-.5.7-.6.9.8-.4,1.3-.6,2.2-1A6.66,6.66,0,0,0,752.91,78.9Z" transform="translate(-11.1 0.1)"/><path class="cls-1" d="M520.31,349.8c2.6.2,20.9,1.2,20.9,1.2l36.5,1.5L575,380.7s-.5,19-.5,19.3c0,.1.1.6.2,1.1.7.6,4,3.4,4.2,3.6s.6.3,1.1.6c.2-.6,1.3-3.8,1.3-3.8s2.3,3.1,2.7,3.7h.1v-2.4l6,3s-.3,2.5-.4,3.7c1.3.1,3.2.2,3.2.2s2.5,1.2,2.8,1.3,4.6.8,4.6.8,1.3.9,2.1,1.5c.7-.7,2.2-2,2.2-2l5,1s2,2.8,2.6,3.6h1.7v2.9l.6.2c.7-.7,2.5-2.6,2.5-2.6s2.2.8,2.7,1h3.5s.8,2.3,1.1,3c1,.3,4.8,1.6,5.6,1.9.2-.1.3-.1.5-.2.3-.8,2.2-4.9,2.2-4.9h3.1s1,1.7,1.3,2.4c1,.2,3.9.7,3.9.7l4.1,1.6s1.8.5,2.6.8a3.55,3.55,0,0,1,.9-.4c.2-.7.9-3.2.9-3.2h6.2s1.1.5,1.7.8l2.7-2h2.7a18.33,18.33,0,0,1,.7,1.7h2.8c.5-.6,1.9-2.4,1.9-2.4l3.4.8s2.1,2.5,2.4,2.9c.4.2,2.8,1.6,3.1,1.8s3.5,1,3.5,1h.1c-.1-4.5-.4-37.9-.4-38s-1.5-11.9-1.5-11.9-.2-9.4-.2-9.7-1.6-7-1.6-7l-.9-8s0-1.5-.1-2.8c-2.3.1-11.8.3-11.8.3l-50.7-.5-49.3-2.2-26.6-1.5-16.8-1.3C520.91,342.7,520.41,347.8,520.31,349.8Z" transform="translate(-11.1 0.1)"/><path class="cls-1" d="M516.81,371.8l-4.2,60.7L510,455.2l-33.1-1.8-31.8-3-6.9-.6c.2,1.1.2,1.6.3,2.3.6.2,1.6.4,1.6.4l3.3,3.8,1.5,4.5c.9.4,5.1,2.5,5.1,2.5s1.4,3.4,1.5,3.8c.3.4,7.6,8.5,7.6,8.5s.9,1.1,1.2,1.5c.6.2,5.6,2.3,5.6,2.3s1,1.9,1.3,2.4c.4.3,2,1.2,2,1.2s.6,3.1.6,3.5l3.6,7.2v8.8c.3.5,2.1,4.2,2.2,4.6.3.3,7.4,7.7,7.8,8.1l5.7,2.3,2.6,2.8v.4a34.4,34.4,0,0,1,3.4,2c.2.1,2.2.7,2.2.7l2,1.3c.2.1,1,.4,1.8.7l1.9-1.9c.1-.2,4.3-6,4.5-6.4s1.1-4,1.1-4l2.9-4.1,4.3-1.8,5.7-2.2s3.1,2.3,3.7,2.7c.7,0,7.7.7,7.7.7l7.9,1.3,3.7,3v1.4c.5.6,2.3,2.7,2.4,2.9s6.9,6.1,6.9,6.1.1,1.2.2,1.7c.4.5,1.9,2.1,1.9,2.1s.9,4.5.9,4.9,5.9,13.6,5.9,13.6-.1,1-.1,1.6c1.1.7,4.2,2.6,4.2,2.6s3.9,7.3,4,7.5,3,3.8,3.4,4.3c.6.2,3.6,1.4,3.6,1.4l2.4,3.4s-1.1,3.8-1.4,4.8c0,.1.1.1.1.2l2,1-.5,5.2-.5.5c.1.5.2.7.3,1.1.7.4,3.6,2.2,3.6,2.2s1.4,7.1,1.5,7.5,1.6,3,2,3.6c.8.3,7.5,3.3,7.7,3.4s5.8,1.3,5.8,1.3,4.1,3,4.6,3.3c.5.1,2.2.4,2.8.6a13,13,0,0,1,1.4-.5l6.7,1.4s4.4,3,5.6,3.9l2.2-1.4a1.76,1.76,0,0,1,.4-.5c-.6-.9-1.6-2.5-1.6-2.5l-1.1-7-1.9-7.5-1-2.9.9-5.3,1.3-4.4,1.4-4.9s1-3.8,1.3-5.1c-.7-.6-2.6-2.3-2.6-2.3l1.9-3.9s3.6-.3,4.6-.4c.7-.9,4.2-5.9,4.2-5.9s3.6-.7,4-.8,5.9-3.6,6.1-3.7,2-1.6,2-1.6l7-3.8s6-2.6,6.2-2.7,5.7-3.5,5.7-3.5l2.9-2.2,6.2-5.8,1.6-1,2.2-1.6s2-1.5,2.5-1.9c.2-.4,1.1-2.3,1.1-2.3l11.4-5.2s3.6-1,5.1-1.4c-.1-1.1-.3-3-.3-3s1.5-3.4,1.7-3.8c0-.4.7-8,.7-8s.4-1.3.6-2c-.5-.6-1.8-2.5-1.8-2.5s3.1-5.5,3.4-6c0-.6.6-7.1.7-8.2-.2-.2-.7-.8-.7-.8s-.2-2.9-.2-3.5c-.4-.6-4.5-6-4.5-6s-.9-5-1-5.5c-.3-.4-2.9-4.8-2.9-4.8l-.8-4.3-.8-10.5V434.6s-.4-4.4-.5-5.7c-.6-.3-1.1-.4-1.6-.7-.8.3-3.6,1.6-3.6,1.6s-3.1-2.5-3.3-2.7l-1.4-.7c-.3-.1-3.1-.9-3.1-.9l-4.2-2.5-2-2.4a1.27,1.27,0,0,0-.6-.1c-.5.7-1.5,2-1.5,2h-6s-.7-1.2-.9-1.7c-.7.6-3.3,2.5-3.3,2.5s-2-1-2.5-1.3h-3.4c-.2.8-.7,2.3-.7,2.3l-3.1,1.7-4.3-1.5s-3.3-1.1-3.5-1.2-4.9-.8-4.9-.8a15,15,0,0,0-1-1.6c-.5,1.3-1.3,3.6-1.3,3.6l-2.8,1.3-8.1-2.7-.9-2.4h-1.6s-1-.3-1.8-.5c-.7.6-2.6,2.3-2.6,2.3l-4.3-1.5s.1-1.6.2-2.1l-.5-.2s-1.8-2.7-2.3-3.4c-.7-.1-1.9-.3-2.7-.4-.6.6-2.8,2.7-2.8,2.7s-2.8-2.4-3.3-2.8l-4.1-.6s-2.7-1.1-3.1-1.3l-5.7-.1s.3-2.9.4-4.2l-4.6-.1a.35.35,0,0,1-.1-.2l-2.2,1-2.9-2.1-5.3-4.7-.1-2.9.3-19.9s2.1-21.4,2.4-24.2l-32.4-1.2-23.6-1.1C518.21,355.3,516.81,371.8,516.81,371.8Zm70.1,36a.37.37,0,0,1,.1-.3h-.1Z" transform="translate(-11.1 0.1)"/><path class="cls-1" d="M388.61,457.8c2.2.3,11.8,1.5,14,1.8.3-2.2,1.4-10.9,1.4-10.9s28.1,2.7,31.5,3c-.3-1.5-.9-5.1-.9-5.1l11.3.7,33,3.2s25.8,1.6,28.4,1.7c.3-2.4,2.3-19.1,2.3-19.1l4.2-61,2-22.7,1.7.1c.1-2,.5-7.4.7-9.3-2.7-.3-108.1-11.1-110.8-11.3C406.91,331.7,389,454.9,388.61,457.8Z" transform="translate(-11.1 0.1)"/><path class="cls-1" d="M539.11,339.2c2.6.1,25.4,1.3,25.4,1.3l48.7,2.2,50.3.5s10-.2,12.3-.2c0-2.7-.2-38-.2-38s-1.2-10.3-1.3-11.5l-2.1-1.5-3.5-3.7-2.3-4.3.5-3.4s1.4-1.3,1.9-1.8V277a5.73,5.73,0,0,0-.7-.4h-2.4l-2.4-2.4h-5l-48.4-1.1-44-.9s-20.2-.6-22.7-.7C543,274.2,539.21,336.4,539.11,339.2Z" transform="translate(-11.1 0.1)"/><path class="cls-1" d="M509.21,242c2.7.2,35.2,3.2,35.2,3.2s-1,20.6-1.2,23.2l22.8.8,44.6,1,47.5,1h2.3c-.4-.4-1-1.1-1-1.1l-4.1-6.5s.1-2.1.2-2.6c-.3-.6-3.5-7.6-3.5-7.6s-.3-6.7-.3-7.1c-.2-.4-1.7-4.6-1.7-4.6s-.5-4.8-.6-5.4c-.3-.5-2.7-4.1-2.7-4.1s-.6-4-.6-4.3-3.2-9.2-3.2-9.2-.5-2.7-.8-4.1h-2.6l-1.4-3.2s-.2-.7-.4-1.2c-.7-.4-2.5-1.3-2.6-1.4s-4.5-1.8-4.5-1.8-1.2-.9-1.7-1.3c-.7.1-2.5.2-2.5.2s-3.8.5-4.1.5-5.4,1.7-5.4,1.7-1.7-1.3-1.8-1.4-5.4-3.3-5.4-3.3l-1.9-2.2c-1.2.1-11,.5-11,.5l-26.1-1.3-19.5-1.2-22-1.3s-13.2-.9-15.6-1C513.41,199.4,509.41,239.3,509.21,242Z" transform="translate(-11.1 0.1)"/><path class="cls-1" d="M513.91,193.9c2.5.1,14.4.9,14.4.9l21.8,1.3,19.4,1,26,1.4,13.7-.5s2.2,2.5,2.5,2.8,5.6,3.5,5.6,3.5l.3.3c1.1-.4,4.3-1.4,4.3-1.4l7.9-.7s1.8,1.4,2.1,1.7c.4.1,4.5,1.7,4.5,1.7s1,.5,1.8,1c.1-.2,2.1-5.4,2.2-5.6s1-4,1.4-5.4c-.9-.6-2.7-2.1-2.7-2.1l-.6-3.9,1.3-4.1h3.1c0-1.6-.1-4-.1-4s-.4-32.7-.4-32.9-.4-2.7-.6-3.5c-.7-.6-4.2-3.5-4.2-3.5l-1.4-2.4-.1-2.9s2.5-1.9,2.7-2.1.8-.9,1.2-1.3c0-.3.1-.4.1-.9-3-.1-62.1-1.7-62.1-1.7s-55.8-3.5-58.5-3.7C519.21,130,514.11,191.2,513.91,193.9Z" transform="translate(-11.1 0.1)"/><path class="cls-1" d="M519.81,124.4c2.9.2,58.5,3.6,58.5,3.6s58.7,1.4,61.8,1.5c-.2-2.2-.5-7.3-.5-7.5s-1.8-7.3-1.8-7.3l-2.1-14.4s-.5-11.1-.5-11.8c-.3-.5-1.8-3.2-1.8-3.2l-2.1-6,.1-11.8s.5-3.3.6-3.9c-.2-.5-1.1-3.4-1.5-4.7-1.9,0-30.3-.6-30.3-.6l-20.3-.7-29-1.4s-21.1-2-23.7-2.2C526.91,56.7,520.11,121.5,519.81,124.4Z" transform="translate(-11.1 0.1)"/><path class="cls-1" d="M385.81,227.3c2.9.4,117.8,14.1,120.7,14.5.2-2.9,7.8-91.2,8-93.9-2.7-.3-111.1-14-113.8-14.3C400.31,136.2,386.21,224.4,385.81,227.3Z" transform="translate(-11.1 0.1)"/><path class="cls-1" d="M333.71,47c.4.8,3.8,8.3,3.8,8.3s-1.3,4.2-1.5,5c.3.7,1.3,3.2,1.6,4,.8.3,3.5,1.5,3.5,1.5s5,11.7,5.2,12.1,3,3.5,3,3.5.2.5.3.8l3.9,1.3.8,3.5-7.8,19.4v2c.4.5,1.4,1.8,1.9,2.5.7-.4,4-2.5,4.5-2.8.2-.4,1.2-2,1.2-2l3.9,1.6s-.3,6.2-.3,6.6,2.7,12.2,2.9,13.1l2.9,2.4,1.1.8,2.5,3.1s-.5,3.7-.5,4.1a22.43,22.43,0,0,1,.5,2.7l1.9-1.9h4l3.2,1.6c.7-.3,2.4-.9,2.4-.9h5.1l3.9,1.7c.4-.1.8-.1,1.5-.3.1-1,.5-3.2.5-3.2l5-1.2,2.4,2.4v.2c.6-3.5,1.5-8.8,1.5-8.8s113.6,14.3,116.5,14.7c.3-2.9,9-88.5,9.3-91.3-2.7-.2-32-2.9-32-2.9l-32-3.9-32-4.4-35.4-5.8-20.2-3.7s-31.7-6.7-34.3-7.3C337.71,28,333.91,46.1,333.71,47Z" transform="translate(-11.1 0.1)"/><path class="cls-1" d="M407.41,327.4c3,.3,125.9,11.5,128.8,11.8.2-2.9,5.1-88.8,5.2-91.4-2.7-.3-118.3-13.2-121.1-13.5C419.91,236.9,407.81,324.5,407.41,327.4Z" transform="translate(-11.1 0.1)"/><path class="cls-1" d="M308.91,90.2c.2.6,1.2,3.4,1.4,4,.6.4,4,3.1,4,3.1l-.3,5.4s-4.4,4.9-4.5,5-4.3,6.5-4.3,6.5-.5.4-.7.6c-.1.8-.6,3.4-.6,3.4l-1.9,1.9a18.65,18.65,0,0,0-1.9.5c-.5.6-3.9,4.7-4.3,5.3-.1.7-.3,3.2-.3,3.2a1.69,1.69,0,0,1-.2.5c.8-.1,2.7-.1,2.7-.1l2.2,3.9-3,7.1-1.4,4.5s-8.5,34.2-9.2,36.9c13.1,2.6,89.2,17.1,100.8,19.3.4-2.8,8.6-54.7,8.8-56.3-.4-.4-1.3-1.1-1.3-1.1s-.4-2.7-.5-3.3a3.17,3.17,0,0,1-.5-.6,7.37,7.37,0,0,0-1.4.4c-.2,1-.6,3.5-.6,3.5l-4.5.5-4.4-1.8c-.5,0-3.4.1-3.7.2s-3.4.8-3.4.8-2.9-1.3-3.4-1.6h-2.2c-.6.6-3.3,3.2-3.3,3.2l-2.4-2.5-1.4-3.7s.6-3.3.7-4.2c-.4-.6-1.2-1.5-1.3-1.7s-4.5-3.7-4.5-3.7l-3.2-14.4s.1-2.6.2-4.3c-.1,0-5.8,3.6-5.8,3.6l-2.1.1-3.7-4.7.2-3.6s7.2-18.1,7.6-18.8a5.76,5.76,0,0,0-.2-1c-1-.3-3.4-1.2-3.4-1.2s-.6-1.4-.7-1.7-3.9-4.9-3.9-4.9-3.6-9-4-10.1c-.8-.3-3.4-1.4-3.4-1.4l-2.6-6.2,1.7-5.1c-.4-.9-3.9-8.1-3.9-8.1s4.1-19.8,4.6-22.4c-2.1-.4-9.8-1.8-11.9-2.2C322.81,25.4,309,89.4,308.91,90.2Z" transform="translate(-11.1 0.1)"/><path class="cls-1" d="M316.11,314.7c2.9.4,85.7,12.1,88.5,12.6.4-2.8,12.6-90.6,13-93.5-2.1-.2-7.5-.8-7.5-.8l-17.9-2-10.1-1.2,2.8-15.9s1.1-8,1.4-10.2c-2.5-.5-45.6-8.5-48.3-9C337.51,197.5,316.61,311.8,316.11,314.7Z" transform="translate(-11.1 0.1)"/><path class="cls-1" d="M312.41,334l-.2,1.2H310c-.5.8-1.9,2.9-1.9,2.9l-4.5-.2s-1-2.2-1.4-3.1l-2.8-.3s-.6-.8-.9-1.1a2.83,2.83,0,0,1-.6.3s-.8.4-1.5.8c0,1.4-.1,6.9-.1,6.9l-.3,2-.6,14s-1.4,2-1.7,2.5c-.1.4-.4,2.1-.5,2.8.4.8,2.8,5.1,2.8,5.1s1.2,5.7,1.3,6.3c.2.2.3.4.5.6s1.7.9,1.7.9l-.2,4-2.4,2-3.7,1.9-1.7,1.7c-.2.4-1.3,3.2-1.4,3.5s-.7,5.7-.7,5.7l-3.7,3.6a9.31,9.31,0,0,1-1.4.4,12.77,12.77,0,0,1-.4,1.3c1.1.2,4.6.7,4.6.7l-1,4.8-2.1,3.1s-3.8.9-4.3,1.1-1.7,1.4-2.2,1.8a1.08,1.08,0,0,0-.1.6c.1.1.1.1.1.2l20.3,11.4,13.3,8.3,16,9.3s17.8,10.6,18.2,10.8l13.2,2.6s23.2,2.5,25.7,2.8c.4-2.7,18.1-124.5,18.4-127.3-2.8-.4-86-12.2-88.6-12.6C315.11,319.8,312.41,334,312.41,334Z" transform="translate(-11.1 0.1)"/><path class="cls-1" d="M216,243.8c.7,1.1,74.4,112.2,74.9,112.9.3.1.6.3,1.2.5a4,4,0,0,1,.7-.9c0-.8.4-9,.4-9l.4-6.4.4-8.2,4.1-2.4,2.3.1a12.61,12.61,0,0,1,.9,1.3l3,.4s1.1,2,1.5,2.9h.9c.5-.7,1.6-2.5,1.6-2.5l1.6-.3c.4-1.9,24.9-135.7,25.4-138.4-2.7-.6-96.4-21.4-99-22C235.51,174.5,216.41,242.6,216,243.8Z" transform="translate(-11.1 0.1)"/><path class="cls-1" d="M196.51,59.4c-.4,1.1-2.2,6.4-2.2,6.4l-3.5,11s-3.5,6.9-3.5,7.1-5.4,15.3-5.4,15.3l-7.2,15.1-8.9,13.8s-1.6,2.4-1.9,2.9c-.1.7-.8,8.7-.8,8.9s.3,10.1.4,12c2.1.5,117.8,27.5,120.5,28.2.7-2.6,9.3-36.6,9.3-36.6l1.2-4.7s1.8-4.4,2.3-5.5h-2.5l-2.3-3s.6-2,.7-2.2.6-3.8.6-3.8l5.3-6.5s1.8-1.1,2.1-1.3l.9-.9c.2-.5,1.6-3.8,1.6-3.8l4.6-6.4s3-3.3,3.6-3.9a25,25,0,0,1,.2-2.5c-.9-.6-3.3-2.5-3.3-2.5s-1.4-3.8-1.8-4.8c-1.3-.4-13.1-3.7-13.1-3.7s-15.9-3.7-16.2-3.8l-17.8.1-.4-1.1c-1.7.6-4.9,1.8-4.9,1.8l-5.6-.7-2.2-1.4a8.79,8.79,0,0,1-1,.5l-6-.3s-1.8-1.4-2.1-1.6-4.6-1.8-5.2-2a5.38,5.38,0,0,0-.8.1s-3.1-1.1-4.2-1.4c-.6.6-2,1.8-2,1.8l-8-.5-8.2-5.7s1.3-1.5,1.5-1.7c0-.9.2-6.8.2-7.5-.3-.5-1.4-2.5-1.9-3.3-1-.1-4.8-.6-4.8-.6s-.5-2-.8-2.8a13,13,0,0,1-1.3-.3C201.21,57.8,197.51,59.1,196.51,59.4Z" transform="translate(-11.1 0.1)"/><path class="cls-1" d="M233.91.1l2.3,4.6,1.5,3.5s-1.8,3.7-2.1,4.2v1.8c.2.4.9,1.9.9,1.9s-.8,1.7-1,2.2c.1.6.3,2.2.4,2.7l1.2,1.6-.4,3.2-3.9.4s-1-3-1.1-3.2-.8-1.8-1.1-2.3c-.4-.3-2-1.6-2.2-1.8l-2.8.2-4.1-1.2s-2.8-1.4-3.1-1.6-3.3-.7-3.3-.7L210,13.2l-3.8-2.3-3.2-3L200.61,5c-.1,0-.2-.1-.4-.1-.5,2-1.8,7.4-2,8.3.4.7,1.9,3.4,1.9,3.4v9.2s-.6,2.5-.7,3c.1.5,1.3,6.3,1.4,7l4.8,4.8s-5.1.8-6.5,1c0,.8-.1,1.2-.1,1.8.8.4,3.2,1.4,3.2,1.4l-2.6,6.6-2.7.3c-.1.7-.1,1-.2,1.5.4.5.9,1.3,1.5,2.2,1.1-.4,3.2-1.1,3.2-1.1l3.8.8s.5,1.9.7,2.7c1.2.2,4.2.6,4.2.6l3.1,5.1.1,9.5-.2.2c1.6,1.1,4.3,3,4.8,3.4.7,0,4.8.2,5.8.3.6-.5,2.3-2.2,2.3-2.2s4.6,1.6,5.3,1.8a4.54,4.54,0,0,0,.8-.2l6.4,2.6s1.2.9,1.6,1.3c.7,0,3.7.1,4.3.1.4-.2,1.9-1,1.9-1s2.3,1.7,2.8,2.1l4.3.7c.7-.3,7.2-2.8,7.2-2.8s.6,1.7.6,1.9H277l17.1,3.9s9.8,2.8,12.2,3.4c.6-2.9,13.7-63.8,14.3-66.5l-15.2-3.2-25.1-6.2-21.9-6.2-9.3-2.1-10.7-3s-3.1-1-4.1-1.4C234,.1,234,.1,233.91.1Zm-5.3,5.8c-.2.3-.4.4-.6.7.3.1.5.2.8.3.1-.1.4-.5.9-1Z" transform="translate(-11.1 0.1)"/><path class="cls-1" d="M161.61,158.5c0,.4-.2,8.2-.2,8.2l-5.9,13.5s-2.7,2.3-3.3,2.7c-.1.4-.4,1.5-.4,1.5s-1.4.6-2,.9c-.3.9-1.4,4-1.4,4s-.5,1.9-.7,2.8c.6.8,2.7,4.2,2.7,4.2l1.8,4.7,1.3,4.2-.4,7.7-2,3.4c-.1.6-.7,6.2-.7,6.2s-.8,2.9-1,3.7c.3.7,1.6,3.6,1.7,3.7s3,4.9,3,4.9l2.6,5.5,1.5,4.8-.4,4.2a2.19,2.19,0,0,0-.3.5v1.3c.7.7,6.3,7,6.3,7l-.7,3.4-.7,2.6s-.5,1.5-.6,1.9.1,7.7.2,8.4c.3.5,2,3.5,2.1,3.7s1.3,1.7,1.7,2.3c.8.1,3.3.6,3.3.6l1.5,4.3-1.5,4.8-3.1,2.4h-.5c-.2,1.1-.5,2.5-.6,2.8.1.4.3,2.1.4,2.6.4.5,3.5,4.7,3.5,4.7l1.8,6.1,1.6,5.1s1.3,3,1.3,3.1,3.7,6.3,3.7,6.3l1.7,3.1s.3,1.9.5,2.8c.5.3,1.9,1.1,1.9,1.1V334s-.9,2.1-.9,2.3-2.1,8.4-2.3,9c.6.6,1.4,1.5,1.8,2l4.2.5,5.2,2.1s3.4,1.9,4,2.2h3.4l3.8,4,2.9,5.5a22.36,22.36,0,0,1,1,2.1c.6.3,3.3,1.8,3.6,2s5.7.9,5.7.9l2.1,3.1,1,5a.35.35,0,0,1-.2.1,4.05,4.05,0,0,1,1,.3c.2,0,1.9.1,2.5.1.6-.3,4.1-2.2,4.1-2.2l5.2,5.6s.8,2.4.9,2.6,2.9,4.8,2.9,4.8l.4,3.9v10.2a4.5,4.5,0,0,0,.2.8c1.6.2,10,1.4,10,1.4l21.5,3s14.6,1.4,14.9,1.5,2.6-.3,3.5-.4c.4-.5.8-1.1,1-1.4s.1-.7.3-1.4c-1.1-.2-3-.5-3-.5l-1.3-1.8s.5-2,.6-2.5c0-.1-.4-1.6-.4-1.6s2.7-.8,3.1-1c.4-.4,2.1-2,2.7-2.5.1-.8.6-5.1.6-5.1l1.7-4.1,2.5-2.8s3.5-1.6,3.9-1.8l1.2-1.2v-.8a3.21,3.21,0,0,0-.5-.3l-1.6-1.6-1.3-6.6c-.2-.4-3.1-5.5-3.1-5.5s.3-2.1.5-3.2c-.8-.3-2-.8-2-.8l-75.8-115.5s19.6-70.2,20.4-73c-2.8-.7-68-15.9-70.5-16.5C162.31,156.2,161.71,158.2,161.61,158.5Zm21.1,202.9h0a2,2,0,0,0,.8.1c0-.1,0-.1-.1-.1Z" transform="translate(-11.1 0.1)"/><polygon class="cls-1" points="989.51 257.2 994.91 260.9 992.11 266.2 985.91 262.5 989.51 257.2"/><circle class="cls-2" cx="143.82" cy="230.58" r="141.82"/><path class="cls-3" d="M120.72,254.07C94.48,278,66.52,276.6,50.43,292.7c-4,4-7.4,12.28-10.17,22.44a141.82,141.82,0,0,0,229.32,0c-2.77-10.16-6.12-18.41-10.16-22.44-16.09-16.1-44-14.7-70.3-38.63.16-.2-6.06-6.07-6.29-5.84V233.12c7-9.82,11.72-23.15,14.48-36.42.28.6.65,1,1.09,1.09,1.64.28,3.7-3.49,4.57-8.45.84-4.79.26-8.85-1.28-9.38,2.34-11.64,1.13-30.21-3.67-44.53-4.84-14.49-25.81-20.53-42.1-21v0h-2v0c-16.28.44-37.25,6.48-42.09,21-4.8,14.31-6,32.89-3.67,44.53-1.54.53-2.12,4.59-1.28,9.38.88,5,2.92,8.73,4.57,8.45.45-.07.8-.49,1.09-1.09C115.29,210,120,223.3,127,233.12v15.11C126.78,248,120.56,253.87,120.72,254.07Z" transform="translate(-11.1 0.1)"/><path class="cls-4" d="M172.54,329.95c2.49,2.49,2,7.65,0,9.67-2.81,2.81-7.34,1.71-9.36-.31a6.53,6.53,0,0,1,0-9.05A7,7,0,0,1,172.54,329.95Zm3.27-3.27c-4.05-4.05-10.61-5-15.91.31-4.05,4.05-5.31,10.3,0,15.6,4.05,4.05,10.61,5.61,15.91.31A11.22,11.22,0,0,0,175.82,326.68Z" transform="translate(-11.1 0.1)"/><path class="cls-4" d="M154.45,302.18c5.31,5.31,2.8,13.42,0,16.22-5.3,5.3-12.64,3-15.91-.31a11.53,11.53,0,0,1,0-15.6C144,297.35,151.64,299.37,154.45,302.18Zm3.27-3.27a16.06,16.06,0,0,0-22.47.32,15.58,15.58,0,0,0,0,22.15c5.31,5.31,15,7.8,22.47.32A15.74,15.74,0,0,0,157.72,298.91Z" transform="translate(-11.1 0.1)"/><path class="cls-4" d="M120.28,313.57c2.49,2.49,2,7.65,0,9.67-2.81,2.81-7.34,1.71-9.36-.31a6.53,6.53,0,0,1,0-9.05A6.66,6.66,0,0,1,120.28,313.57Zm3.27-3.27c-4.05-4.05-10.61-5-15.91.31-4.05,4.05-5.31,10.3,0,15.6,4.05,4.05,10.61,5.61,15.91.31C127.77,322.62,128.86,315.6,123.55,310.29Z" transform="translate(-11.1 0.1)"/><path class="cls-4" d="M96.72,334.64a6,6,0,0,1,8.26-1.41,6.08,6.08,0,0,1,.93,8.43c-2,2.65-8.58,7.33-11.24,5.3C92.35,344.93,94.84,337.44,96.72,334.64ZM48.35,356.48a31.5,31.5,0,0,1,44-6.24,32,32,0,0,1,6.71,44.47,31.44,31.44,0,0,1-44.3,6.24A31.83,31.83,0,0,1,48.35,356.48ZM35.71,347a48,48,0,0,0,9.67,66.78,47,47,0,0,0,73.18-52.58l6.7-9.21a7,7,0,0,0-1.56-10L92.65,318.72a7,7,0,0,0-9.83,1.41l-6.24,8.42A46.42,46.42,0,0,0,35.71,347Z" transform="translate(-11.1 0.1)"/><path class="cls-4" d="M170.19,360.69a5.92,5.92,0,0,1,3.12-7.8,6,6,0,0,1,7.49,3.75c1.25,3.12,1.71,11.38-1.25,12.48S171.45,363.81,170.19,360.69Zm-6.86,53.66c-6.4-16.38,1.56-34.94,17.79-41.19a31.63,31.63,0,0,1,40.57,18.41c6.4,16.38-1.41,34.79-17.48,41.19S169.73,431.06,163.34,414.36ZM148.68,420c9.52,24.81,37.14,37.14,61.16,27.46,23.87-9.52,35.58-37.14,26.21-61.78a48.22,48.22,0,0,0-32.46-29.34l-4.22-10.77a7.23,7.23,0,0,0-9.21-4.22l-35.89,13.73a7.28,7.28,0,0,0-4.06,9.36l3.75,10A49.36,49.36,0,0,0,148.68,420Z" transform="translate(-11.1 0.1)"/></svg>