<?xml version="1.0" encoding="UTF-8" standalone="no"?>
<svg width="212px" height="209px" viewBox="0 0 212 209" version="1.1" xmlns="http://www.w3.org/2000/svg" xmlns:xlink="http://www.w3.org/1999/xlink">
    <!-- Generator: Sketch 3.8.3 (29802) - http://www.bohemiancoding.com/sketch -->
    <title>handcuffs</title>
    <desc>Created with Sketch.</desc>
    <defs></defs>
    <g id="Page-1" stroke="none" stroke-width="1" fill="none" fill-rule="evenodd">
        <g id="1468884446_handcuffs" fill="#FFFFFF">
            <g id="handcuffs">
                <path d="M188,100.734 L188,73.236 C188,65.042 180.406,59 172.212,59 L130.286,59 C122.092,59 116,65.042 116,73.236 L116,75.678 L116,100.734 C103,110.197 94.478,124.517 92.44,140.901 C92.446,140.925 92.259,140.95 92.266,140.974 C91.953,143.382 91.689,145.832 91.689,148.32 C91.689,181.208 118.355,207.868 151.243,207.868 C184.131,207.868 211.27,181.207 211.27,148.32 C211.27,128.871 202,111.601 188,100.734 L188,100.734 Z M151.249,73.623 C155.731,73.623 159.364,77.256 159.364,81.738 C159.364,86.22 155.731,89.853 151.249,89.853 C146.767,89.853 143.134,86.22 143.134,81.738 C143.134,77.256 146.767,73.623 151.249,73.623 L151.249,73.623 Z M174.443,171.515 C168.248,177.71 160.01,181.122 151.249,181.122 C142.487,181.122 134.25,177.71 128.054,171.515 C123.876,167.337 120.97,162.228 119.516,156.657 C119.179,155.365 118.924,154.048 118.744,152.713 C118.726,152.578 118.711,152.443 118.694,152.308 C118.632,151.796 118.583,151.282 118.545,150.765 C118.533,150.599 118.518,150.434 118.509,150.268 C118.471,149.622 118.446,148.973 118.446,148.32 C118.446,147.703 118.467,147.09 118.501,146.48 C118.51,146.324 118.525,146.169 118.535,146.013 C118.568,145.542 118.608,145.073 118.661,144.606 C118.678,144.457 118.697,144.309 118.716,144.161 C118.779,143.663 118.852,143.168 118.937,142.676 C118.955,142.574 118.971,142.473 118.99,142.371 C119.099,141.778 119.22,141.188 119.36,140.603 C120.755,134.791 123.721,129.457 128.054,125.124 C134.249,118.929 142.487,115.517 151.249,115.517 C160.011,115.517 168.248,118.929 174.443,125.124 C180.638,131.319 184.05,139.557 184.05,148.318 C184.051,157.082 180.639,165.32 174.443,171.515 L174.443,171.515 Z" id="Shape"></path>
                <path d="M84.494,171.532 C80.989,175.319 76.613,178.247 71.623,180.057 C63.386,183.045 54.479,182.646 46.543,178.934 C38.606,175.222 32.59,168.642 29.603,160.405 C26.615,152.168 27.014,143.261 30.726,135.325 C34.438,127.388 41.018,121.372 49.255,118.385 C57.492,115.397 66.399,115.796 74.335,119.508 C78.036,121.239 81.312,123.6 84.066,126.455 C85.202,122.95 86.924,119.529 88.595,116.254 C92.585,108.431 99.002,101.337 105.002,95.479 L105.002,73.236 C105.002,72.326 104.711,71.426 104.803,70.54 L79.713,58.886 C72.291,55.415 63.375,58.618 59.903,66.04 L48.212,90.949 C30.544,94.683 14.759,106.376 6.519,123.995 C-7.413,153.786 5.433,189.23 35.224,203.162 C56.728,213.218 81.168,209.312 98.346,195.16 C93.246,189.411 89.14,182.933 86.137,175.835 C85.536,174.416 84.997,172.978 84.494,171.532 L84.494,171.532 Z M87.318,77.519 C91.8,77.519 95.433,81.152 95.433,85.634 C95.433,90.116 91.8,93.749 87.318,93.749 C82.836,93.749 79.203,90.116 79.203,85.634 C79.203,81.152 82.836,77.519 87.318,77.519 L87.318,77.519 Z" id="Shape"></path>
                <path d="M99.924,62.046 C111.173,62.046 120.324,52.894 120.324,41.646 C120.324,41.374 120.294,41.109 120.283,40.839 C121.267,40.986 122.267,41.086 123.291,41.086 C126.359,41.086 129.26,40.386 131.873,39.167 C134.551,47.313 142.218,53.216 151.248,53.216 C162.497,53.216 171.648,44.064 171.648,32.816 C171.648,21.567 162.496,12.416 151.248,12.416 C148.18,12.416 145.279,13.116 142.666,14.335 C139.988,6.189 132.321,0.286 123.291,0.286 C112.042,0.286 102.891,9.438 102.891,20.686 C102.891,20.958 102.921,21.223 102.932,21.493 C101.948,21.346 100.948,21.246 99.924,21.246 C88.675,21.246 79.524,30.398 79.524,41.646 C79.524,52.894 88.675,62.046 99.924,62.046 L99.924,62.046 Z M151.249,23.542 C156.37,23.542 160.522,27.694 160.522,32.815 C160.522,37.936 156.37,42.088 151.249,42.088 C146.128,42.088 141.976,37.936 141.976,32.815 C141.976,27.694 146.127,23.542 151.249,23.542 L151.249,23.542 Z M123.292,11.412 C128.413,11.412 132.565,15.564 132.565,20.685 C132.565,25.806 128.413,29.958 123.292,29.958 C118.171,29.958 114.019,25.806 114.019,20.685 C114.019,15.564 118.171,11.412 123.292,11.412 L123.292,11.412 Z M99.924,32.373 C105.045,32.373 109.197,36.525 109.197,41.646 C109.197,46.767 105.045,50.919 99.924,50.919 C94.803,50.919 90.651,46.767 90.651,41.646 C90.651,36.524 94.803,32.373 99.924,32.373 L99.924,32.373 Z" id="Shape"></path>
            </g>
        </g>
    </g>
</svg>