<?xml version="1.0" encoding="UTF-8"?>
<svg width="348px" height="319px" viewBox="0 0 348 319" version="1.1" xmlns="http://www.w3.org/2000/svg" xmlns:xlink="http://www.w3.org/1999/xlink">
    <!-- Generator: Sketch 40.2 (33826) - http://www.bohemiancoding.com/sketch -->
    <title>Combined Shape</title>
    <desc>Created with Sketch.</desc>
    <defs></defs>
    <g id="Page-1" stroke="none" stroke-width="1" fill="none" fill-rule="evenodd" stroke-linecap="round" stroke-linejoin="round">
        <g id="dp_dp001" transform="translate(-0.855000, -0.873000)" stroke="#FFFFFF" stroke-width="20">
            <path d="M146.004564,133.682691 L227.124626,133.299067 L227.181374,145.298933 L146.061312,145.682556 L146.444933,226.802626 L134.445067,226.859374 L134.061446,145.739305 L52.9403742,146.122933 L52.8836258,134.123067 L134.004698,133.739439 L133.621067,52.617374 L145.620933,52.560626 L146.004564,133.682691 Z M268.691,139.711 C268.691,210.836 211.088,268.495 140.033,268.495 C68.977,268.495 11.375,210.836 11.375,139.711 C11.375,68.584 68.977,10.925 140.033,10.925 C211.088,10.925 268.691,68.584 268.691,139.711 Z M238.762381,226.231184 L330.772381,309.521184 L338.825619,300.624816 L246.815619,217.334816 L238.762381,226.231184 Z" id="Combined-Shape"></path>
        </g>
    </g>
</svg>