<svg xmlns="http://www.w3.org/2000/svg" viewBox="1141.966 537 26.067 17.728">
  <defs>
    <style>
      .cls-1 {
        fill: #545454;
      }
    </style>
  </defs>
  <path id="path-1" class="cls-1" d="M11.848,17.728h0A13.289,13.289,0,0,1,5.1,15.285,14.084,14.084,0,0,1,0,8.886a14.094,14.094,0,0,1,5.1-6.4A13.407,13.407,0,0,1,13.034,0a13.414,13.414,0,0,1,7.939,2.488,14.094,14.094,0,0,1,5.094,6.4,13.492,13.492,0,0,1-5.094,6.4,14.512,14.512,0,0,1-6.755,2.438V14.811a5.379,5.379,0,0,0,2.962-1.659A6.253,6.253,0,0,0,18.959,9a5.557,5.557,0,0,0-1.778-4.146,6.253,6.253,0,0,0-4.147-1.778A5.555,5.555,0,0,0,8.886,4.859,6.251,6.251,0,0,0,7.11,9a5.783,5.783,0,0,0,1.777,4.147,5.877,5.877,0,0,0,2.962,1.655v2.919h0Zm1.186-5.286a3.425,3.425,0,0,1-2.488-1.066,3.437,3.437,0,0,1,0-4.977,3.435,3.435,0,0,1,4.976,0,3.437,3.437,0,0,1,0,4.977A3.425,3.425,0,0,1,13.034,12.442Z" transform="translate(1141.966 537)"/>
</svg>
