<?xml version="1.0" encoding="UTF-8" standalone="no"?>
<svg viewBox="0 0 16 25" version="1.1" xmlns="http://www.w3.org/2000/svg" xmlns:xlink="http://www.w3.org/1999/xlink">
    <!-- Generator: Sketch 39.1 (31720) - http://www.bohemiancoding.com/sketch -->
    <title>truthfinder-location</title>
    <desc>Created with Sketch.</desc>
    <defs></defs>
    <g id="Page-1" stroke="none" stroke-width="1" fill="none" fill-rule="evenodd">
        <g id="Artboard" transform="translate(-142.000000, -23.000000)">
            <g id="truthfinder-location" transform="translate(142.000000, 23.000000)">
                <path d="M8,0.4 C3.5817,0.4 0,3.9817 0,8.4 C0,9.821 0.3816,11.15 1.0312,12.306 C1.1391,12.498 1.2522,12.687 1.375,12.869 L8,24.4 L14.625,12.869 C14.727,12.718 14.815,12.558 14.906,12.4 L14.969,12.306 C15.618,11.15 16,9.821 16,8.4 C16,3.9817 12.418,0.4 8,0.4 L8,0.4 Z M8,4.4 C10.209,4.4 12,6.1909 12,8.4 C12,10.609 10.209,12.4 8,12.4 C5.7909,12.4 4,10.609 4,8.4 C4,6.1909 5.7909,4.4 8,4.4 L8,4.4 Z" id="Shape" fill="#7FBD94"></path>
                <path d="M8,3.4 C5.2386,3.4 3,5.6386 3,8.4 C3,11.161 5.2386,13.4 8,13.4 C10.761,13.4 13,11.161 13,8.4 C13,5.6386 10.761,3.4 8,3.4 L8,3.4 Z M8,5.4 C9.657,5.4 11,6.7431 11,8.4 C11,10.0569 9.657,11.4 8,11.4 C6.343,11.4 5,10.0569 5,8.4 C5,6.7431 6.343,5.4 8,5.4 L8,5.4 Z" id="Shape" fill="#4A4A4A"></path>
            </g>
        </g>
    </g>
</svg>
