<svg class="nav" xmlns="http://www.w3.org/2000/svg" viewBox="535 527 20 20">
  <defs>
    <style>
      .nav .cls-1 {
        fill: #545454;
      }
    </style>
  </defs>
  <path class="cls-1" d="M559.3,1222a9.506,9.506,0,0,1,7.1-2.9,9.9,9.9,0,0,1,7.1,2.9,9.356,9.356,0,0,1,2.9,7.1,9.9,9.9,0,0,1-2.9,7.1,9.356,9.356,0,0,1-7.1,2.9,9.9,9.9,0,0,1-7.1-2.9,9.356,9.356,0,0,1-2.9-7.1A9.733,9.733,0,0,1,559.3,1222Zm1.5,12.7a7.73,7.73,0,0,0,5.6,2.4,7.568,7.568,0,0,0,5.6-2.4,8.146,8.146,0,0,0,2.4-5.6,7.568,7.568,0,0,0-2.4-5.6,8.146,8.146,0,0,0-5.6-2.4,7.568,7.568,0,0,0-5.6,2.4,8.146,8.146,0,0,0-2.4,5.6A7.73,7.73,0,0,0,560.8,1234.7Zm2.8-10.5a3.817,3.817,0,1,1,5.3,5.4,3.623,3.623,0,0,0-1.5,2.4h-2a4.137,4.137,0,0,1,.5-1.9,2.729,2.729,0,0,1,1-1.1,4.063,4.063,0,0,0,1-.9,1.845,1.845,0,0,0,.5-1.2,2,2,0,0,0-4,0h-2A3.731,3.731,0,0,1,563.6,1224.2Zm1.8,10.8v-2h2v2Z" transform="translate(-21.4 -692.1)"/>
</svg>
