<svg id="Layer_1" data-name="Layer 1" xmlns="http://www.w3.org/2000/svg" xmlns:xlink="http://www.w3.org/1999/xlink" viewBox="0 0 325.62 228.3"><defs><style>.cls-1{fill:none;}.cls-2{fill:#e1e1e1;}.cls-3{fill:#fff;stroke:#209dd2;stroke-miterlimit:10;stroke-width:4px;}.cls-4{fill:#209dd2;}.cls-5{clip-path:url(#clip-path);}.cls-6{fill:#607d8b;}.cls-7{fill:#57bf93;}.cls-8{clip-path:url(#clip-path-2);}.cls-9{fill:#f3f3f3;}.cls-10{clip-path:url(#clip-path-3);}.cls-11{fill:#b1b1b1;}</style><clipPath id="clip-path" transform="translate(-11.58 -13.92)"><circle class="cls-1" cx="298.18" cy="52.95" r="39.03"/></clipPath><clipPath id="clip-path-2" transform="translate(-11.58 -13.92)"><circle class="cls-1" cx="206.24" cy="59.89" r="39.03"/></clipPath><clipPath id="clip-path-3" transform="translate(-11.58 -13.92)"><circle class="cls-1" cx="260.01" cy="108.46" r="39.03"/></clipPath></defs><title>related-persons</title><circle class="cls-2" cx="286.59" cy="39.03" r="39.03"/><circle class="cls-3" cx="102" cy="126.3" r="100"/><path class="cls-4" d="M89.47,156.85C71,173.72,51.25,172.74,39.91,184.09c-2.85,2.84-5.22,8.66-7.17,15.82a100,100,0,0,0,161.7,0c-2-7.16-4.32-13-7.17-15.82-11.34-11.35-31.06-10.37-49.57-27.24a29.79,29.79,0,0,0-4.43-4.12V142.08c5-6.93,8.27-16.33,10.21-25.68.2.42.46.72.77.77,1.16.2,2.61-2.46,3.23-6s.18-6.24-.9-6.61c1.65-8.21.8-21.3-2.59-31.39s-18.2-14.47-29.68-14.78v0h-1.44v0C101.38,58.74,86.6,63,83.19,73.21S79,96.4,80.6,104.6c-1.09.37-1.5,3.23-.9,6.61s2.06,6.16,3.22,6c.32-.05.57-.35.77-.77,1.95,9.35,5.25,18.75,10.21,25.68v10.65A29.61,29.61,0,0,0,89.47,156.85Z" transform="translate(-11.58 -13.92)"/><g class="cls-5"><path class="cls-6" d="M329.16,78.4a9.39,9.39,0,0,0-7.36-7.28l-10.52-1.69,0-.3-2-.22.1-.19-2-3.2c-.38-.76-.63-.59-1.18,0l-.09.1-.08-1.52h0L306,62.26l2.46-2.56a5.16,5.16,0,0,0,1.43-3.56l0-1.47c.68,0,1.51-.43,1.77-2,.32-2,.45-2.09.71-3.66a2.7,2.7,0,0,0-1.84-3c.12-.46.26-1.06.39-1.84.33-1.89.72-4.94.83-6,.86-8-10.87-11.3-16.44-6.72a6.35,6.35,0,0,0-.69.67c-.84,0-8.82.24-7.72,6.36.67,3.7,1,5.78,1.47,7.61A2.66,2.66,0,0,0,286.85,49c.26,1.57.39,1.71.71,3.66.24,1.48,1,1.9,1.66,2l0,1.49a5.15,5.15,0,0,0,1.43,3.56L292.91,62l-.08,1.87h0l-.1,1.6c-.51-.58-.77-.72-1.14,0l-2,3.19.1.17-2,.19,0,.18-10.52,1.63a9.67,9.67,0,0,0-7.36,7.52L269.14,93H329.9Z" transform="translate(-11.58 -13.92)"/></g><circle class="cls-7" cx="194.65" cy="45.97" r="39.03"/><g class="cls-8"><path class="cls-2" d="M235.87,85a9,9,0,0,0-7.36-7l-13.45-2a3.13,3.13,0,0,1-2.54-2.67l-.51-2h0l.32-1.87,2.36-2.56A5.06,5.06,0,0,0,216,63.38V61.57c0-.23,1.11-.66,1.41-1.47A27.62,27.62,0,0,0,219,55.34c.26-1.55-.33-2.53-1.42-2.59a7.11,7.11,0,0,0,.16-.74c.1-.8.92-9,.92-9,.29-2.72-4.48-8.6-10.39-8.6,0,0-1.25,0-4.13,0-5.72,0-10.48,5.6-10.34,8.32l1,8.82a6.86,6.86,0,0,0,.26,1.22c-1.25-.1-2,.91-1.76,2.58a26.36,26.36,0,0,0,1.45,4.77c.34.93,1.3,1.36,1.3,1.56v1.73a5.13,5.13,0,0,0,1.41,3.56l2.22,1.75-.13,1.3h0l-.12,3.27A5.7,5.7,0,0,1,198.22,76h0a1.11,1.11,0,0,0-.44.07s0-.07,0-.07a2.33,2.33,0,0,1-.5.1l-13.28,2A9,9,0,0,0,176.6,85l-.75,14h60.76Z" transform="translate(-11.58 -13.92)"/></g><circle class="cls-9" cx="248.43" cy="94.54" r="39.03"/><g class="cls-10"><path class="cls-11" d="M285.52,135.07a8.11,8.11,0,0,0-7-6.9v-.07s-.09-.1-.13-.1h-.12l-.25,0,0,0c2.12-1.07,1.75-2.05,1.75-2.05-4.4-.13-4.73-5.84-4.73-5.84V98.75c0-14.82-13-14.45-15-14.31-2-.13-15-.51-15,14.31v21.44s.38,5.79-3.6,5.79a3.15,3.15,0,0,0,2.89,2H243v.15c-4,.56-5.93,3.46-6.62,6.94l-.24,6.1-.3,6.81h8.26l0-.15,0,.16h34.11v0l0-.07,0,.11h8.26Zm-41.58-6.59h0v0l.1.12v0S243.94,128.51,243.94,128.48Zm.1-.14s0,0,0,.05-.08,0-.08,0v0a.18.18,0,0,1,0-.05h0s.05,0,.05-.06,0,0,0,0l0,0s0,0,0,0a.1.1,0,0,1,0,0l0,.05Zm1-.2v0Zm33.27.33a0,0,0,0,1,0,0h0v.06h0a.13.13,0,0,0,0,0h0v0s0-.06,0-.06A0,0,0,0,1,278.29,128.47Zm0,.4v0s0,0,0,0v0Zm0-.1h0a0,0,0,0,1,0,0Zm0,1.24h0v0S278.28,130,278.29,130Zm0,.05s0,0,0,0l0-.07Zm-.06-1.92h0Zm-1,2.85h0s0,0,0,0h0s0,0,0,0h0a.13.13,0,0,1,0,0Zm-1.1-2.84v-.08h0v.08Zm0-.52h0v0h0l0,0h0Zm-.08,1.23s0,0,0,0h0Zm.86-1h0l0,0Zm.26.09,0,0h0l0,0,.11,0h0l.13,0,.18.08h-.06l-.08,0,.1,0h0l-.1,0-.11,0,0,0Zm.51.19h0Zm0,0h0Zm0,0h0Zm0,0h0Zm0,0h0Zm-.27-.09h0Zm-.21.42h0l.14.1h-.1l0,0h0s0,0,0,0a0,0,0,0,0,0,0v0h0l0,0v0h0l0,0h0v0Zm0,.1h0Zm-.62-1,0,0h0v0Zm-.39.14h0l-.06.51h0Zm1,3.23h0Zm.49-3,0,.08h0V128Zm-.91-.37,0,0h.07l0,.08h0l0,0-.06-.06Zm-.06,0v0l0,0h0Zm0,0h0Zm0,0v0h0v0Zm-.53.18h0Zm-1,6.65,0,0,0,0h0v0l.06-.09.39-.5,0-.05.14-.19,0,0C275.6,133.89,275.4,134.16,275.19,134.43Zm2.07-3.38h0s0,0,0,0A0,0,0,0,0,277.26,131Z" transform="translate(-11.58 -13.92)"/></g></svg>