<svg id="Layer_1" data-name="Layer 1" xmlns="http://www.w3.org/2000/svg" viewBox="0 0 80.62 62.61"><defs><style>.cls-1{fill:#e1e1e1;}.cls-2{fill:#fff;stroke:#fff;stroke-width:2px;}.cls-2,.cls-3{stroke-miterlimit:10;}.cls-3{fill:none;stroke:#209dd2;}.cls-4{fill:#209dd2;}.cls-5{fill:#b1b1b1;}.cls-6{fill:#607d8b;}.cls-7{fill:#57bf93;}</style></defs><title>social</title><rect class="cls-1" x="13.12" width="50" height="52.25"/><path class="cls-2" d="M60.48,54.89l-3.33-3.33a.34.34,0,0,0-.25-.09h-.12a.34.34,0,0,0-.2.31V65a.33.33,0,0,0,.2.31.36.36,0,0,0,.13,0,.38.38,0,0,0,.24-.09L60,62.43l2.3,4.75a.31.31,0,0,0,.28.19.34.34,0,0,0,.16,0l1.49-.75a.31.31,0,0,0,.15-.44L62,61.4h4.14a.34.34,0,0,0,.31-.2.38.38,0,0,0-.07-.37Z" transform="translate(-0.88 -5.75)"/><circle class="cls-3" cx="25.48" cy="12.94" r="9.83"/><path class="cls-4" d="M24,20.32C22.18,22,20.24,21.89,19.12,23a3.76,3.76,0,0,0-.7,1.56,9.83,9.83,0,0,0,15.9,0,3.77,3.77,0,0,0-.7-1.56c-1.12-1.12-3.05-1-4.87-2.68a2.93,2.93,0,0,0-.44-.4v-1a6.83,6.83,0,0,0,1-2.52s0,.07.08.08.26-.24.32-.59,0-.61-.09-.65a6.76,6.76,0,0,0-.25-3.09c-.34-1-1.79-1.42-2.92-1.45H26.3c-1.13,0-2.58.45-2.92,1.45a6.76,6.76,0,0,0-.25,3.09c-.11,0-.15.32-.09.65s.2.61.32.59.06,0,.08-.08a6.83,6.83,0,0,0,1,2.52v1A2.91,2.91,0,0,0,24,20.32Z" transform="translate(-0.88 -5.75)"/><rect class="cls-5" x="40.68" y="7.13" width="20" height="4"/><rect class="cls-5" x="40.68" y="12.96" width="10" height="4"/><rect class="cls-5" x="16.76" y="38.25" width="44" height="4"/><rect class="cls-5" x="16.76" y="44.08" width="22" height="4"/><rect class="cls-5" x="16.76" y="26.11" width="44" height="10"/><path class="cls-6" d="M60.48,54.89l-3.33-3.33a.34.34,0,0,0-.25-.09h-.12a.34.34,0,0,0-.2.31V65a.33.33,0,0,0,.2.31.36.36,0,0,0,.13,0,.38.38,0,0,0,.24-.09L60,62.43l2.3,4.75a.31.31,0,0,0,.28.19.34.34,0,0,0,.16,0l1.49-.75a.31.31,0,0,0,.15-.44L62,61.4h4.14a.34.34,0,0,0,.31-.2.38.38,0,0,0-.07-.37Z" transform="translate(-0.88 -5.75)"/><path class="cls-7" d="M75.48,26.06l-3.33-3.33a.34.34,0,0,0-.25-.09h-.12a.34.34,0,0,0-.2.31V36.21a.33.33,0,0,0,.2.31.36.36,0,0,0,.13,0,.38.38,0,0,0,.24-.09L75,33.6l2.3,4.75a.31.31,0,0,0,.28.19.34.34,0,0,0,.16,0l1.49-.75a.31.31,0,0,0,.15-.44L77,32.56h4.14a.34.34,0,0,0,.31-.2.38.38,0,0,0-.07-.37Z" transform="translate(-0.88 -5.75)"/><path class="cls-7" d="M11,49.06,11,44.35a.34.34,0,0,0-.11-.24l-.1-.08a.34.34,0,0,0-.36.08L1,53.36a.33.33,0,0,0-.08.36.36.36,0,0,0,.08.1.38.38,0,0,0,.23.1l4,0-1.79,5a.31.31,0,0,0,.07.33.34.34,0,0,0,.14.08l1.58.54a.31.31,0,0,0,.42-.2l1.77-5,2.89,3a.34.34,0,0,0,.36.08.38.38,0,0,0,.21-.31Z" transform="translate(-0.88 -5.75)"/></svg>