<svg class="tf-logo" xmlns="http://www.w3.org/2000/svg" viewBox="0 0 480 67.24"><defs><style>.cls-1{fill:#49c2c2;}.cls-2{fill:#00a576;}.cls-3{fill:#403f3f;}.cls-4{fill:#58bf94;}.cls-5{fill:#fff;}.cls-6{fill:#f8b54a;}</style></defs><title>tf-logo</title><path class="cls-1" d="M63.36,4.59L40.79,14.42,73.3,28.58c10,4.38,10,11.53,0,15.9L40.79,58.64l22.57,9.83c10,4.38,18.23-.12,18.23-10v-44C81.59,4.7,73.39.21,63.36,4.59Z" transform="translate(0 -2.91)"/><path class="cls-2" d="M73.3,28.58L40.79,14.42,8.28,28.58c-10,4.38-10,11.53,0,15.9L40.79,58.64,73.3,44.48C83.33,40.11,83.33,33,73.3,28.58Z" transform="translate(0 -2.91)"/><path class="cls-3" d="M106.89,13.23a2.87,2.87,0,0,1,2.85-2.93,3,3,0,0,1,2.93,2.93v9.15h10.05a2.64,2.64,0,0,1,2.63,2.55,2.59,2.59,0,0,1-2.63,2.55H112.67V50.13c0,4.73,2.62,6.45,6.53,6.45a16.35,16.35,0,0,0,3.53-.52,2.5,2.5,0,0,1,2.48,2.48,2.41,2.41,0,0,1-1.65,2.25,14.58,14.58,0,0,1-5.7,1.05c-6.23,0-11-3.08-11-11V13.23Z" transform="translate(0 -2.91)"/><path class="cls-3" d="M133.33,24.93A2.91,2.91,0,0,1,136.18,22a2.88,2.88,0,0,1,2.93,2.92V32.2c2.85-6.45,8.48-10.35,13.35-10.35a2.78,2.78,0,0,1,2.85,2.93,2.87,2.87,0,0,1-2.55,2.92c-7.5.9-13.65,6.53-13.65,17.7v13.2a2.89,2.89,0,1,1-5.78,0V24.93Z" transform="translate(0 -2.91)"/><path class="cls-3" d="M196.94,58.61a2.85,2.85,0,1,1-5.7,0v-4.2C188.62,58.61,184.64,62,178,62c-9.38,0-14.85-6.3-14.85-15.53V24.93A2.82,2.82,0,0,1,166,22a2.93,2.93,0,0,1,2.93,2.92V45c0,7.2,3.9,11.7,10.73,11.7,6.6,0,11.63-4.88,11.63-12.15V24.93A2.82,2.82,0,0,1,194.09,22a2.87,2.87,0,0,1,2.85,2.92V58.61Z" transform="translate(0 -2.91)"/><path class="cls-3" d="M206.73,13.23a2.87,2.87,0,0,1,2.85-2.93,3,3,0,0,1,2.93,2.93v9.15h10.05a2.64,2.64,0,0,1,2.63,2.55,2.59,2.59,0,0,1-2.63,2.55H212.51V50.13c0,4.73,2.62,6.45,6.53,6.45a16.35,16.35,0,0,0,3.53-.52A2.5,2.5,0,0,1,225,58.53a2.41,2.41,0,0,1-1.65,2.25,14.58,14.58,0,0,1-5.7,1.05c-6.23,0-11-3.08-11-11V13.23Z" transform="translate(0 -2.91)"/><path class="cls-3" d="M234.4,8.95a2.89,2.89,0,1,1,5.78,0V29.13a14.69,14.69,0,0,1,13.28-7.58c9.38,0,14.85,6.3,14.85,15.53V58.61a2.89,2.89,0,1,1-5.78,0V38.5c0-7.2-3.9-11.7-10.73-11.7S240.17,31.68,240.17,39V58.61a2.82,2.82,0,0,1-2.85,2.93,2.88,2.88,0,0,1-2.93-2.93V8.95Z" transform="translate(0 -2.91)"/><path class="cls-3" d="M278.61,19.08c0-4.43,1.2-7.8,3.38-10a11.42,11.42,0,0,1,8.33-3,19.62,19.62,0,0,1,4.58.45A2.57,2.57,0,0,1,297,9a2.49,2.49,0,0,1-2.78,2.48,20.07,20.07,0,0,0-3.15-.38c-4.5,0-6.75,2.7-6.75,8.25v3.15h10.05A2.47,2.47,0,0,1,296.91,25a2.51,2.51,0,0,1-2.55,2.48h-10V58.61a2.87,2.87,0,0,1-2.85,2.93,2.93,2.93,0,0,1-2.93-2.93V19.08ZM305,10.22a3.43,3.43,0,0,1,6.83,0v1a3.43,3.43,0,0,1-6.83,0v-1Zm0.52,14.7A2.91,2.91,0,0,1,308.38,22a2.88,2.88,0,0,1,2.92,2.92V58.61a2.82,2.82,0,0,1-2.85,2.93,2.88,2.88,0,0,1-2.92-2.93V24.93Z" transform="translate(0 -2.91)"/><path class="cls-3" d="M321.9,24.93A2.91,2.91,0,0,1,324.75,22a2.88,2.88,0,0,1,2.93,2.92v4.2a14.69,14.69,0,0,1,13.28-7.58c9.38,0,14.85,6.3,14.85,15.53V58.61a2.89,2.89,0,1,1-5.78,0V38.5c0-7.2-3.9-11.7-10.73-11.7S327.67,31.68,327.67,39V58.61a2.82,2.82,0,0,1-2.85,2.93,2.88,2.88,0,0,1-2.93-2.93V24.93Z" transform="translate(0 -2.91)"/><path class="cls-3" d="M403.17,58.61a2.89,2.89,0,1,1-5.78,0V53.36C394.24,58,389.67,62,382.54,62c-9.3,0-18.53-7.35-18.53-20.1V41.73c0-12.68,9.23-20.18,18.53-20.18,7.2,0,11.85,3.9,14.85,8.25V8.95A2.82,2.82,0,0,1,400.24,6a2.88,2.88,0,0,1,2.92,2.93V58.61Zm-33.23-17v0.15c0,9.15,6.38,15,13.65,15s14-6.08,14-15V41.66c0-8.93-6.83-14.93-14-14.93C376.09,26.73,369.94,32.28,369.94,41.66Z" transform="translate(0 -2.91)"/><path class="cls-3" d="M431.18,62.06c-10.65,0-19.35-8.18-19.35-20.18V41.73c0-11.18,7.88-20.18,18.6-20.18,11.48,0,18,9.38,18,19.65a2.69,2.69,0,0,1-2.7,2.7H417.68c0.83,8.4,6.75,13.13,13.65,13.13a15.85,15.85,0,0,0,11.18-4.5,2.49,2.49,0,0,1,4.2,1.8,2.49,2.49,0,0,1-.9,1.88A19.72,19.72,0,0,1,431.18,62.06Zm11.48-22.43c-0.6-7.05-4.65-13.2-12.38-13.2-6.75,0-11.85,5.63-12.6,13.2h25Z" transform="translate(0 -2.91)"/><path class="cls-3" d="M458,24.93A2.91,2.91,0,0,1,460.87,22a2.88,2.88,0,0,1,2.93,2.92V32.2c2.85-6.45,8.48-10.35,13.35-10.35A2.78,2.78,0,0,1,480,24.78a2.87,2.87,0,0,1-2.55,2.92c-7.5.9-13.65,6.53-13.65,17.7v13.2a2.89,2.89,0,1,1-5.78,0V24.93Z" transform="translate(0 -2.91)"/><path class="cls-4" d="M8.28,28.58L40.79,14.42,18.22,4.59C8.2,0.21,0,4.7,0,14.55v44c0,9.84,8.2,14.34,18.22,10l22.57-9.83L8.28,44.48C-1.74,40.11-1.74,33,8.28,28.58Z" transform="translate(0 -2.91)"/><path class="cls-5" d="M52.43,36.51A12.45,12.45,0,1,1,40,24.07,12.45,12.45,0,0,1,52.43,36.51Z" transform="translate(0 -2.91)"/><path class="cls-6" d="M45.71,36.51A5.74,5.74,0,1,1,40,30.78,5.73,5.73,0,0,1,45.71,36.51Z" transform="translate(0 -2.91)"/></svg>