<?xml version="1.0" encoding="UTF-8"?>
<svg width="17px" height="17px" viewBox="0 0 17 17" version="1.1" xmlns="http://www.w3.org/2000/svg" xmlns:xlink="http://www.w3.org/1999/xlink">
    <!-- Generator: Sketch 39.1 (31720) - http://www.bohemiancoding.com/sketch -->
    <title>Shape</title>
    <desc>Created with Sketch.</desc>
    <defs></defs>
    <g id="Page-1" stroke="none" stroke-width="1" fill="none" fill-rule="evenodd">
        <path d="M3.2,11.5 C4.88397503,10.8104802 6.68071501,10.4375719 8.5,10.4 C10.3181587,10.4474086 12.1131437,10.8199527 13.8,11.5 C15.7,12.2 16.5,13.2 16.5,14.4 L16.5,16.4 L0.5,16.4 L0.5,14.4 C0.5,13.2 1.4,12.3 3.2,11.5 L3.2,11.5 Z M11.3,7.2 C9.97051961,8.46626547 7.93392569,8.62311778 6.42622647,7.57536333 C4.91852724,6.52760888 4.35542494,4.56413409 5.07866617,2.87657122 C5.8019074,1.18900834 7.61208039,0.242651534 9.4105917,0.611844452 C11.209103,0.981037371 12.5000678,2.56398629 12.5,4.4 C12.5297897,5.46411482 12.0911105,6.48769957 11.3,7.2 L11.3,7.2 Z" id="Shape" fill="#CCCCCC"></path>
    </g>
</svg>