<svg xmlns="http://www.w3.org/2000/svg" viewBox="1214.836 3575.6 16.808 8.404"><defs><style>.a{fill:#209dd2;}</style></defs><path class="a" d="M669.653,147.553a2.605,2.605,0,0,0,1.849,4.454h3.361v1.6H671.5a3.942,3.942,0,0,1-2.941-1.261A4.077,4.077,0,0,1,667.3,149.4a3.814,3.814,0,0,1,1.261-2.941A4.28,4.28,0,0,1,671.5,145.2h3.361v1.6H671.5A2.471,2.471,0,0,0,669.653,147.553Zm2.689,2.689v-1.681h6.723v1.681Zm7.563-5.042a3.942,3.942,0,0,1,2.941,1.261,4.077,4.077,0,0,1,1.261,2.941,3.814,3.814,0,0,1-1.261,2.941,4.279,4.279,0,0,1-2.941,1.261h-3.362v-1.6h3.362a2.607,2.607,0,0,0,1.849-.756,2.605,2.605,0,0,0-1.849-4.454h-3.362v-1.6h3.362Z" transform="translate(547.537 3430.4)"/></svg>