<?xml version="1.0" encoding="UTF-8" standalone="no"?>
<svg width="352px" height="274px" viewBox="0 0 352 274" version="1.1" xmlns="http://www.w3.org/2000/svg" xmlns:xlink="http://www.w3.org/1999/xlink">
    <!-- Generator: Sketch 3.8.3 (29802) - http://www.bohemiancoding.com/sketch -->
    <title>next</title>
    <desc>Created with Sketch.</desc>
    <defs></defs>
    <g id="Page-1" stroke="none" stroke-width="1" fill="none" fill-rule="evenodd">
        <g id="next" transform="translate(176.000000, 137.000000) rotate(-180.000000) translate(-176.000000, -137.000000) translate(0.000000, 0.000000)" fill="#FFFFFF">
            <path d="M109.3,9.4 L9,114.4 C3,120.2 0,128.1 0,136.8 C0,145.5 3,153.3 9,159.2 L109.3,264.6 C121.2,277.1 140.6,277.1 152.5,264.6 C164.4,252.1 164.4,231.9 152.5,219.4 L104.4,169 L321.4,169 C338.3,169 352,154.7 352,137 C352,119.3 338.3,105 321.4,105 L104.4,105 L152.6,54.6 C164.5,42.1 164.5,21.9 152.6,9.4 C140.6,-3.1 121.3,-3.1 109.3,9.4 L109.3,9.4 Z" id="Shape"></path>
        </g>
    </g>
</svg>